<svg width="136" height="156" viewBox="0 0 136 156" fill="none" xmlns="http://www.w3.org/2000/svg">
<path fill-rule="evenodd" clip-rule="evenodd" d="M66 54.5386C67.5 58.7386 73.4 58.4386 76.4 61.1386C80.5 62.6386 84.0001 64.6386 87.6001 66.6386C94.9001 70.4386 102.5 74.0386 109 78.7386C116.9 85.7386 121.6 96.0386 122.5 110.139V114.739C121.8 116.839 121.1 118.839 119.6 120.239C118.7 124.739 116.5 128.039 114.4 131.439C108.9 137.239 101.5 141.039 94 144.739C85.2 147.139 76.8001 149.839 68.6001 152.839C51.0001 159.139 25.8 155.439 17 143.839C13.3 138.339 10.9001 131.439 10.1001 123.139C9.40005 98.8386 21 86.9386 30 72.3386C30.6667 71.0052 31.3334 69.8386 32 68.8386C32.6 67.8386 33.1667 66.8053 33.7 65.7386C31.4 60.8386 33.8 54.8386 33.7 49.8386C30.1 43.3386 25.9 37.4386 22.2 31.1386C21.8 30.2386 20.1 30.5386 19.9 29.4386C20.4 23.5386 24.3 21.1386 27.4 17.9386C27 16.5386 26.1 15.6386 25.7 14.4386C31 8.0386 47.1001 0.238612 55.1001 8.63861C53.6001 15.7386 58.2001 16.7386 60.5 19.9386C59.5 27.7386 56.8001 40.4386 61.1001 46.7386C62.0001 38.7386 66.6 34.3386 71.5 30.2386C71.1 15.3386 81.9 11.7386 92.5 7.83856C93.7 6.73856 94.2 5.03858 95.4 4.03858C98.9 4.03858 99.6 1.13858 102 0.038575C103.5 0.138575 105.4 -0.361388 106.1 0.638612C104.9 2.73861 101.8 3.03859 100.6 5.23859C100.5 6.33859 100.7 8.23857 100 9.53858C98.9 10.5386 97.7001 11.6386 95.1001 11.2386C87.3 14.9386 77.1001 16.3386 76.1001 26.8386C77.7001 26.9386 80.1 25.4386 83 25.9386C87.2 27.0386 90 29.5386 90.5 34.3386C91.2 45.3386 73.7001 45.7386 72.6001 36.0386C68.7001 38.1386 66.8 42.3386 67.4 49.0386C75.5 51.2386 85.1 49.2386 90.8 46.4386C99.4 42.7386 102.9 33.9386 108.7 27.4386C107.8 26.6386 107.7 25.3386 107.8 23.6386C108.3 22.6386 108.9 21.6386 109.5 20.7386C113.3 19.5386 120.8 15.0386 122.8 21.0386C120.7 21.5386 117.9 21.3386 116.2 22.2386C115.9 23.2386 116 24.5386 115.6 25.9386C114.3 27.0386 113.8 28.8386 111.6 28.8386C106.6 46.3386 90.3 60.6386 66 54.5386ZM76.4 32.8386C77 35.6386 78.2 37.8386 80.7 38.6386C91.1 37.3386 81.2 26.2386 76.4 32.8386Z" fill="#1E1C1B"/>
<path d="M95.4 8.33864C97 8.63864 97.2 7.43865 97.1 6.03865C95.9 5.23865 94.5 7.13864 95.4 8.33864Z" fill="#95E2F9"/>
<path fill-rule="evenodd" clip-rule="evenodd" d="M52.7 9.23865C50.9 18.9386 50.4 30.1387 50.7 42.6387C48.4 43.3387 46.9001 44.8386 44.4001 45.2386C40.4001 35.5386 36.8 25.3387 30.8 17.6387C32.1 15.3387 34.1001 13.7387 36.0001 12.1387C41.3001 19.8387 42.5001 31.5387 46.1001 40.9387C48.2001 39.2387 46.1001 35.3387 46.4001 32.6387C45.0001 24.3387 42.5001 17.3387 39.5001 10.6387C41.3001 9.63867 44.6 10.2387 45.8 8.63867C46.8 10.5387 45.2 15.0387 46.7 16.4387C49 15.3387 47.5 10.5386 48.7 8.33862C50.4 8.33862 51.2 9.23865 52.7 9.23865ZM42.1001 34.3386C40.7001 28.5386 38.8001 23.1387 34.9001 19.9387C34.7001 19.9387 34.5 19.9387 34.3 19.9387C34.3 20.2053 34.3 20.472 34.3 20.7386C35.6334 23.0053 36.8667 25.3386 38.0001 27.7386C39.3001 29.9386 39.7001 33.1386 42.1001 34.3386Z" fill="#4178EF"/>
<path d="M73.7999 27.9387C75.2999 28.0387 74.3999 25.7386 74.6999 24.5386C75.3999 23.1386 75.8999 21.5387 76.3999 19.9387C76.6999 19.8387 76.9999 19.5386 76.9999 19.0386C79.8999 15.3386 85.1999 14.0386 89.5999 11.8386C91.0999 11.4386 94.0999 11.2386 93.6999 9.83862C84.0999 12.7386 72.9999 15.6387 73.7999 27.9387Z" fill="#95E2F9"/>
<path d="M54.8 20.2385C55.4 20.4385 55.9 20.7385 56.5 21.0385C55.2 24.3385 54.8 28.5385 54.2 32.6385C54.2 33.4385 54.2 34.2719 54.2 35.1385C53.8 36.1385 53.9 34.1385 53.9 33.7385C53.9 32.1385 53.9 30.5052 53.9 28.8385C54.3 26.4385 54.3 23.4385 54.8 21.0385C54.8 20.7718 54.8 20.5052 54.8 20.2385Z" fill="white"/>
<path d="M114.1 22.5386C114.9 23.8386 114.2 25.7386 112.1 25.1386C111.6 24.2386 113.2 23.5386 113.3 22.5386C113.567 22.5386 113.833 22.5386 114.1 22.5386Z" fill="#95E2F9"/>
<path d="M29.7 22.8386C34.8 28.6386 36.2 39.8386 38.6 47.5386C36.6 46.8386 37 43.6387 35.5 42.4387C34.6 40.5387 33.3 39.1386 32.6 37.2386C30.3 34.0386 27.6 31.3387 25.7 27.9387C29.5 30.6387 32.3 34.4386 35.5 37.7386C34.6 32.2386 30.6 29.7386 27.7 26.2386C28 24.7386 29.5 24.4386 29.7 22.8386Z" fill="#4178EF"/>
<path d="M79.8 27.7386C72.1 31.3386 65.2 35.7386 64.3 46.1386C65.7 45.7386 65.1 43.3386 65.7 42.1386C67.3 38.8386 69.9 36.6386 71.8 33.7386C74.9 30.8386 78.9 28.7386 84.2 27.9386C83 27.0386 81.6 27.6386 79.8 27.7386Z" fill="#95E2F9"/>
<path d="M87 30.8386C88 33.6386 86.6 36.6386 87.3 38.3386C88.9 37.0386 89.1 31.8386 87 30.8386Z" fill="white"/>
<path d="M74.7 34.9385C74.4 39.8385 82.3 43.5385 85.6 39.5385C80.4 41.4385 76.4 38.1385 74.7 34.9385Z" fill="#95E2F9"/>
<path d="M104.3 38.0386C99.9999 46.9386 90.7999 51.0386 80.0999 53.6386C75.7999 54.0386 70.2999 54.1386 67.3999 52.2386C84.8999 54.5386 97.5999 47.7386 104.3 37.5386C104.7 37.5386 104.6 38.0386 104.3 38.0386Z" fill="#95E2F9"/>
<path d="M59.1001 56.5385C55.7001 59.8385 50.5001 61.2385 45.3001 62.5385C43.3001 62.4385 40.7001 62.9385 39.2001 62.2385C39.5001 61.2385 38.5001 61.4385 38.6001 60.5385C46.2001 61.0385 53.0001 58.2385 58.8001 55.9385C59.5001 55.9385 59.2001 56.1385 59.1001 56.5385Z" fill="#95E2F9"/>
<path fill-rule="evenodd" clip-rule="evenodd" d="M110.4 87.6385C115.3 95.0385 117.3 108.538 114.4 119.638C111.8 123.438 109.2 127.338 106.1 130.638C101 133.038 96.9 136.438 91.9 138.938C87.7 139.938 83.2 140.838 79.6 142.438C75.7 142.738 71.9 142.938 68.6 143.838C65.5 144.838 60.1 143.338 59.4 146.738C61.9 148.038 66.1 147.638 70.3 147.938C58.1 153.338 37.7 151.638 27.1 145.838C26.3 142.338 23 141.238 21.3 138.638C17.5 131.738 16.6 121.838 17 110.738C18.6 101.238 22.2 93.8384 26.8 87.3384C30.2 79.7384 34.6 73.1385 38.6 66.0385C49.1 67.7385 56 63.4385 62.3 59.9385C62.5 59.7385 62.8 59.5385 63.1 59.4385C75.4 72.3385 95.8 77.0385 110.4 87.6385ZM66.9 68.6385C70.8 73.4385 76.9 77.5385 84.2 78.1385C79.3 73.6385 72.8 70.8385 66.9 67.4385C66.9 67.8385 66.9 68.2385 66.9 68.6385ZM34.6 77.5385C37.5 76.7385 39 73.1385 38.3 69.7385C35.5 70.7385 35.5 74.6385 34.6 77.5385ZM49.3 142.738C38.8 140.838 30 137.238 25.7 129.138C17 113.038 28.7 95.3385 32.6 81.6385C32.5 81.2385 32.3 81.1385 32 81.0385C31.9 81.4385 31.5 81.5384 31.4 81.8384C31.1334 81.8384 30.8667 81.8384 30.6 81.8384C25.3 94.4384 16.4 108.638 20.5 126.838C24.7 133.838 29.8 140.038 37.5 143.538C39.3 143.838 40.7 144.538 42.7 144.738C45.5 144.638 48.6 144.838 49.3 142.738ZM82.7 113.838C80.7 101.738 74 94.3384 61.4 92.8384C59.9 86.5384 58.1 80.6385 56.2 74.6385C59.9 73.3385 62.9 75.3385 65.4 76.7385C64.7 72.4385 60.9 71.2384 55.3 71.8384C54.8 71.4384 55 70.4384 54.2 70.3384C53.8 72.3384 52.1 72.8385 50.2 73.2385C50.1 71.6385 49.7 70.4385 48.7 69.7385C48.7 71.3385 47.5 73.1385 48.4 74.6385C44.2 76.3385 41.7 79.6385 41.8 85.6385C42.8 91.4385 48 93.0385 52.7 95.1385C56 106.538 59.6 117.538 64.3 127.438C55 128.738 50.4 122.938 46.1 118.238C47.3 128.038 56.9 131.938 67.7 132.038C68.7 132.238 68.4 133.638 69.8 133.438C70 132.638 69.3 132.638 69.5 131.738C71 131.638 71.7 130.738 72.9 130.338C74.1 130.838 74.1 132.538 75.8 132.638C75.9 130.938 75 130.338 74.9 128.838C79.4 125.738 81.6 120.338 82.7 113.838ZM89.6 134.638C87 133.538 83.3 136.138 81 137.238C83.6 137.938 88.9 137.638 89.6 134.638Z" fill="#4178EF"/>
<path d="M57.6001 92.5385C54.8001 91.9385 54.6001 88.1385 53.9001 85.6385C53.1001 82.8385 52.3001 79.9385 51.6001 77.5385C52.1001 76.6385 53.6001 75.6385 54.5001 76.1385C53.2001 81.7385 57.0001 86.9385 57.6001 92.5385Z" fill="white"/>
<path d="M51.6 90.2386C51 86.4386 50.1 82.9386 49 79.5386C46.4 83.1386 48.1 88.8386 51.6 90.2386Z" fill="white"/>
<path d="M63.7001 111.039C65.6001 115.839 68.2001 119.939 70.0001 124.839C69.2001 125.439 68.2001 126.039 66.9001 126.239C63.0001 116.839 59.7001 106.839 57.1001 96.3386C57.4334 96.3386 57.8001 96.3386 58.2001 96.3386C61.0001 100.239 61.5001 106.539 63.7001 111.039Z" fill="white"/>
<path d="M62.5 96.8386C65.1 106.339 69.1 114.339 72.4 123.139C83.6 116.239 75.8 95.2386 62.5 96.8386Z" fill="#4178EF"/>
<path d="M127.1 96.5386C130 101.639 129.5 114.039 125.4 117.039C126 110.639 126.3 102.839 126.3 96.5386C126.567 96.5386 126.833 96.5386 127.1 96.5386Z" fill="#1E1C1B"/>
<path d="M134.3 96.8386C136.1 101.139 136.5 111.239 132.3 113.039C132.3 108.339 132.6 101.639 133.5 96.8386C133.767 96.8386 134.033 96.8386 134.3 96.8386Z" fill="#1E1C1B"/>
<path d="M6.30008 129.139C7.30008 136.539 11.9001 140.339 14.4001 146.139C8.40009 143.739 4.80009 137.339 5.50009 129.139C5.76676 129.139 6.03341 129.139 6.30008 129.139Z" fill="#1E1C1B"/>
<path d="M9.79999 148.739C6.99999 144.439 2.9 141.439 0 137.239C0.7 143.639 3.89999 147.539 9.79999 148.739Z" fill="#1E1C1B"/>
<path d="M55.3 46.7387C56.6 46.6387 55 47.5387 54.5 47.5387C54.2 48.3387 53.3 48.3387 52.7 48.7387C51.4 49.3387 49.7 49.5387 48.4 50.1387C45.2 50.7387 43 52.2387 39.2 52.2387C44.4 50.1387 50.2 48.7387 55.3 46.7387Z" fill="#95E2F9"/>
<path d="M38.6001 56.8386C46.4001 55.8386 53.4001 54.0386 59.1001 51.0386C57.7001 53.1386 53.2001 54.5386 49.9001 55.6386C46.1001 55.5386 41.7001 59.0386 38.6001 56.8386Z" fill="#95E2F9"/>
</svg>
