<svg width="182" height="130" viewBox="0 0 182 130" fill="none" xmlns="http://www.w3.org/2000/svg">
<path d="M170.1 52.7C172.2 53.6 175.7 53.1 177.6 54.1C176.2 73.5 173.8 92.9 171.6 111.8C170.8 118 170.8 124.3 168.4 129.7C155.4 129.4 142.4 126.8 128.9 124.8C115.2 122.7 101.1 122.8 86.4999 121.9C77.2999 121.3 67.9999 118.8 58.7999 117.3C49.2999 115.7 39.7999 115.9 31.2 113C25.3 111.7 18.3 111.6 13.6 109.2C14.1 101.5 15.6999 92.5 16.7999 84.4C13.0999 67.7 8.19995 50.8 6.69995 32.8C9.79995 26.5 13.6 20.9 19.1 17C34.3 16.2 48.8999 10 66.2999 9.5C90.2999 4.2 116.8 1.60001 144.7 0.200012C145.2 0.300012 145.2 0 145.6 0C149 0.3 151.3 0 154.8 0C155 0.9 155.8 1.10002 156.6 1.40002C161.1 8.50002 161.5 17.9 163.8 26.8C166 35.5 167.9 44.5 170.1 52.7Z" fill="#423F53"/>
<path d="M156 6.30005C159.5 21.3 163 37.9 166.1 52.4C163.7 52.2 163.8 49.3 163.5 47.8C160.5 35 157.7 20.8 155.4 7.20001C155.7 7.00001 155.9 6.60005 156 6.30005Z" fill="white"/>
<path d="M149.9 8.29998C126.2 11.4 102.4 13.5 79.6 18.4C56.9 23.3 33.4 24.2 12.4 31.4C11.9 28.9 15.8 28.4 18.2 27.9C36.3 23.2 56.8 20.8 76.1 17.3C98.6 13.7 121 9.99993 145 7.99993C146.1 7.79993 149.4 7.09998 149.9 8.29998Z" fill="white"/>
<path d="M103 8.30005C103.533 8.30005 104.1 8.30005 104.7 8.30005C75.5999 13.3 47.1999 18.9 17.8999 23.6C18.2999 21.1 20.8999 20.9 23.0999 20.4C29.2999 19 37.6999 17.5 44.6999 17.5C63.3999 13.7 82.5999 10.4 103 8.30005Z" fill="white"/>
<path d="M154.3 9.5C157 23.7 160.3 37.3 162.6 51.8C161.9 51.6 161.1 51.5 160 51.6C158.5 37.5 156.2 24.3 153.1 11.8C153.3 10.8 154 10.4 154.3 9.5Z" fill="white"/>
<path d="M149.4 14.1C150.4 21.2 151.6 28.2 152.2 35.7C150.9 31.8 150.7 26.7 148.8 23.3C146.6 23.9 144.2 24.2999 141.6 24.4999C139.1 23.3999 138.4 20.5 137 18.4C117.2 20.1 98.3001 24.8 78.4001 27.1C58.6001 29.3 38.8 31.6 20.8 36.6C19.8 39.8 18.6001 42.8 16.2001 44.6C15.7001 53 21.2001 61.5 19.4001 69.4C15.6001 59.5 13.9 47.4 11.3 36.3C34.7 33.6 54.3001 27 78.2001 24.7C101.3 21.8 122.2 16.5 146.2 14.4C147 14 148.2 14.1 149.4 14.1Z" fill="white"/>
<path d="M147.6 25.6001C148.7 34.5001 151.2 42.0001 152.5 50.7001C139.9 49.1001 126.7 47.9001 113.3 46.9001C110.5 38.5001 108.8 29.0001 99.5 27.1001C110.6 24.3001 123 22.7001 134.4 20.1001C136.4 24.6001 141.3 28.8001 147.6 25.6001Z" fill="#4178EF"/>
<path d="M47.6001 20.6999C48.0001 20.5999 49.1001 21.0999 49.0001 20.3999C48.6001 20.5999 47.6001 20.0999 47.6001 20.6999Z" fill="white"/>
<path d="M10.6999 21.3C10.1999 24 8.39987 26.4 7.29987 28.8C6.09987 31.1 5.1999 33.8 2.8999 35.1C3.9999 29 6.39989 24.2 10.6999 21.3Z" fill="#423F53"/>
<path d="M5.20001 22.7C3.80001 26.2 2.8 30.1 0 32.2C0.6 27.9 2.30001 24.7 4.70001 22.2C4.90001 22.3 5.20001 22.4 5.20001 22.7Z" fill="#423F53"/>
<path d="M170.4 25.3C170 29.3 171.7 33.6 173.3 36.6C173.9 32.1 173.6 26.8 170.4 25.3Z" fill="#423F53"/>
<path d="M98.0001 29.1001C86.7001 26.0001 76.3001 32.2001 76.4001 44.3001C77.4001 44.2001 79.1001 44.7001 79.6001 44.1001C79.2001 38.8001 81.4001 33.8001 84.8001 31.4001C88.1001 30.4001 92.1001 30.2001 96.0001 29.9001C97.3001 30.4001 98.2001 31.2001 99.5001 31.7001C100.7 33.6001 102.5 34.8001 103.8 36.6001C104.867 38.0668 105.833 39.6001 106.7 41.2001C107.6 42.8001 107.1 45.8001 108.7 46.7001C109.3 46.7001 109.867 46.7001 110.4 46.7001C108.3 38.8001 104.8 32.4001 98.0001 29.1001Z" fill="white"/>
<path d="M77.9 29.4C79.7 29.3 77.2999 30.8 76.9999 31.4C76.5333 32.3334 75.9666 33.2 75.2999 34C74.3999 37.7 72.2999 40.2 71.4999 44.1C56.6999 43.4 41 40.4001 25.4 42.3001C23.8 47.6001 22.9 53.6001 21.7 59.3001C20.1 55.3001 20.1 49.7 18.2 46.1C19.8 43.9 21.7 42.1 22.2 38.9C39.1 33.7 59 31.7 77.9 29.4Z" fill="#4178EF"/>
<path d="M104.7 46.4C97.1001 45.5 88.8 45.3 81.3 44.3C81.9 40 83.0001 36.2 85.4001 33.7C88.5001 32 91.8001 33.7 95.5001 33.1C100.9 35.1 103.7 39.8 104.7 46.4Z" fill="#D9D9D9"/>
<path d="M153.7 44.6C154 45.8 154 43.5 153.7 44.6V44.6Z" fill="white"/>
<path d="M154 46.7001C154.2 46.8001 153.9 46.5001 154 46.7001V46.7001Z" fill="white"/>
<path fill-rule="evenodd" clip-rule="evenodd" d="M116.2 51.8001C135 53.3001 153.3 56.5 171.6 58.5C168.9 78.3 167.6 102 165.5 123.3C161.7 122.2 157 121.9 152.5 121.3C151.9 120.6 154.3 118.2 155.4 117.3C156.4 115.6 159.1 115.6 160.3 114.1C159 112 156.7 114.9 155.1 115.3C153.2 116.8 151.5 118.6 150.8 121.3C145.6 120.5 140.7 120.7 135.5 120.4C109.2 119.1 85.6999 114.2 59.3999 112.7C50.4999 110.4 40.2999 109.5 31.9999 106.6C28.4999 106.5 24.4999 106.9 21.3999 106.3C22.8999 85.6001 24.5999 65 28.5999 46.7C58.8999 45.5 87.5999 49.6001 116.2 51.8001ZM158 58.5C127.8 52.9 92.4999 52.3 57.9999 51C53.6999 48.5 44.8999 49.8 39.7999 49C36.5999 52.6 35.8999 58.1 28.5999 58.2C26.2999 68.5 23.9999 80.1 23.9999 91.6C29.8999 93.2 27.7999 99.8 25.6999 104C29.1999 102.8 31.1999 97.3 28.8999 93.6C30.2999 94.6 30.9999 96.3 31.4999 98.2C31.4999 101.1 29.4999 103 29.6999 105.2C34.5999 106.4 39.7999 106.5 44.6999 107.2C54.6999 108.6 64.7999 109.6 75.2999 110.9C80.3999 111.6 85.6999 112.3 90.7999 112.7C108.8 113.9 126.5 116.8 144.2 118.7C145.4 118.9 145.8 120 147.6 119.6C150.5 117 152.6 113.6 156.9 112.4C159.5 112 162.6 113.2 163.8 111.8C166 98.7001 167.2 84.8 168.1 70.9C162.2 69.5 155.2 66.7 158 58.5Z" fill="white"/>
<path fill-rule="evenodd" clip-rule="evenodd" d="M160.3 72.3C161.8 73.1 163.8 72.9 165.5 73.2C163.8 84.9 163.5 98.1 161.8 109.8C154.4 108.7 149.9 112.6 147.1 117C122.3 111 94.1 111 66.3 107.5C55 106 45.5 103.3 32.9 103.7C35.8 97.4 32.7 90.2999 26 90.2C27.6 80.6 29 70.9 30 60.8C35.8 60.4 38.1 56.5 40.4 52.7C65.2 54.2 91.2 54.3 116.2 55.9C129.7 56.7 142.6 59.4 155.4 60.2C154.7 63.9 154.8 66.7 157.1 69.4C157.6 69.9 158.5 70 159.2 70.6C160 71.3 159.6 71.9 160.3 72.3ZM70.4 80.7C66.8 75.4 54.7 75.9 45 76.3C39.9 76.6 34.2 75.4 32 77.8C42.4 80.9 58.7 79.7 70.4 80.7ZM71 74.3C65.3 69.3 52.7 69.1 41.6 69.1C38.3 69.1 34.1 68.4 32.6 71.2C38.9 73.6 48.5 72.5 55.4 74.3C60.5 74.1 66.5 75.8 71 74.3ZM113.9 65.7C112.833 63.5 111.6 61.4666 110.2 59.6C107.1 56.8 100.5 57.5 96 56.2C95.9 56.2 95.7 56.1999 95.7 56.4999C95.5667 56.4999 95.4 56.4999 95.2 56.4999C80.9 59.5999 73.5 74.6 77.3 92.2C80.5 97.5 83.8 102.8 89.4 105.7C92 106.1 94.4 106.7 97.5 106.6C102.9 105.3 106.5 102.2 109.9 98.8C114.4 90.5 116.3 77.8 113.9 65.7ZM159.2 91.6C157.4 87.8 151.5 88.7999 147.1 88.4999C139.9 87.8999 132.5 86.3 125.1 87.3C123.3 87.3 121.5 87.2999 121.4 88.9999C124 90.9999 129.8 89.7999 133.2 90.9999C139.1 91.6999 146.2 92.6 152.8 92.8C154.9 92.8 158 93.5 159.2 91.6ZM155.1 81.8C148.1 81.2 139.6 81.1999 132.4 80.9999C132 80.9999 132 81.3 131.5 81.2C127.7 81.8 122.2 80.6 120.8 83.6C124.8 85.2 129.8 84.2 134.4 84.4C143.8 84.8 153.8 86.2 162.6 84.7C161.8 82 157.8 82.1 155.1 81.8Z" fill="#4178EF"/>
<path d="M107.6 62.5001C112.3 69.1001 112.1 86.6001 108.7 94.5001C105.1 98.7001 100.9 102.3 93.7 102.9C90.9 102.2 88.6999 100.7 86.4999 99.4001C82.2999 94.6001 78.8 89.0001 78.7 80.1001C80.7 72.3001 83.3 65.0001 89.7 61.6001C85.1 67.0001 81.9 78.0001 83.1 88.5001C83.8 94.8001 88.6 97.2001 93.7 99.1001C98.7 99.7001 101.3 97.9001 104.4 96.5001C109.1 90.6001 109.7 77.0001 107.6 67.7001C105.6 63.5001 99.7 60.0001 93.7 62.5001C92.7 61.8001 95.6999 60.5001 96.2999 59.6001C100.8 59.8001 104.4 60.9001 107.6 62.5001Z" fill="white"/>
<path d="M104.7 67.1C107.6 77.2 106.8 93.9 96.6 95.4C94.4 93.8 92.2999 92.2 89.9999 90.8C84.0999 85.6 85.2999 71.2 90.2999 66C94.5999 63.7 101.7 63.3 104.7 67.1Z" fill="#D9D9D9"/>
<path d="M181.4 93.1001C181.9 96.6001 180.3 100.4 178.8 102.9C177.3 100.5 179.6 95.8001 180.5 93.1001C180.767 93.1001 181.067 93.1001 181.4 93.1001Z" fill="#423F53"/>
<path d="M49.6001 20.1001C83.2001 13.6001 117.6 7.7001 153.1 3.1001C151.4 7.4001 145.7 6.50009 141.6 6.90009C110.5 9.50009 77.8001 16.5001 49.6001 20.1001Z" fill="white"/>
<path d="M30.3 22.9999C36 22.2999 41.3 21.2 47.3 20.7C35.9 22.2 26.4 25.7 15 27.3C15.9 24.8 19.3 24.8999 22 24.4999C24.9 23.9999 27.9 23.5999 30.3 22.9999Z" fill="white"/>
</svg>
