<svg width="162" height="174" viewBox="0 0 162 174" fill="none" xmlns="http://www.w3.org/2000/svg">
<path d="M119.694 34.6267C129.194 47.4267 139.294 59.5267 139.594 81.3267C139.194 82.4267 139.094 83.8267 138.794 85.1267C136.294 88.2267 132.494 90.1267 128.994 92.3267C122.294 91.4267 116.194 89.8267 111.994 86.5267C108.094 82.2267 105.594 76.4267 103.994 69.8267C103.727 68.8267 103.494 67.7934 103.294 66.7267C101.794 59.7267 100.994 52.0267 100.094 44.4267C100.194 41.8267 100.994 39.9267 100.994 37.2267C104.094 34.5267 107.494 32.0267 112.294 30.9267C113.794 30.6267 113.994 31.6267 115.394 31.4267C117.094 32.3267 118.094 33.8267 119.694 34.6267Z" fill="#423F53"/>
<path d="M153.494 110.427C157.794 131.027 145.094 145.927 128.394 148.227C122.194 149.027 111.694 146.627 106.194 143.627C98.7935 137.227 96.9935 120.127 100.894 108.927C100.994 107.627 101.394 106.427 102.094 105.127C102.794 103.927 103.794 102.927 104.994 102.027C107.494 99.4267 110.194 97.0267 113.394 95.1267C118.494 95.0267 122.894 94.2267 127.494 93.7267C127.494 93.5267 127.594 93.4268 127.794 93.4268C131.394 93.5268 135.394 93.2267 138.194 94.0267C145.794 97.0267 150.794 102.527 153.494 110.427Z" fill="#423F53"/>
<path d="M88.2936 113.027C88.7936 114.327 91.3936 115.927 92.3936 117.627C96.4936 125.527 97.9936 141.027 94.3936 150.827C90.5936 156.327 88.1936 163.327 82.5936 166.927C77.2936 168.927 73.2936 172.527 67.2936 173.027C58.0936 173.727 49.1936 167.827 44.7936 162.627C41.1936 158.327 37.0936 151.827 37.2936 144.127C35.6936 144.127 33.3936 145.827 30.9936 145.927C27.0936 145.327 23.3936 146.227 19.3936 145.627C15.8936 144.027 11.9936 142.227 9.09357 139.527C-0.406425 130.927 -4.00641 110.327 5.89359 99.8266C11.8936 93.0266 21.5936 89.9266 32.6936 88.2266C35.7936 87.9266 37.7936 88.7266 39.8936 89.4266C39.1936 77.1266 44.2936 70.6266 49.3936 64.0266C44.5936 63.6266 40.0936 63.0266 35.5936 62.3266C28.5936 57.6266 28.7936 45.4266 29.7936 34.6266C30.9936 21.7266 36.3936 9.4266 43.8936 3.5266C45.7936 2.7266 47.6936 1.8266 49.9936 1.5266C50.5269 1.59326 51.0269 1.6266 51.4936 1.6266C51.9603 1.6266 52.4269 1.65994 52.8936 1.72661C54.1936 1.72661 55.5936 1.6266 56.8936 1.6266C58.0936 1.3266 59.2936 1.2266 60.3936 1.5266C61.6936 1.5266 62.9936 1.7266 64.0936 2.0266C67.3936 5.7266 67.1936 12.8266 68.3936 18.5266C69.7936 34.0266 66.3936 46.7266 61.4936 56.8266C67.3936 56.8266 71.5936 55.1266 77.0936 54.8266C83.8936 55.5266 88.7936 58.1266 93.7936 60.6266C95.4936 62.5266 97.6936 64.0266 99.2936 66.0266C107.894 81.9266 104.294 107.327 88.2936 113.027Z" fill="#423F53"/>
<path d="M33.8936 0.026597C34.4936 -0.073403 34.9936 0.126615 35.2936 0.326615C34.1936 3.52662 32.7936 6.3266 31.2936 9.0266C28.9936 6.2266 32.1936 1.7266 33.8936 0.026597Z" fill="#423F53"/>
<path d="M33.8936 10.7267C37.3936 8.72675 38.2936 4.12676 40.4936 0.926758C36.0936 2.02676 34.4936 5.82675 33.8936 10.7267Z" fill="#423F53"/>
<path d="M61.4937 5.22664C61.9937 6.32664 62.1937 7.62663 62.3937 9.02663C61.3937 9.02663 60.427 9.02663 59.4937 9.02663C59.9937 7.12663 58.1937 6.02664 58.5937 5.22664C59.2937 4.62664 60.2937 5.52664 61.4937 5.22664Z" fill="white"/>
<path fill-rule="evenodd" clip-rule="evenodd" d="M55.4936 9.82657C57.2936 23.6266 54.8936 42.3266 48.7936 50.8266C47.7936 52.2266 45.9936 53.7266 44.4936 55.1266C43.0936 56.3266 41.2936 58.2266 39.2936 58.2266C35.0936 58.2266 34.4936 53.4266 34.0936 49.9266C32.6936 34.5266 36.0936 20.4266 42.1936 10.7266C43.3936 8.82656 45.4936 6.42657 46.7936 5.82657C46.7936 5.52657 47.1936 5.62655 47.3936 5.52655C47.2936 5.32655 47.4936 5.22656 47.6936 5.22656C48.5603 5.22656 49.427 5.22656 50.2936 5.22656C52.6936 6.12656 53.9936 8.02657 55.4936 9.82657ZM55.7936 17.3266C55.4936 13.1266 54.6936 9.52657 51.9936 7.82657C50.5936 7.62657 49.5936 7.42657 48.2936 7.82657C40.1936 15.6266 36.2936 27.5266 34.9936 42.1266C35.5936 46.8266 34.2936 53.4266 38.9936 53.9266C43.3936 54.4266 44.0936 51.1266 46.4936 49.6266C50.8936 40.1266 54.9936 30.4266 55.7936 17.3266Z" fill="white"/>
<path d="M52.5937 15.0267C52.4937 28.9267 48.2937 38.8267 43.6937 48.2267C41.9937 48.7267 41.4937 50.4267 39.2937 50.5267C34.9937 35.6267 41.3937 18.9267 48.4937 11.0267C48.7937 10.7267 49.0937 10.5268 49.3937 10.4268C49.527 10.4268 49.627 10.4268 49.6937 10.4268C51.8937 10.7268 51.9937 13.1267 52.5937 15.0267Z" fill="#4178EF"/>
<path d="M62.9936 11.3267C63.2936 12.0267 63.3936 13.0267 63.4936 13.9267C62.6269 13.9267 61.7602 13.9267 60.8936 13.9267C60.7936 12.9267 60.3936 12.3267 60.3936 11.3267C61.2602 11.3267 62.1269 11.3267 62.9936 11.3267Z" fill="white"/>
<path d="M63.7937 18.8265C62.7937 18.7265 61.9936 18.8265 61.1936 19.0265C61.1936 18.1265 60.6937 17.6265 60.8937 16.4265C62.8937 15.6265 64.4937 15.8265 63.7937 18.8265Z" fill="white"/>
<path d="M63.7935 20.8265C63.7935 21.8932 63.7935 22.9265 63.7935 23.9265C62.8935 23.9265 61.4935 24.2265 60.8935 23.7265C60.5935 21.4265 61.4935 20.3265 63.7935 20.8265Z" fill="white"/>
<path d="M63.7936 26.5266C63.9936 27.7266 63.5936 28.2266 63.4936 29.1266C62.5602 29.1266 61.6269 29.1266 60.6936 29.1266C60.3936 27.9266 61.0936 27.7266 60.8936 26.5266C61.8936 26.5266 62.8602 26.5266 63.7936 26.5266Z" fill="white"/>
<path d="M94.3936 27.4267C93.8936 29.0267 93.1935 30.9267 92.6935 32.9267C92.1935 34.4267 92.1935 37.1266 90.2935 37.5266C90.0935 33.5266 90.1936 29.4266 92.3936 27.1266C92.7936 27.0266 93.8935 27.5267 93.7935 26.8267C94.0935 27.0267 94.2936 27.1267 94.3936 27.4267Z" fill="#423F53"/>
<path d="M95.1936 40.1267C96.6936 37.4267 97.0936 32.2268 97.5936 29.4268C94.4936 30.2268 93.3936 37.2267 95.1936 40.1267Z" fill="#423F53"/>
<path d="M62.9935 31.7266C63.3935 32.2266 62.7935 33.5266 62.6935 34.3266C61.6935 33.8266 60.7935 34.2266 59.7935 34.3266C59.2935 33.7266 60.1935 32.5266 60.3935 31.7266C61.2602 31.7266 62.1269 31.7266 62.9935 31.7266Z" fill="white"/>
<path fill-rule="evenodd" clip-rule="evenodd" d="M135.293 72.7266C135.193 76.5266 135.593 80.8266 133.893 83.0266C126.993 83.0266 123.593 79.5266 120.293 75.8266C119.593 75.1266 119.893 73.4266 119.193 72.7266C113.693 65.3266 110.993 55.1266 110.793 42.4266C111.093 39.7266 111.093 36.7266 112.293 34.9266C112.493 34.7266 112.393 34.1266 112.793 34.0266C119.993 37.1266 122.593 44.8266 127.193 50.5266C130.593 57.2266 134.493 63.4266 135.293 72.7266ZM128.093 56.2266C124.193 50.8266 122.293 43.4266 116.593 39.8266C115.593 39.6266 115.493 40.2266 114.593 40.1266C114.493 39.4266 113.793 40.4266 113.693 40.7266C111.993 51.8266 114.993 64.1266 119.693 72.1266C121.793 75.5266 124.893 78.4266 128.093 79.6266C130.893 79.8266 132.393 78.9266 133.593 77.6266C135.693 68.8266 130.793 62.1266 128.093 56.2266Z" fill="white"/>
<path d="M107.394 36.1267C108.194 37.7267 107.194 39.9267 107.094 41.5267C105.894 41.5267 104.994 41.8267 104.494 42.4267C102.894 38.9267 105.994 37.6267 107.394 36.1267Z" fill="white"/>
<path d="M58.3936 37.5266C59.5269 37.5266 60.6602 37.5266 61.7936 37.5266C61.8936 38.8266 61.1936 39.4266 61.1936 40.7266C60.1936 40.5266 59.0936 40.3266 57.7936 40.4266C57.5936 39.0266 58.3936 38.7266 58.3936 37.5266Z" fill="white"/>
<path d="M129.793 66.9267C130.193 69.8267 131.693 74.4267 129.493 76.4267C124.493 75.1267 121.893 69.9267 119.693 64.9267C117.193 58.9267 114.993 52.6267 114.793 44.4267C114.893 43.7267 115.193 43.2267 115.393 42.7267C115.293 42.2267 115.693 42.2267 115.693 41.8267C115.96 41.8267 116.26 41.8267 116.593 41.8267C121.993 49.1267 125.993 57.9267 129.793 66.9267Z" fill="#4178EF"/>
<path d="M60.0935 43.5266C59.9935 45.2266 59.2936 46.3266 58.8936 47.6266C57.7936 47.2266 56.4936 46.9266 54.8936 47.0266C55.4936 44.3266 56.3935 42.5266 60.0935 43.5266Z" fill="white"/>
<path d="M106.494 46.1265C105.594 46.3265 104.894 47.6265 104.194 47.0265C104.194 46.3598 104.194 45.6932 104.194 45.0265C105.294 44.0265 107.094 43.2265 106.494 46.1265Z" fill="white"/>
<path d="M106.193 48.4268C106.393 51.1268 107.893 55.0268 106.493 57.4268C105.193 55.3268 104.993 52.2267 104.793 49.0267C105.46 49.0934 105.927 48.8934 106.193 48.4268Z" fill="white"/>
<path d="M53.6935 49.9268C55.2935 50.0268 56.4935 50.4267 58.0935 50.5267C57.8935 51.3267 57.4935 52.0268 57.1935 52.8268C55.7935 52.6268 54.4936 52.4267 52.8936 52.5267C52.8936 51.3267 53.4935 50.8268 53.6935 49.9268Z" fill="white"/>
<path d="M55.4935 55.4267C55.6935 56.6267 54.5935 56.6267 54.5935 57.7267C53.3935 57.26 52.0602 56.9601 50.5935 56.8267C50.5935 55.9267 51.2935 55.8267 51.3935 55.1267C52.3935 55.5267 54.0935 55.3267 55.4935 55.4267Z" fill="white"/>
<path d="M52.5936 59.1265C53.2936 59.9265 51.7936 60.2265 51.6936 61.1265C50.8936 60.3265 49.8937 59.7265 47.9937 60.0265C48.4937 58.2265 50.8936 59.0265 52.5936 59.1265Z" fill="white"/>
<path d="M107.393 59.1267C107.893 59.9267 108.193 61.9267 107.893 62.6267C107.193 61.8267 106.993 60.6267 106.793 59.4267C107.093 59.4267 107.293 59.3267 107.393 59.1267Z" fill="white"/>
<path d="M82.2935 60.3265C82.4935 60.5265 82.1935 60.1265 82.2935 60.3265V60.3265Z" fill="white"/>
<path d="M84.5935 61.4268C84.7935 62.9268 86.6935 62.1268 87.1935 61.4268C86.5935 60.8268 85.2935 61.2268 84.5935 61.4268Z" fill="white"/>
<path d="M92.0936 64.0266C91.5936 65.0266 89.9937 65.0266 89.4937 66.0266C88.6937 65.3266 87.6937 64.9266 87.4937 63.7266C89.3937 63.3266 90.8936 62.3266 92.0936 64.0266Z" fill="white"/>
<path fill-rule="evenodd" clip-rule="evenodd" d="M80.5936 71.8267C86.4936 87.5267 77.8936 102.627 64.6936 105.527C60.3936 105.827 58.3936 104.027 55.7936 102.627C54.0936 99.2267 50.7936 96.7267 49.6936 93.1267C46.0936 81.4267 54.7936 67.4267 64.9936 66.3267C71.9936 65.1267 76.7936 68.7267 80.4936 71.8267H80.5936ZM74.8936 74.4267C75.4936 74.4267 76.0602 74.4267 76.5936 74.4267C76.9936 73.7267 77.2936 73.0267 77.1936 71.8267C75.4936 69.9267 73.1936 72.9267 74.8936 74.4267ZM72.8936 72.7267C73.8936 72.3267 74.1936 71.3267 73.9936 69.8267C71.2936 67.1267 68.6936 73.0267 72.8936 72.7267ZM67.6936 69.8267C68.2936 70.0267 68.4936 70.7267 69.3936 70.6267C69.9936 70.1267 70.6936 69.8267 70.5936 68.6267C70.0936 66.8267 66.9936 67.3267 67.6936 69.8267ZM62.4936 98.3267C61.2936 97.2267 59.4936 98.0267 59.8936 100.027C60.8936 101.327 63.1936 100.527 62.4936 98.3267ZM66.7936 98.3267C65.1936 95.0267 61.7936 100.027 65.3936 100.627C66.1936 100.227 66.9936 99.8267 66.7936 98.3267ZM70.5936 98.9267C70.4936 97.0267 67.1936 97.6267 67.9936 99.8267C68.6936 100.327 70.6936 100.227 70.5936 98.9267ZM75.6936 87.6267C76.1936 81.1267 74.8936 76.2267 71.3936 73.5267C69.5936 73.4267 67.1936 72.4267 65.3936 73.2267C64.3936 73.0267 64.2936 73.7267 63.3936 73.5267C57.5936 75.9267 52.7936 85.1267 57.5936 92.0267C62.6936 97.7267 74.1936 94.5267 75.6936 87.6267ZM76.8936 93.7267C76.6936 93.66 76.5936 93.46 76.5936 93.1267C74.9936 92.0267 73.5936 94.0267 74.5936 95.4267C75.0936 95.4267 75.1936 95.8267 75.6936 95.7267C76.3936 95.3267 77.0936 95.0267 76.8936 93.7267ZM79.4936 85.6267C78.2936 84.1267 76.0936 86.0267 77.1936 87.6267C78.5936 88.1267 79.6936 87.5267 79.4936 85.6267ZM78.5936 78.4267C78.9936 78.4267 78.9936 78.1267 79.4936 78.1267C82.0936 72.9267 73.2936 76.4267 78.5936 78.4267Z" fill="#4178EF"/>
<path d="M96.6935 70.1266C95.1935 70.4266 93.5934 70.6266 92.0934 70.9266C91.5934 69.7266 90.7935 68.7266 90.2935 67.5266C93.3935 65.3266 95.7935 66.6266 96.6935 70.1266Z" fill="white"/>
<path d="M144.294 69.8267C146.694 71.8267 147.294 80.1266 143.994 81.6266C143.894 78.6266 144.094 73.3267 143.694 69.8267C143.894 69.8267 144.094 69.8267 144.294 69.8267Z" fill="#423F53"/>
<path d="M110.194 70.4266C110.094 70.2266 110.394 70.5266 110.194 70.4266V70.4266Z" fill="white"/>
<path d="M110.494 70.9266C110.394 70.8266 110.694 71.1266 110.494 70.9266V70.9266Z" fill="white"/>
<path d="M110.793 71.5267C110.693 71.4267 110.993 71.7267 110.793 71.5267V71.5267Z" fill="white"/>
<path d="M111.094 72.1265C110.994 72.0265 111.294 72.3265 111.094 72.1265V72.1265Z" fill="white"/>
<path d="M97.5935 72.1267C97.6935 72.9267 97.6935 73.9267 98.0935 74.4267C96.7935 75.2267 94.2936 75.0267 92.8936 75.8267C92.2936 75.3267 92.8936 73.6267 92.3936 72.9267C93.8936 72.5267 95.7935 72.3267 97.5935 72.1267Z" fill="white"/>
<path d="M147.694 72.1267C146.294 74.1267 147.594 78.6267 147.094 80.7267C149.794 80.7267 150.794 72.6267 147.694 72.1267Z" fill="#423F53"/>
<path d="M111.394 72.7267C111.594 72.8267 111.294 72.5267 111.394 72.7267V72.7267Z" fill="white"/>
<path d="M98.6935 77.0267C98.6935 77.9267 99.1935 78.4267 98.9935 79.6267C96.5935 79.7267 94.8935 80.4267 92.6935 80.7267C92.6935 79.7267 92.3935 78.2267 92.8935 77.6267C95.1935 77.7267 96.4935 76.9267 98.6935 77.0267Z" fill="white"/>
<path d="M46.7935 82.7267C46.8935 84.5267 47.3935 81.6267 46.7935 82.7267V82.7267Z" fill="white"/>
<path d="M98.9936 86.5266C96.6936 86.4266 95.0936 87.0266 92.6936 86.8266C92.6936 85.6933 92.6936 84.5266 92.6936 83.3266C94.7936 83.2266 96.7936 83.0266 98.3936 82.5266C99.6936 82.7266 98.6936 85.3266 98.9936 86.5266Z" fill="white"/>
<path d="M13.6937 83.0266C13.0937 86.7266 6.69368 87.0266 4.99368 90.5266C2.69368 86.5266 8.89367 84.2266 11.8937 82.7266C12.4937 82.9266 13.5937 82.4266 13.6937 83.0266Z" fill="#423F53"/>
<path d="M46.4937 85.1265C46.5937 86.8265 47.0937 84.0265 46.4937 85.1265V85.1265Z" fill="white"/>
<path d="M16.7936 87.4267C14.4936 91.5267 9.49361 93.1267 5.89361 96.0267C4.29361 94.4267 6.49362 92.9267 6.99362 91.7267C9.99362 90.0267 11.6936 86.9267 16.7936 87.4267Z" fill="#423F53"/>
<path d="M98.6935 89.4266C98.6935 90.16 98.6935 90.9266 98.6935 91.7266C97.3935 91.8266 93.9935 91.6266 91.7935 91.7266C91.2935 87.5266 96.0935 90.5266 98.6935 89.4266Z" fill="white"/>
<path d="M33.2935 92.3265C36.1935 92.2265 38.3935 95.7265 40.4935 93.1265C38.5935 92.5265 35.5935 91.5265 33.2935 92.3265Z" fill="white"/>
<path d="M97.7935 94.3266C98.1935 95.5266 96.8935 97.3266 96.3935 98.6266C94.1935 98.2266 92.2935 97.6266 90.0935 97.2266C90.5935 96.1266 90.7935 94.8266 91.1935 93.7266C92.8935 94.4266 95.3935 94.3266 97.7935 94.3266Z" fill="white"/>
<path d="M41.2935 95.4266C42.0935 95.8266 43.1935 96.9266 43.8935 95.7266C42.9935 95.2266 41.9935 94.0266 41.2935 95.4266Z" fill="white"/>
<path fill-rule="evenodd" clip-rule="evenodd" d="M45.6936 108.427C45.8936 111.227 47.2936 115.227 44.4936 116.227C42.1936 108.827 40.8936 100.327 33.5936 98.0267C19.0936 97.3267 8.39361 102.927 7.89361 115.927C7.39361 127.527 15.2936 135.327 28.6936 134.627C32.5936 134.327 35.5936 131.627 38.1936 130.927C36.8936 137.427 31.3936 139.727 25.1936 141.327C20.3936 140.527 16.7936 138.527 13.0936 136.627C11.3936 134.727 9.7936 132.627 8.1936 130.627C7.3936 127.927 6.49361 125.427 5.89361 122.527C3.69361 106.927 10.9936 99.0268 21.6936 95.4268C23.7936 95.4268 25.7936 95.3268 27.4936 94.9268C29.8936 94.9268 31.6936 95.5267 33.8936 95.7267C36.8936 97.3267 39.6936 99.3267 42.1936 101.527C43.3936 103.727 44.6936 105.927 45.6936 108.427ZM19.6936 137.227C20.0936 137.627 21.3936 137.627 21.6936 137.227C21.6936 136.76 21.6936 136.293 21.6936 135.827C20.7936 135.027 19.2936 135.727 19.6936 137.227Z" fill="#4178EF"/>
<path d="M127.194 96.3267C129.494 96.9267 132.894 97.9267 134.494 96.0267C132.494 95.5267 128.794 95.5267 127.194 96.3267Z" fill="white"/>
<path d="M134.994 98.3266C136.794 99.4266 138.094 98.2266 139.594 97.4266C138.394 95.7266 136.294 97.6266 134.994 98.3266Z" fill="white"/>
<path d="M47.3936 99.5266C47.1936 99.7266 46.5937 99.6266 46.4937 100.027C45.3937 99.8266 44.9937 98.7266 44.4937 97.7266C46.0937 96.9266 47.0936 98.2266 47.3936 99.5266Z" fill="white"/>
<path d="M138.793 100.327C140.093 101.727 141.593 99.7267 142.793 99.2267C141.593 98.6267 139.793 99.8267 138.793 100.327Z" fill="white"/>
<path d="M88.8936 99.2266C90.4936 100.127 92.4936 100.627 94.3936 101.227C93.8936 102.727 92.7936 103.527 92.0936 104.727C90.2936 104.127 88.7936 103.127 87.1936 102.327C87.8936 101.427 88.2936 100.227 88.8936 99.2266Z" fill="white"/>
<path fill-rule="evenodd" clip-rule="evenodd" d="M142.794 107.827C149.294 117.727 144.994 135.727 137.294 141.027C131.894 142.027 124.094 143.327 116.894 142.427C111.194 139.727 105.594 130.127 104.794 122.227C103.794 113.327 108.294 105.827 113.394 101.527C116.294 101.127 118.294 99.9267 121.794 100.027C131.494 98.8267 137.694 103.527 142.794 107.827ZM114.294 105.227C114.76 105.227 115.227 105.227 115.694 105.227C116.294 104.827 116.394 103.827 116.294 102.627C114.394 101.227 112.694 104.127 114.294 105.227ZM142.194 112.727C137.994 107.627 133.694 102.627 123.494 103.527C123.294 103.527 123.194 103.527 123.194 103.827C116.394 104.427 112.394 108.027 109.694 112.727C105.694 126.927 112.994 138.427 124.894 140.427C127.694 140.327 129.994 139.927 132.994 140.127C141.294 136.627 146.494 124.227 142.194 112.727Z" fill="#4178EF"/>
<path fill-rule="evenodd" clip-rule="evenodd" d="M39.8935 121.727C37.2935 126.427 33.2935 129.727 26.8935 130.627C17.1935 130.227 11.7935 125.427 10.7935 116.227C12.6935 107.427 18.1935 102.327 27.7935 101.227C29.1935 100.427 31.3935 101.227 32.9935 101.227C38.6935 104.527 41.2935 113.127 39.8935 121.727ZM16.5934 109.027C17.1934 109.427 17.4935 110.127 18.8935 109.827C19.6935 109.327 19.4935 107.627 18.8935 107.027C17.0935 106.727 16.3934 107.427 16.5934 109.027ZM15.9935 118.227C16.1268 116.893 15.5601 116.327 14.2935 116.527C13.7935 116.927 13.7935 118.127 14.2935 118.527C15.0935 118.827 15.1935 118.627 15.9935 118.227ZM16.2935 114.527C17.5935 114.027 17.5934 112.127 16.5934 111.327C13.7934 110.627 13.9935 114.727 16.2935 114.527ZM19.6935 121.727C19.1935 118.627 14.7934 121.227 17.0934 123.427C18.7934 123.727 19.5935 123.027 19.6935 121.727ZM24.2935 123.727C21.3935 123.727 22.6935 128.527 25.1935 127.127C26.0935 126.227 25.9935 123.727 24.2935 123.727ZM29.7935 125.727C28.8935 124.827 27.0935 125.127 27.4935 127.127C28.2935 127.793 29.0601 127.793 29.7935 127.127C29.7935 126.66 29.7935 126.193 29.7935 125.727ZM35.2935 103.827C33.4935 103.727 32.7935 104.627 32.9935 106.427C33.7935 107.027 34.2934 107.427 35.5934 107.027C35.9934 106.327 36.2935 105.627 36.1935 104.427C35.7935 104.227 35.4935 104.127 35.2935 103.827Z" fill="white"/>
<path d="M49.0934 100.927C49.4934 102.227 50.7935 102.727 50.8935 104.427C49.9935 104.427 49.6935 104.927 48.7935 104.927C48.1935 103.827 47.7935 102.627 46.7935 101.827C47.2935 101.227 48.1934 101.027 49.0934 100.927Z" fill="white"/>
<path d="M146.594 103.227C145.694 103.527 145.194 104.227 144.294 104.427C143.594 103.427 142.094 103.427 141.894 102.127C144.094 101.027 145.894 100.527 146.594 103.227Z" fill="white"/>
<path d="M83.6936 106.427C85.6936 107.027 88.0936 109.326 89.7936 107.026C87.2936 106.526 85.0936 102.427 83.6936 106.427Z" fill="white"/>
<path d="M147.994 104.727C148.194 105.427 148.794 105.827 148.894 106.727C147.694 106.427 147.494 107.227 146.594 107.227C146.294 106.727 146.094 106.027 145.394 105.827C145.894 105.127 146.694 104.627 147.994 104.727Z" fill="white"/>
<path fill-rule="evenodd" clip-rule="evenodd" d="M139.394 113.927C141.994 123.427 138.394 133.027 131.894 136.127C129.094 135.927 127.194 136.427 125.194 136.927C123.094 136.527 121.494 135.527 119.494 134.927C109.494 130.027 106.494 106.827 122.594 106.427C131.194 104.727 135.994 109.327 139.394 113.927ZM126.694 117.327C125.394 117.727 123.794 119.227 122.894 119.127C122.694 118.527 122.394 118.027 122.294 117.327C124.894 115.527 128.194 114.527 129.794 111.927C129.594 109.827 129.394 107.727 127.494 107.227C122.694 109.227 117.294 110.727 114.794 115.027C115.894 119.227 117.494 122.827 119.194 126.327C123.194 127.027 125.594 124.627 128.394 125.127C129.194 126.327 127.894 127.427 126.994 127.727C125.594 127.727 124.894 127.127 123.794 126.927C122.694 128.427 120.194 128.527 120.294 131.227C121.094 133.127 123.194 133.727 124.894 134.627C139.494 138.027 140.994 115.527 126.694 117.327Z" fill="#4178EF"/>
<path d="M51.9936 106.427C52.1936 107.627 52.7936 108.227 52.8936 109.627C51.6936 109.427 51.1936 109.827 50.2936 109.827C50.4936 108.527 49.5936 108.227 49.6936 107.027C50.3936 106.727 50.9936 106.327 51.9936 106.427Z" fill="white"/>
<path d="M56.2935 107.027C57.6935 107.127 58.0935 108.327 59.7935 108.127C59.3935 109.127 58.2935 109.427 57.1935 109.627C56.8935 108.727 56.5935 107.927 56.2935 107.027Z" fill="white"/>
<path d="M81.0936 107.527C82.0936 108.227 82.7936 109.327 83.9936 109.827C83.0936 111.027 81.2936 108.727 79.6936 108.727C79.7936 107.927 80.8936 108.227 81.0936 107.527Z" fill="white"/>
<path d="M150.594 110.727C149.394 110.527 149.394 111.527 148.294 111.327C148.094 110.527 147.994 109.727 147.394 109.327C147.494 108.427 148.894 108.927 149.194 108.127C150.294 108.427 150.094 109.827 150.594 110.727Z" fill="white"/>
<path fill-rule="evenodd" clip-rule="evenodd" d="M92.0935 131.527C92.2935 144.327 87.4936 152.127 82.2936 159.427C78.3936 160.327 75.6936 162.527 71.5935 163.227C55.7935 163.527 51.1935 152.627 47.0935 141.327C46.3935 133.227 47.5936 125.427 51.3936 121.127C55.8936 118.527 57.6936 113.227 63.7936 112.127C64.8936 112.027 64.9935 111.027 65.5935 110.427C68.0935 109.827 72.4936 109.327 74.4936 110.727C75.6936 110.927 72.8936 112.527 74.1936 113.927C57.3936 113.827 49.2935 126.627 52.5935 143.927C52.4935 144.727 49.9936 143.227 49.6936 145.027C49.3936 146.927 50.6936 147.127 51.3936 147.927C52.2936 147.727 52.8936 147.327 52.8936 146.227C54.4936 149.727 56.2936 153.227 58.8936 155.727C62.4936 157.927 66.8936 159.427 71.8936 158.827C82.0936 157.827 87.2936 149.727 89.1936 140.727C89.3936 127.527 86.7936 117.227 76.7936 114.227C76.5936 113.427 77.6936 112.427 76.7936 111.927C77.8936 111.427 79.3936 112.927 80.7936 113.027C79.8936 113.427 79.1936 114.827 80.2936 115.627C81.6936 115.827 82.4936 115.327 82.2936 113.927C87.6936 116.527 90.8936 121.227 91.7936 128.327C91.5936 129.127 89.1936 128.327 89.1936 130.027C88.9936 132.027 91.5935 131.727 92.0935 131.527ZM70.1936 113.327C72.3936 113.927 72.8936 111.827 71.8936 110.727C69.8936 110.227 69.4936 112.027 70.1936 113.327ZM66.3936 111.627C66.3936 112.127 66.6936 112.227 66.6936 112.727C67.4936 112.827 68.2936 112.827 68.1936 111.927C68.0936 111.127 66.7936 111.227 66.3936 111.627ZM60.0935 115.927C61.0935 117.027 63.6936 116.527 62.9936 114.227C61.7936 113.127 59.5935 113.727 60.0935 115.927ZM49.3936 142.427C50.3936 135.827 50.0935 128.027 52.5935 122.827C52.1935 122.827 52.1936 122.427 51.6936 122.527C48.0936 126.327 45.3936 136.927 49.3936 142.427Z" fill="#4178EF"/>
<path d="M134.194 127.127C132.794 129.527 130.094 130.527 128.094 132.327C126.294 132.027 122.894 132.127 124.094 129.727C127.694 131.227 132.694 127.227 129.794 123.127C127.094 122.227 123.294 123.527 120.594 124.327C119.294 121.527 118.094 118.527 116.894 115.627C119.594 112.927 123.394 111.427 127.194 109.827C127.094 110.827 127.394 111.227 127.494 111.927C124.894 113.027 122.994 114.827 120.294 115.927C119.794 118.127 120.694 120.727 122.294 121.727C125.194 121.127 127.894 120.527 130.694 119.927C132.894 121.327 134.394 123.427 134.194 127.127Z" fill="white"/>
<path d="M50.8936 112.127C51.0936 112.127 51.3936 112.127 51.3936 111.927C51.1936 111.927 50.8936 111.927 50.8936 112.127Z" fill="white"/>
<path d="M150.894 117.327C150.427 117.327 149.927 117.327 149.394 117.327C149.594 115.727 149.294 114.627 149.194 113.327C151.594 111.427 150.694 115.327 150.894 117.327Z" fill="white"/>
<path fill-rule="evenodd" clip-rule="evenodd" d="M85.6935 139.227C83.6935 147.727 78.7935 155.327 69.5935 155.727C54.7935 156.327 50.8935 134.727 58.0935 123.427C61.2935 121.127 63.4935 117.727 68.6935 117.327C70.5935 116.727 73.5936 117.227 75.8936 117.027C83.6936 120.027 85.8935 128.527 85.6935 139.227ZM81.9936 138.127C79.7936 137.227 77.4936 138.027 75.3936 138.727C76.6936 135.427 77.6936 130.527 76.7936 126.027C74.4936 120.827 65.2936 121.327 61.7936 125.127C60.5936 127.127 59.4936 130.427 60.3936 133.527C61.6936 133.327 63.2936 133.827 63.7936 133.527C65.4936 132.127 66.9935 126.927 70.1935 129.727C69.3935 137.327 63.4935 139.627 60.6935 145.027C60.4935 146.427 60.7935 147.427 61.1935 148.227C68.5935 150.227 77.3936 147.127 82.8936 144.427C82.8936 142.027 82.7936 139.627 81.9936 138.127Z" fill="white"/>
<path d="M149.693 127.427C150.093 124.927 151.393 121.827 150.593 119.127C149.093 120.427 149.693 125.527 149.693 127.427Z" fill="white"/>
<path d="M79.3935 141.626C77.7935 143.526 73.6935 142.926 71.2935 144.126C68.6935 145.026 66.7935 146.527 63.2935 146.427C63.8935 143.927 66.3935 142.526 67.8935 140.726C69.3935 138.726 70.5935 136.626 72.1935 134.626C72.2935 131.926 73.1935 127.827 71.2935 126.327C70.8935 126.327 70.4935 126.326 70.4935 126.026C67.8935 125.626 67.2935 127.227 65.2935 127.427C63.7935 128.327 64.0935 130.926 62.0935 131.226C61.1935 123.426 72.8935 122.626 75.0935 128.026C75.7935 134.726 72.6935 137.726 70.4935 141.626C72.2935 144.726 77.1935 140.826 79.3935 141.626Z" fill="#4178EF"/>
<path d="M157.494 126.927C158.594 131.527 156.294 135.027 153.194 136.427C153.694 133.627 155.694 129.827 156.594 126.627C157.094 126.527 157.094 126.827 157.494 126.927Z" fill="#423F53"/>
<path d="M44.1936 127.127C44.3936 127.327 44.0936 127.027 44.1936 127.127V127.127Z" fill="white"/>
<path d="M43.0935 131.227C44.2935 131.127 44.0935 128.027 43.8935 127.427C43.5935 128.627 43.3935 129.927 43.0935 131.227Z" fill="white"/>
<path d="M149.194 128.027C149.494 129.127 149.494 126.927 149.194 128.027V128.027Z" fill="white"/>
<path d="M148.894 128.927C148.694 128.727 148.994 129.127 148.894 128.927V128.927Z" fill="white"/>
<path d="M161.494 128.627C162.594 133.427 159.394 138.927 154.594 139.827C156.494 136.027 159.094 132.727 160.694 128.627C160.96 128.627 161.227 128.627 161.494 128.627Z" fill="#423F53"/>
<path d="M42.1936 136.427C43.3936 136.627 43.6936 134.527 43.0936 133.827C42.5936 134.527 42.3936 135.427 42.1936 136.427Z" fill="white"/>
<path d="M42.4935 143.327C42.3935 141.727 42.0935 140.327 42.1935 138.427C42.4601 138.427 42.7601 138.427 43.0935 138.427C42.6935 140.027 44.3935 142.827 42.4935 143.327Z" fill="white"/>
<path d="M44.4936 146.427C43.9936 146.627 43.7936 147.127 43.0936 147.027C42.3936 146.327 42.8936 144.927 43.6936 144.727C44.2936 144.927 44.2936 145.827 44.4936 146.427Z" fill="white"/>
<path d="M46.1935 150.827C44.8935 150.627 44.9935 151.827 43.6935 151.627C43.5935 150.827 43.0935 150.427 43.0935 149.627C43.5935 149.127 44.3935 149.027 44.7935 148.527C45.7935 148.727 45.8935 149.927 46.1935 150.827Z" fill="#4178EF"/>
<path d="M48.2935 154.827C47.3935 154.827 47.0935 155.427 46.4935 155.727C45.2935 155.727 45.4935 154.427 44.7935 153.927C45.9935 152.227 48.0935 152.327 48.2935 154.827Z" fill="white"/>
<path d="M98.0935 154.827C98.4935 159.427 96.3936 164.027 92.3936 165.227C93.1936 160.827 95.2935 157.827 97.2935 154.527C97.6935 154.427 97.7935 154.827 98.0935 154.827Z" fill="#423F53"/>
<path d="M50.2936 158.027C49.4936 158.127 49.3936 158.827 48.4936 158.827C48.3936 158.127 47.6936 158.027 47.6936 157.127C48.2936 156.827 48.8936 156.627 49.0936 156.027C49.6936 156.427 50.2936 156.927 50.2936 158.027Z" fill="#4178EF"/>
<path d="M102.994 156.327C103.894 162.727 100.394 167.227 95.1936 168.627C95.1936 166.727 97.8936 165.227 98.6936 163.227C100.294 161.627 101.094 159.227 101.894 156.827C101.794 156.427 102.194 156.327 102.194 156.027C102.594 155.927 102.694 156.227 102.994 156.327Z" fill="#423F53"/>
<path d="M53.6935 161.427C52.6935 161.327 52.9935 162.527 51.9935 162.327C51.3935 161.927 50.8935 161.327 50.2935 160.927C50.4935 160.127 51.2935 160.027 51.6935 159.427C52.2935 160.227 53.4935 160.327 53.6935 161.427Z" fill="white"/>
<path d="M87.4935 70.1267C87.9935 73.1267 88.4935 76.2267 88.8935 79.3267C89.1935 87.6267 86.7935 93.2267 84.5935 98.9267C81.9935 102.327 77.5935 106.627 72.7935 105.827C71.5935 105.627 74.1935 104.527 74.7935 104.127C75.1935 103.027 76.5935 102.927 77.0935 101.827C78.8935 100.427 80.1935 98.5267 81.6935 96.9267C85.7935 90.7267 86.6935 78.2267 83.0935 70.6267C79.2935 66.2267 73.7935 63.4267 65.5935 63.4267C60.2935 64.6267 56.7935 67.6267 53.1935 70.4267C50.3935 73.1267 48.4935 78.2267 47.0935 81.3267C47.3935 80.2267 47.4935 78.8267 47.6935 77.6267C50.4935 70.2267 54.4935 64.0267 61.4935 60.8267C68.2935 59.7267 74.6935 61.2267 79.9935 63.1267C82.6935 65.2267 85.5935 67.1267 87.4935 70.1267Z" fill="white"/>
<path d="M108.194 64.9267C108.994 66.1267 109.294 69.4266 110.194 69.5266C109.394 68.3266 109.394 64.8267 108.194 64.9267Z" fill="white"/>
<path d="M111.994 73.2265C112.794 74.0265 111.194 72.4265 111.994 73.2265V73.2265Z" fill="white"/>
<path d="M113.694 75.7267C113.36 75.1934 112.96 74.66 112.494 74.1267C112.894 74.66 113.294 75.1934 113.694 75.7267Z" fill="white"/>
<path d="M113.694 75.7266C116.994 80.7266 119.394 87.5266 127.194 86.8266C121.294 85.0266 116.694 79.7266 113.694 75.7266Z" fill="white"/>
<path d="M61.4936 82.7267C62.6936 80.8267 64.1936 79.2267 65.7936 77.8267C63.6936 78.6267 61.3936 80.7267 61.4936 82.7267Z" fill="white"/>
<path d="M63.2935 89.4268C66.1935 86.9268 68.5935 84.0268 71.8935 81.9268C70.1935 83.6268 68.3935 85.3267 66.6935 87.1267C66.0935 88.5267 65.0935 90.9268 63.2935 89.4268Z" fill="white"/>
<path d="M61.1936 85.9266C62.7936 85.0266 63.9936 83.9266 65.2936 82.7266C64.9936 84.1266 62.5936 85.8266 62.0936 87.9266C61.4936 87.6266 61.4936 86.7266 61.1936 85.9266Z" fill="white"/>
<path d="M102.994 115.627C103.794 112.027 105.793 108.027 106.793 105.527C104.393 107.627 102.494 111.627 102.994 115.627Z" fill="white"/>
</svg>
