<svg width="156" height="108" viewBox="0 0 156 108" fill="none" xmlns="http://www.w3.org/2000/svg">
<path fill-rule="evenodd" clip-rule="evenodd" d="M153.866 79.291C153.866 79.391 153.766 79.491 153.766 79.591C153.666 80.191 153.366 80.791 152.766 81.191C106.166 111.991 52.9657 114.791 1.56569 94.691C0.665695 94.391 0.265695 93.691 0.0656945 92.991C-0.0343055 92.491 -0.0343299 91.991 0.16567 91.391C7.86567 73.591 14.3657 55.291 22.0657 37.491C22.5657 36.391 23.4657 36.191 24.3657 36.491C24.4323 36.491 24.499 36.491 24.5657 36.491C70.3657 47.191 113.766 35.691 145.766 0.690975C146.366 -0.00902498 147.266 -0.109001 147.966 0.0909994C148.666 0.290999 149.266 0.790975 149.466 1.69098C155.566 26.991 156.266 53.391 153.866 79.291V79.291ZM149.566 77.991C151.566 54.291 151.166 30.091 146.066 6.79101C113.766 40.191 70.5656 51.191 25.2656 41.191C18.2656 57.791 12.0657 74.691 5.06569 91.291C54.3657 109.891 104.766 107.091 149.566 77.991Z" fill="#4178EF"/>
<path fill-rule="evenodd" clip-rule="evenodd" d="M111.965 71.4909C109.365 86.0909 91.9655 97.1908 77.5655 95.8908C63.5655 94.6908 53.1655 81.1908 58.0655 67.3908C66.6655 43.1908 112.665 41.2908 111.965 71.1908C111.965 71.2575 111.965 71.3242 111.965 71.3908C111.965 71.3908 111.965 71.4242 111.965 71.4909ZM110.365 71.0909C110.865 45.4909 75.6655 46.0909 63.3655 61.5909C51.0655 77.2909 65.1655 96.8908 83.8655 93.8908C95.4655 91.9908 108.165 83.2909 110.365 71.0909Z" fill="#4178EF"/>
<path fill-rule="evenodd" clip-rule="evenodd" d="M24.4655 65.8909C26.3655 61.2909 32.4655 59.6908 36.9655 60.1908C36.9655 60.1908 36.9988 60.1908 37.0655 60.1908C37.0655 60.1908 37.0988 60.1908 37.1655 60.1908C42.5655 61.3908 46.3655 66.8909 43.1655 71.9909C40.3655 76.3909 34.7655 78.0909 30.0655 76.2909C25.7655 74.6909 22.6655 70.4909 24.4655 65.8909V65.8909ZM29.1655 73.9909C32.5655 75.9909 36.4655 75.6909 39.5655 73.3909C44.5655 69.5909 42.6655 63.1909 36.7655 61.7909C33.6655 61.4909 29.4655 62.1908 27.2655 64.6908C24.2655 67.7908 25.7655 71.9909 29.1655 73.9909V73.9909Z" fill="#4178EF"/>
<path fill-rule="evenodd" clip-rule="evenodd" d="M126.566 61.491C121.366 59.091 120.266 52.991 124.166 48.891C126.866 45.991 131.466 43.891 135.566 44.991C140.066 46.091 140.766 50.391 140.066 54.391C138.566 59.991 132.166 63.891 126.566 61.491ZM138.466 53.991C138.966 50.891 138.666 47.391 135.066 46.591C132.466 45.891 129.566 46.891 127.366 48.291C123.766 50.791 121.666 55.591 125.566 58.891C130.166 62.791 136.966 59.291 138.466 53.991V53.991Z" fill="#4178EF"/>
<path d="M47.3657 95.891C35.8657 95.491 24.6657 93.591 13.6657 90.191C12.6657 89.791 13.0657 88.1911 14.0657 88.4911C24.9657 91.9911 35.9657 93.891 47.3657 94.191C48.4657 94.191 48.4657 95.891 47.3657 95.891V95.891Z" fill="#4178EF"/>
<path d="M22.1658 84.5911C26.8658 86.5911 31.8658 87.4912 37.0658 87.2912C38.1658 87.1912 38.1658 88.8911 37.0658 88.8911C31.5658 89.1911 26.3658 88.1912 21.3658 85.9912C20.3658 85.5912 21.1658 84.0911 22.1658 84.5911V84.5911Z" fill="#4178EF"/>
<path d="M141.266 78.5911C131.599 84.5244 121.232 88.8577 110.166 91.5911C109.166 91.8911 108.766 90.2911 109.766 89.9911C120.666 87.2911 130.866 82.991 140.466 77.191C141.366 76.591 142.166 77.9911 141.266 78.5911Z" fill="#4178EF"/>
<path d="M133.266 76.9911C129.732 79.5911 125.799 81.391 121.466 82.391C120.466 82.691 119.966 81.0911 121.066 80.7911C125.199 79.7911 128.966 78.0244 132.366 75.4911C133.266 74.8911 134.066 76.2911 133.266 76.9911Z" fill="#4178EF"/>
<path d="M111.765 39.0911C121.499 34.6911 130.299 28.8911 138.166 21.6911C138.966 20.9911 140.166 22.0911 139.366 22.8911C131.366 30.1911 122.466 36.0911 112.566 40.4911C111.666 40.9911 110.765 39.4911 111.765 39.0911V39.0911Z" fill="#4178EF"/>
<path d="M54.0658 49.2911C45.7992 50.8244 37.5658 50.5577 29.3658 48.4911C28.3658 48.1911 28.7658 46.591 29.8658 46.891C37.7658 48.891 45.5658 49.191 53.5658 47.691C54.6658 47.491 55.0658 49.0911 54.0658 49.2911Z" fill="#4178EF"/>
</svg>
