<svg width="212" height="154" viewBox="0 0 212 154" fill="none" xmlns="http://www.w3.org/2000/svg">
<path fill-rule="evenodd" clip-rule="evenodd" d="M211.244 85C211.144 85.4 210.844 85.8 210.344 86.2C186.044 103.1 166.444 125.6 153.144 152.1C152.644 153 151.944 153.3 151.144 153.2C150.444 153.3 149.744 153 149.244 152.1C132.544 119.2 90.4439 125.9 60.4439 118.3C34.4439 111.7 12.7439 93.7 0.543897 70C-0.0561035 69.4 -0.256102 68.5 0.443898 67.6C18.2439 44 37.7439 21.9 58.3439 0.699997C58.8439 0.199997 59.4439 0 59.9439 0C60.6439 0 61.3439 0.299991 61.7439 1.09999C78.6439 33.6 110.144 47.1 144.944 50.9C170.244 53.6 198.444 57.9 211.144 83.1C211.544 83.8 211.444 84.4 211.244 85V85ZM206.344 83.6C189.044 52.5 148.744 58.8 119.044 51.3C94.0439 44.9 72.0439 28.5 59.3439 6C40.1439 26 21.7439 46.8 5.0439 68.9C12.5439 83 23.2439 94.9 36.8439 103.4C52.1439 112.9 68.6439 116 86.2439 117.9C110.244 120.5 137.544 124.4 151.144 146.3C164.344 121.3 183.344 100.1 206.344 83.6V83.6Z" fill="#4178EF"/>
<path fill-rule="evenodd" clip-rule="evenodd" d="M103.144 109.7C88.6441 111 73.9441 100.8 68.8441 87.3999C62.6441 70.9999 74.9441 55.7999 91.4441 54.0999C105.044 52.6999 125.444 59.1999 132.544 71.4999C132.544 71.4999 132.544 71.5332 132.544 71.5999C132.611 71.5999 132.644 71.6333 132.644 71.6999C139.344 90.0999 120.744 108.1 103.144 109.7V109.7ZM131.044 72.2999C117.744 49.3999 59.7441 49.1999 69.6441 84.5999C73.2441 97.4999 86.7441 108 100.044 108.2C117.544 108.4 137.644 90.6999 131.044 72.2999Z" fill="#4178EF"/>
<path fill-rule="evenodd" clip-rule="evenodd" d="M114.444 72.8001C114.844 73.8001 113.144 74.2001 112.844 73.2001C112.244 71.5001 111.144 70.2001 109.844 69.2001C108.244 72.3334 106.644 75.5001 105.044 78.7001C106.044 78.9001 107.044 79.2001 107.844 79.8001C111.144 82.2001 111.244 86.5001 108.944 89.6001C106.344 93.2001 101.944 94.3001 97.4438 93.7001C96.5105 95.5667 95.5772 97.4334 94.6438 99.3001C94.1438 100.2 92.6438 99.4001 93.1438 98.4001C94.0105 96.7334 94.8772 95.0667 95.7438 93.4001C93.6438 92.9001 91.6438 92.2001 89.8438 91.1001C89.2438 92.4001 88.5438 93.7001 87.9438 95.0001C87.5438 96.0001 86.0438 95.2001 86.5438 94.2001C87.1438 92.9001 87.7438 91.6001 88.4438 90.3001C85.1438 88.2001 82.6438 85.3001 81.7438 82.2001C81.4438 81.2001 83.0438 80.8001 83.3438 81.8001C84.2438 84.9001 86.4438 87.2001 89.0438 88.9001C90.9105 85.0334 92.8772 81.2334 94.9438 77.5001C93.2438 76.3001 92.0438 74.5001 92.5438 71.9001C93.3438 67.1001 97.5438 65.2001 102.044 65.4001C102.51 64.7334 102.944 64.0334 103.344 63.3001C103.944 62.4001 105.444 63.2001 104.844 64.1001C104.51 64.6334 104.21 65.1334 103.944 65.6001C105.644 65.9001 107.444 66.4001 108.944 67.2001C109.544 66.1334 110.111 65.0334 110.644 63.9001C111.144 63.0001 112.544 63.8001 112.144 64.8001C111.544 65.8667 110.977 66.9667 110.444 68.1001C112.244 69.3001 113.744 70.9001 114.444 72.8001V72.8001ZM96.3438 75.1001C97.8105 72.5001 99.3105 69.9334 100.844 67.4001C100.177 67.4667 99.5438 67.5667 98.9438 67.7001C96.9438 70.9001 96.0438 73.4001 96.3438 75.1001V75.1001ZM96.6438 91.6001C98.6438 87.6001 100.644 83.6334 102.644 79.7001C101.444 79.5001 100.144 79.5001 99.1438 79.3001C98.1438 79.1001 97.2438 78.8001 96.4438 78.4001C94.3772 82.1334 92.4105 85.9001 90.5438 89.7001C92.4438 90.6001 94.5438 91.3001 96.6438 91.6001V91.6001ZM104.244 80.3001C102.31 84.1001 100.377 87.9334 98.4438 91.8001C98.5772 91.8001 98.7105 91.8001 98.8438 91.8001C99.5105 91.8001 100.144 91.8001 100.744 91.8001C107.544 91.6667 108.71 87.8334 104.244 80.3001ZM108.444 68.4001C106.744 67.6001 104.844 67.2001 102.944 67.2001C101.01 70.3334 99.1105 73.5334 97.2438 76.8001C97.7772 77.2667 98.5438 77.5667 99.5438 77.7001C100.744 78.1001 102.044 78.2001 103.344 78.4001C105.01 75.0667 106.71 71.7334 108.444 68.4001V68.4001Z" fill="#4178EF"/>
<path d="M56.1438 98.7C39.7438 92.6 26.2438 82 16.5438 67.5C15.9438 66.6 17.3438 65.8 17.9438 66.7C27.4438 80.8 40.6438 91.2 56.5438 97C57.5438 97.4 57.1438 99 56.1438 98.7Z" fill="#4178EF"/>
<path d="M25.3439 68.0001C24.6439 67.2001 26.1439 66.3001 26.7439 67.2001C32.3439 74.4001 39.8439 79.8 48.5439 82.7C49.5439 83.1 49.1439 84.7001 48.1439 84.4001C38.9439 81.2001 31.2439 75.7001 25.3439 68.0001V68.0001Z" fill="#4178EF"/>
<path d="M81.4437 42.2999C71.0437 37.4999 62.5437 29.8999 56.5437 20.0999C55.9437 19.1999 57.4437 18.2999 57.9437 19.2999C63.8437 28.7999 72.1437 36.1999 82.2437 40.8999C83.2437 41.2999 82.3437 42.7999 81.4437 42.2999Z" fill="#4178EF"/>
<path d="M196.244 78.1999C183.577 70.3999 169.777 66.2999 154.844 65.8999C153.744 65.8999 153.744 64.2 154.844 64.2C170.044 64.6 184.144 68.7999 197.044 76.7999C197.944 77.2999 197.144 78.7999 196.244 78.1999Z" fill="#4178EF"/>
<path d="M180.544 81.1001C175.244 77.8001 169.544 75.4001 163.344 74.0001C162.344 73.7001 162.744 72.1001 163.844 72.4001C170.111 73.8001 175.944 76.2334 181.344 79.7001C182.244 80.3001 181.444 81.7001 180.544 81.1001Z" fill="#4178EF"/>
<path d="M150.044 126C150.944 126.7 150.144 128.1 149.244 127.5C140.544 121.4 130.844 117.6 120.244 116.2C119.144 116.1 119.144 114.4 120.244 114.5C131.144 115.9 141.144 119.7 150.044 126Z" fill="#4178EF"/>
<path d="M133.944 112.5C139.044 113.1 143.644 114.9 147.744 117.9C148.644 118.6 147.744 120 146.944 119.4C143.044 116.5 138.744 114.7 133.944 114.2C132.844 114 132.844 112.4 133.944 112.5Z" fill="#4178EF"/>
<path fill-rule="evenodd" clip-rule="evenodd" d="M163.844 88.5C166.244 94.4 163.144 101.9 156.744 103.4C150.844 104.7 144.444 100.8 143.544 94.8C141.844 83.7 158.644 78.5 163.744 88.3C163.744 88.3666 163.777 88.4 163.844 88.4C163.844 88.4666 163.844 88.5 163.844 88.5ZM162.244 89.1C158.344 81.7 145.944 84.3 145.144 92.7C144.544 98 149.644 102.1 154.644 102C161.144 101.8 164.444 94.7 162.244 89.1V89.1Z" fill="#4178EF"/>
<path fill-rule="evenodd" clip-rule="evenodd" d="M59.744 43.6999C63.544 47.7999 63.244 54.8999 59.244 58.6999C55.144 62.4999 48.144 62.3999 44.144 58.3999C40.144 54.2999 40.444 47.4999 44.244 43.3999C44.3107 43.2666 44.4107 43.1999 44.544 43.1999C44.544 43.0666 44.6107 42.9666 44.744 42.8999C49.144 39.3999 55.844 39.3999 59.744 43.6999ZM58.644 44.8999C55.444 41.2999 49.544 41.0999 45.944 43.9999C45.8107 44.1332 45.6773 44.1999 45.544 44.1999C45.544 44.3332 45.4773 44.4666 45.344 44.5999C42.244 47.9999 42.044 53.7999 45.344 57.1999C48.644 60.5999 54.644 60.6999 58.044 57.4999C61.444 54.2999 61.744 48.2999 58.644 44.8999V44.8999Z" fill="#4178EF"/>
</svg>
