<svg width="45" height="76" viewBox="0 0 45 76" fill="none" xmlns="http://www.w3.org/2000/svg">
<path fill-rule="evenodd" clip-rule="evenodd" d="M33.9001 18.4002C31.9001 21.6002 31.3001 25.7001 29.8001 29.1001C33.7001 32.6001 38.6001 34.5001 41.2001 40.1001C43.9001 49.5001 40.1001 54.9001 37.7001 61.0001C34.2001 64.5001 30.5001 67.9001 23.2001 69.1001C21.3001 69.0001 19.4001 69.0002 17.6001 68.9002C16.1001 70.8002 16.6001 73.9002 14.6001 75.4002C12.4001 75.9002 10.9001 75.3002 9.90009 73.9002C9.90009 71.5002 10.7001 69.6001 11.4001 67.6001C8.00009 65.0001 4.00009 63.4001 1.90009 58.5001C0.900093 54.7001 0.300094 51.1001 2.10009 49.0001C3.60009 48.7001 6.80009 48.9001 9.10009 48.6001C10.3001 51.8001 10.7001 56.9001 14.1001 57.5001C16.6001 51.2001 18.1001 44.3001 20.3001 37.8001C16.7001 34.3001 12.3001 32.1001 10.0001 26.5001C8.70009 16.2001 14.7001 8.0001 25.3001 6.1001C26.7001 5.7001 28.2001 5.50014 29.7001 5.70014C29.8334 5.70014 29.9668 5.70014 30.1001 5.70014C30.9001 4.10014 31.1001 2.00013 32.2001 0.500127C34.6001 -0.0998731 36.2001 0.800103 37.7001 1.6001C38.2001 3.6001 37.1001 4.70011 36.7001 6.30011C39.2001 7.50011 41.9001 8.30015 44.1001 9.90015C43.9001 13.4002 42.8001 16.4001 41.4001 19.1001C38.8001 19.0001 36.6001 18.4002 33.9001 18.4002V18.4002ZM24.0001 25.7001C24.3001 23.4001 25.4001 21.6002 25.8001 19.4002C23.2001 20.1002 20.9001 24.3001 24.0001 25.7001ZM28.4001 46.3001C28.0001 44.0001 27.5001 41.9001 25.8001 41.6001C24.7001 47.1001 21.7001 52.7001 21.3001 58.0001C25.9001 55.5001 26.8001 50.7001 28.4001 46.3001V46.3001Z" fill="#423F53"/>
<path fill-rule="evenodd" clip-rule="evenodd" d="M34.4001 7.7002C37.1001 8.8002 40.2001 9.50017 42.8001 10.8002C42.0001 13.1002 41.0001 15.3002 40.5001 17.8002C38.0001 17.0002 35.5001 16.2002 32.2001 16.4002C30.1001 20.8002 28.7001 25.6002 27.1001 30.3002C31.2001 34.5002 37.1001 35.3002 39.2001 41.8002C41.0001 47.1002 38.8001 54.5002 36.0001 59.0002C32.3001 65.0002 23.8001 67.8002 16.1001 66.2002C14.2001 67.6002 14.4001 71.6002 13.1001 72.5002C11.9001 71.4002 13.8001 68.2002 14.1001 66.4002C9.50008 63.5002 2.20008 60.0002 3.50008 51.4002C4.90008 51.2002 6.00008 51.3002 7.30008 51.1002C8.50008 56.7002 11.1001 59.9002 15.6001 60.2002C18.7001 52.8002 20.4001 44.5002 23.0001 36.9002C19.4001 33.3002 14.8001 31.3002 12.3001 26.0002C10.5001 15.2002 18.9001 7.50017 31.2001 7.80017C32.3001 6.50017 32.5001 4.5002 33.0001 2.7002C33.8001 2.7002 34.3001 3.30018 35.4001 3.00018C36.0001 4.30018 34.2001 5.9002 34.4001 7.7002V7.7002ZM24.7001 38.0002C22.3001 45.4002 19.7001 52.8002 17.8001 60.5002C26.7001 61.3002 29.3001 52.2002 31.0001 46.0002C30.5001 40.8002 27.7001 39.2002 24.7001 38.0002ZM29.1001 16.9002C20.4001 15.3002 16.9001 27.9002 25.3001 29.0002C26.6001 24.9002 27.9001 20.9002 29.1001 16.9002Z" fill="#4178EF"/>
</svg>
