<svg width="190" height="163" viewBox="0 0 190 163" fill="none" xmlns="http://www.w3.org/2000/svg">
<path fill-rule="evenodd" clip-rule="evenodd" d="M188.648 108.6C166.348 130.9 139.348 148.1 111.148 161.8C110.748 162 110.348 162.1 109.948 162.1C109.615 162.1 109.282 162 108.948 161.8C80.1483 148.4 54.7483 129.1 35.8483 103.5C16.5483 77.1 5.54829 46 0.0482874 14C0.0482874 13.9 0.0482874 13.7 0.0482874 13.5C-0.151713 12.5 0.248286 11.5 1.64829 11.3C24.8483 8.09999 47.9483 3.3 71.2483 0C71.3483 0 71.4483 0 71.6483 0C72.5483 0 73.5483 0.399976 73.9483 1.59998C82.3483 27.4 95.6483 51.7 115.748 70.2C135.848 88.8 161.048 99.7 187.648 104.8C188.748 105.1 189.248 105.8 189.248 106.7C189.348 107.3 189.248 108 188.648 108.6V108.6ZM110.048 157.5C136.248 144.5 161.348 128.7 182.548 108.3C156.648 102.7 132.248 91.5 112.648 73.4C92.4483 54.7 78.9483 30.5 70.2483 4.59998C48.3483 7.69998 26.6483 12.2 4.74828 15.3C10.2483 45.2 20.4483 74.2 38.1483 99.1C56.4483 124.8 81.6483 144 110.048 157.5Z" fill="#4178EF"/>
<path fill-rule="evenodd" clip-rule="evenodd" d="M102.848 77.1001C108.748 90.4001 106.648 106.2 93.3484 113.7C93.2817 113.7 93.2484 113.7 93.2484 113.7C93.1818 113.7 93.1484 113.733 93.1484 113.8C75.8484 120.5 52.3484 108.5 45.4484 91.6001C39.0484 76.0001 48.0484 57.8001 65.2484 55.4001C80.5484 53.4001 96.7484 63.3001 102.848 77.1001V77.1001ZM70.9484 56.9001C50.1484 55.9001 38.4484 77.8001 49.1484 95.2001C57.3484 108.7 77.4484 118 92.5484 112.2C120.248 96.6001 95.9484 58.2001 70.9484 56.9001Z" fill="#4178EF"/>
<path fill-rule="evenodd" clip-rule="evenodd" d="M36.9485 32.8C35.9485 28.2 37.0485 22.6999 41.7485 20.5999C48.2485 17.7999 54.9485 23.7 57.5485 29.2C57.5485 29.2666 57.5485 29.3 57.5485 29.3C57.6152 29.3666 57.6485 29.4 57.6485 29.4C59.6485 35.3 56.9485 42.3 50.2485 42.8C44.0485 43.3 38.3485 38.6 36.9485 32.8V32.8ZM46.7485 40.8C53.7485 42.7 58.2485 36.3 56.0485 30C53.8485 25.4 48.4485 20.1 42.9485 21.9C38.9485 23.3 37.7485 27.7999 38.4485 31.5999C39.1485 35.9999 42.3485 39.5 46.7485 40.8V40.8Z" fill="#4178EF"/>
<path fill-rule="evenodd" clip-rule="evenodd" d="M112.948 123.2C112.048 117.8 115.648 112.3 121.348 112.2C126.848 112.1 132.948 115.9 135.048 121C137.248 126.5 133.248 130.3 128.448 132.1C121.948 134 114.248 130.2 112.948 123.2V123.2ZM114.648 123.2C115.848 129 122.548 132.1 127.948 130.5C132.548 128.8 135.648 125.1 132.848 120.4C130.848 117 127.048 114.6 123.248 114C117.648 113.2 113.548 117.7 114.648 123.2V123.2Z" fill="#4178EF"/>
<path d="M28.8481 61.5C29.3481 62.4 27.9481 63.2 27.4481 62.3C20.5481 50.2 15.4481 37.4 12.1481 23.8C11.8481 22.8 13.4481 22.3 13.7481 23.4C17.0481 36.8 22.0481 49.5 28.8481 61.5V61.5Z" fill="#4178EF"/>
<path d="M29.5484 46.4C30.1484 47.3 28.6484 48.1 28.0484 47.2C24.3484 41.8 22.1484 35.7 21.2484 29.2C21.1484 28.1 22.8484 28.1 22.9484 29.2C23.7484 35.4 26.0484 41.2 29.5484 46.4Z" fill="#4178EF"/>
<path d="M104.248 148.6C92.0481 142.267 81.0814 134.267 71.3481 124.6C70.5481 123.9 71.7481 122.7 72.4481 123.5C82.1481 133 93.0481 140.9 105.148 147.1C106.048 147.6 105.248 149.1 104.248 148.6Z" fill="#4178EF"/>
<path d="M101.148 139.3C96.1484 137.3 91.7484 134.4 87.9484 130.5C87.1484 129.8 88.3484 128.6 89.1484 129.4C92.6484 133 96.8484 135.8 101.548 137.7C102.548 138.1 102.048 139.7 101.148 139.3Z" fill="#4178EF"/>
<path d="M125.648 95.0001C124.748 94.4001 125.648 92.9001 126.548 93.5001C137.248 100.8 148.748 106.3 161.148 109.9C162.248 110.2 161.748 111.8 160.748 111.5C148.148 107.833 136.448 102.333 125.648 95.0001Z" fill="#4178EF"/>
<path d="M65.1481 13.8999C64.8481 12.8999 66.4481 12.4999 66.7481 13.4999C69.6481 22.8999 74.3481 31.2999 80.9481 38.5999C81.7481 39.3999 80.5481 40.5999 79.8481 39.7999C73.0481 32.2999 68.1481 23.5999 65.1481 13.8999V13.8999Z" fill="#4178EF"/>
<path fill-rule="evenodd" clip-rule="evenodd" d="M92.3484 74.3C91.6151 74.5 90.8817 74.7 90.1484 74.9C91.2484 76.3 92.3484 77.8 93.2484 79.4C94.5151 78.8 95.7817 78.2 97.0484 77.6C98.0484 77.1 98.8484 78.6 97.9484 79C96.6151 79.6667 95.3151 80.3 94.0484 80.9C95.7484 84.1 97.0484 87.2 97.8484 89C98.2484 90 96.6484 90.4 96.2484 89.5C95.1484 86.9 93.9484 84.2 92.5484 81.6C88.7484 83.4667 84.9484 85.3 81.1484 87.1C81.8484 88.2 82.5484 89.3 83.0484 90.5C85.1484 95.3 85.2484 101 79.8484 103.4C74.6484 105.8 67.6484 103.2 63.4484 99.8C62.3817 98.9333 61.4484 98 60.6484 97C59.1817 97.6667 57.7151 98.3667 56.2484 99.1C55.3484 99.5 54.4484 98.1 55.4484 97.6C56.8484 96.9333 58.2151 96.2667 59.5484 95.6C57.7484 92.9 56.6484 89.8 56.3484 86.6C54.3484 87.4 52.3484 88.1 50.4484 88.9C49.4484 89.4 48.9484 87.8 49.9484 87.3C52.0484 86.5 54.1484 85.6 56.2484 84.8C56.1484 82.4 56.5484 80 57.1484 77.6C57.4484 76.6 59.0484 77 58.7484 78.1C58.2151 80.1 57.9484 82.1 57.9484 84.1C63.8151 81.8333 69.7817 79.7 75.8484 77.7C75.8484 75.7 76.4484 73.9 78.2484 72.3C82.1484 69 85.8484 70.4 88.9484 73.6C89.9484 73.3 90.8484 73 91.8484 72.7C92.9484 72.4 93.3484 74 92.3484 74.3V74.3ZM77.6484 77C80.7151 76 83.8151 75.0667 86.9484 74.2C86.1484 73.6 85.3484 73.1 84.4484 72.7C80.5151 73.6333 78.2484 75.0667 77.6484 77ZM61.1484 94.9C67.0151 92.0333 72.8817 89.2 78.7484 86.4C77.6484 84.3 76.3484 81.8 75.9484 79.4C69.8817 81.4 63.8817 83.5667 57.9484 85.9C58.2484 89.2 59.3484 92.2 61.1484 94.9V94.9ZM79.5484 87.9C73.7484 90.6333 67.9817 93.4 62.2484 96.2C63.7484 98 65.7484 99.5 68.0484 100.6C70.1484 101.7 73.2484 102.9 75.7484 102.5C87.6484 100.6 82.1484 92.4 79.5484 87.9V87.9ZM88.4484 75.5C84.7817 76.5667 81.1484 77.6667 77.5484 78.8C77.6484 79.5 77.9484 80.3 78.3484 81.1C78.6484 82.9 79.3484 84.3 80.2484 85.7C84.0484 83.8333 87.8817 82 91.7484 80.2C91.2151 79.2667 90.6484 78.4 90.0484 77.6C89.6484 76.8 89.0484 76.1 88.4484 75.5V75.5Z" fill="#4178EF"/>
</svg>
