<svg width="179" height="102" viewBox="0 0 179 102" fill="none" xmlns="http://www.w3.org/2000/svg">
<path d="M171.4 77.6999C173.7 84.0999 180 89.2999 178.6 97.5999C171.8 100.2 162.7 99.6999 154.1 99.2999C145.6 98.8999 136.8 98.5999 129.6 97.2999C127.4 98.4999 125.9 100.4 123.3 101.3C122.9 101.3 122.5 101.3 122.4 101.6C107.3 100.2 93.9999 96.9999 77.9999 96.3999C62.6999 98.4999 46.3999 95.9999 31.2999 95.2999C25.1999 88.6999 19.6999 81.4999 14.8999 73.8999C9.99993 66.2999 3.59995 59.5999 0.199951 50.8999C2.09995 45.9999 4.89994 41.8999 7.99994 38.1999C12.0999 36.9999 16.1 35.5999 21.2 35.2999C24.8 30.2999 27.4999 24.4999 31.5999 19.9999C34.3999 18.8999 38.6999 19.0999 42.2999 18.6999C43.0999 18.3666 43.9 18.1332 44.7 17.9999C47.5 13.2999 46.9999 5.2999 51.4999 2.3999C61.9999 2.8999 72.7999 2.99991 83.4999 3.29991C84.6999 3.89991 83.9999 3.2999 83.7999 2.3999C98.0999 11.0999 108.7 23.4999 120.7 34.3999C121.6 37.4999 123.7 39.2999 124.7 42.1999C132.9 46.6999 140.6 51.6999 148.1 56.8999C148.567 58.6332 149.233 60.1666 150.1 61.4999C156.8 67.2999 165 71.5999 171.4 77.6999Z" fill="#423F53"/>
<path d="M42.5999 8.79996C46.0999 7.49996 47.7998 2.89995 49.4998 0.699951C46.0998 2.29995 43.2999 4.59996 42.5999 8.79996Z" fill="#423F53"/>
<path d="M113.5 34.1999C104.2 33.8999 97.4 36.0999 89 36.6999C79.1 25.9999 67.4 16.9999 57.5 6.19991C57.6 5.89991 57.9 5.99991 58.1 5.89991C60.3 5.49991 61.2 7.89992 62.4 9.09992C71.2 17.1999 80.6 25.6999 89.3 34.3999C89.7 34.3999 90.1 34.3999 90.1 34.6999C97.3 34.3999 102.8 32.4999 110.3 32.3999C106.5 27.5999 102.2 23.3999 96.7 20.2999C92.4 15.9999 88.1 11.6999 82.6 8.49991C82.5 11.2999 86.4 12.3999 87.8 14.4999C94.3 19.4999 100.9 25.8999 106.3 30.9999C100.9 31.2999 95.5 31.5999 91.3 32.9999C81.2 24.5999 71.3 14.4999 62.2 6.19991C69.4 6.19991 76.1 6.69991 83.5 6.49991C91.5 12.8999 98.9 19.8999 106.3 26.8999C108.6 29.3999 112.5 30.2999 113.5 34.1999Z" fill="#4178EF"/>
<path d="M52.8998 7.30005C63.1998 18.3 74.1999 28.5 84.0999 39.9C82.8999 43.3 80.9999 47.4 81.1999 51.2C79.2999 50.9 78.1998 47.4 76.2998 46.3C74.9998 44.2001 73.0999 42.7001 71.6999 40.8C67.1999 37.5 63.2998 33.6 59.2998 29.8C57.4998 27.7 55.0998 26.1 53.4998 23.8C51.8998 21.8 48.0998 20.9 48.8998 17.4C52.9998 20.5 57.1998 24.6 61.2998 28.4C65.3998 32.2 70.2998 35.3 73.9998 39.3C73.7998 36.7 70.6999 34.5 69.0999 32.4C66.9999 30.3 64.8999 28.3 62.6999 26.4C58.6999 22.2 53.7999 18.9 50.0999 14.5C50.9665 12.0334 51.8998 9.63338 52.8998 7.30005Z" fill="white"/>
<path d="M78.9 56.3C76.5 57 72.9 56.5 70.5 57.2C58.5 45.7 45.1 34.2 34.5 22.3C38 21.7 42.5 22.1 45.7 21.2C47.8 22.9 49.4 24.9999 51.2 26.8999C52 27.6999 51.4 27.7 51.2 28.7C60.9333 37.4333 70.1667 46.6333 78.9 56.3Z" fill="#4178EF"/>
<path d="M63.2998 64.0999C62.3998 65.8999 61.9998 68.1999 60.9998 69.8999C47.9998 59.9999 38.7999 46.2999 26.0999 36.1999C26.9999 32.0999 30.3998 30.4999 31.8998 26.8999C37.3998 30.2999 42.5999 36.2999 47.6999 41.5999C52.7999 46.8999 58.0998 51.7999 61.8998 57.1999C60.2998 59.7999 57.7998 62.8999 58.3998 66.6999C61.3998 65.3999 61.7999 61.4999 63.5999 58.8999C66.1999 60.0999 63.7998 62.1999 63.2998 64.0999Z" fill="#4178EF"/>
<path fill-rule="evenodd" clip-rule="evenodd" d="M23.7998 38.8C34.7998 51.1 46.4999 62.8 58.0999 74.5C53.2999 73.9 48.1999 73.7 43.0999 73.4C33.3999 61.4 19.5999 52.0001 11.0999 39.6001C15.4999 39.7001 20.5998 38.9 23.7998 38.8ZM23.1999 49.4C28.0999 56 34.8998 60.6 41.9998 65C37.1998 58.4 30.0999 54 23.1999 49.4Z" fill="white"/>
<path fill-rule="evenodd" clip-rule="evenodd" d="M118.7 41.0999C120 44.6999 121.3 48.1999 122.4 51.9999C110.5 52.4999 97.1998 52.1999 85.7998 52.2999C85.7998 48.2999 86.2998 44.7999 87.4998 41.8999C96.7998 40.5999 109.4 38.8999 118.7 41.0999ZM90.6998 43.0999C89.0998 41.8999 87.6998 44.0999 88.9998 45.0999C90.3998 45.2999 90.8998 44.4999 90.6998 43.0999Z" fill="#4178EF"/>
<path d="M38.4998 75.1C36.5998 78.8 34.7998 82.7 33.2998 86.9C24.4998 73.5 15.0998 60.8 4.7998 48.8C5.8998 47.2 7.1998 45.7 8.2998 44C19.1998 53.4 29.0998 64.1 38.4998 75.1Z" fill="#4178EF"/>
<path d="M127 48C130.7 49.4 134.9 52.8 139.1 54.6C136.3 55.3 132.3 54.7 129 54.9C129 51.9 128.1 49.9 127 48Z" fill="white"/>
<path d="M102.8 56.5999C102.6 58.0999 102.2 59.2999 101.9 60.6999C100.9 59.6999 100.9 57.6999 99.5999 56.8999C100.1 56.2999 101.8 56.7999 102.8 56.5999Z" fill="white"/>
<path d="M105.1 56.5999C105.367 56.5999 105.667 56.5999 106 56.5999C105.8 59.8999 105 62.4999 104.2 65.2999C103 62.9999 105.3 59.6999 105.1 56.5999Z" fill="white"/>
<path d="M113.8 56.8999C112.4 61.6999 109.5 67.1999 107.4 72.1999C106.5 70.6999 105.8 68.7999 105.1 66.9999C107.5 64.9999 107.1 60.1999 108.3 56.8999C108.833 56.8999 109.4 56.8999 110 56.8999C108.8 60.4999 106.7 64.7999 106.8 68.6999C108.3 67.0999 108.9 64.5999 110 62.3999C110.9 60.4999 111.3 57.1999 113.8 56.8999Z" fill="white"/>
<path d="M147.5 66.7C148.1 68.7 150.7 71.5 149.8 73.1C147 72.9 147.8 69.1 146.3 67.6C145.3 65.6 145 62.9 143.4 61.5C142 65.6 146 69.2 146.6 73.1C134.9 74 125.9 70.9999 115.2 71.8999C115.6 66.5999 117.2 62.4 119.2 58.7C127.2 59.6 137.4 58.2 144.9 59.5C145.6 62.1 146.7 64.3 147.5 66.7Z" fill="#4178EF"/>
<path d="M97.2998 60.1C98.9998 64.3 100.3 69 101.4 73.9C96.5998 75.7 90.1999 74.5 84.0999 74.2C78.4999 74 71.5999 74 65.5999 73.9C67.5999 70 67.8999 64.5 70.1999 61C71.1999 63.8 67.4998 67.8 68.4998 71.6C70.3998 72.4 73.7998 72.9 75.9998 72.5C74.0998 71.7 71.6998 71.4 69.8998 70.5C70.8998 67.5 71.6999 64.5 72.1999 61.2C80.8999 61.1 88.7998 59.4 97.2998 60.1Z" fill="#4178EF"/>
<path d="M73.9999 77.6999C73.8999 79.3999 73.4999 80.8999 73.0999 82.2999C71.7999 80.9999 71.3999 78.7999 69.8999 77.6999C70.7999 77.0999 73.0999 77.3999 73.9999 77.6999Z" fill="white"/>
<path d="M77.0998 77.7C77.9665 77.7 78.8332 77.7 79.6998 77.7C78.6998 80.3 77.4998 85.1999 76.2998 88.5999C73.6998 85.6999 77.1998 81.6 77.0998 77.7Z" fill="white"/>
<path d="M127 77.7C127.4 77.7 127.8 77.7 128.2 77.7C127.6 79.3 127.5 81.5 127 83.2C124.7 82.1 127.1 79.8 127 77.7Z" fill="white"/>
<path d="M130.5 78C130.833 78 131.2 78 131.6 78C131.5 78.6 130.8 78.5 130.8 79.1C130.4 79 130.5 78.4 130.5 78Z" fill="white"/>
<path d="M134.5 78C134.9 78 135.3 78 135.7 78C133.8 81 132.4 87 130.5 90.9C131 86.9 132.8 81.8 134.5 78Z" fill="white"/>
<path d="M167.1 78.8C170.4 83.2 171.8 89.5 174.3 94.7C162 96.7 147.7 94.3 133.6 94.7C136.4 90 137 83.1 139.7 78.3C148.7 78.6 159.1 77.5 167.1 78.8Z" fill="#4178EF"/>
<path d="M65.5999 80.0001C67.1999 83.6001 68.6999 87.2001 70.4999 90.6001C60.1999 90.1001 48.2999 91.0001 37.8999 90.1001C38.7999 85.4001 40.8999 81.9 43.3999 78.8C50.1999 79.7 58.2999 80.6001 65.5999 80.0001Z" fill="#4178EF"/>
<path fill-rule="evenodd" clip-rule="evenodd" d="M120.4 81.4001C121.7 85.9001 125.4 89.7001 125.6 94.4001C121.4 96.1001 113.1 95.1001 108 95.0001C101.6 95.2001 96.2 94.2001 91 93.2001C87 93.0001 83.5 93.8001 80 93.2001C82.7 89.2001 82.4 82.1 85.8 78.8C96.2 81.5 111.9 76.8001 120.4 81.4001ZM123.6 93.0001C124 93.4001 124.8 93.3001 124.7 92.4001C124.1 92.3001 123.6 92.4001 123.6 93.0001ZM121 92.7001C111.4 88.9001 96.4 92.3001 85.2 90.1001C85.7 86.7001 86.8 84.0001 87.2 80.6001C84.4 82.6001 83.7 87.8001 83.5 91.5001C88.9 93.3001 98.7 94.4001 104.8 92.7001C110.7 92.2001 115.7 94.2001 121 92.7001Z" fill="#4178EF"/>
<path d="M31.2998 86.9C31.9998 87 32.5998 88.8 32.9998 87.5C32.3998 87.5 31.7998 86.1 31.2998 86.9Z" fill="white"/>
<path d="M27.2999 81.4C27.4999 81.9 28.1999 82.5 27.2999 82C20.9999 74.1 14.4999 66.4 8.49993 58.1C7.49993 56.7 6.09993 55.7 5.39993 54C4.59993 52.9 2.19994 51.5 3.59994 50C6.69994 52.5 7.49994 57.1 11.0999 58.9C13.3999 63.5 16.5999 67.1 19.7999 70.8C21.2999 72.7 22.4999 75 24.0999 76.8C24.6999 78 25.4999 78.9 26.0999 80C26.4999 80.4 26.8999 80.9 27.2999 81.4Z" fill="white"/>
<path d="M154.1 69.3C156.9 70.2 160.1 73.1 163.3 74.5C161.1 75 158.5 75.1001 155.8 75.1001C156.4 73.0001 155 70.8 154.1 69.3Z" fill="white"/>
<path d="M28.1 82.8999C29.4 84.3999 27.6 81.8999 28.1 82.8999V82.8999Z" fill="white"/>
</svg>
