<svg width="112" height="112" viewBox="0 0 112 112" fill="none" xmlns="http://www.w3.org/2000/svg">
<path fill-rule="evenodd" clip-rule="evenodd" d="M86.9 100.1H24.3C23.9 100.1 23.6 99.8 23.6 99.4V19.1C23.6 18.7 23.9 18.3 24.3 18.3H39.4C39.8 18.3 40.2 18.7 40.2 19.1V28.5H71V19.1C71 18.7 71.4 18.3 71.8 18.3H86.9C87.3 18.3 87.6 18.7 87.6 19.1V99.4C87.6 99.8 87.3 100.1 86.9 100.1ZM25 98.6H86.2V19.8H72.5V29.2C72.5 29.6 72.2 29.9 71.8 29.9H39.4C39 29.9 38.7 29.6 38.7 29.2V19.8H25V98.6Z" fill="#4178EF"/>
<path fill-rule="evenodd" clip-rule="evenodd" d="M81.3 94.4H30C29.5 94.4 29.2 94.1 29.2 93.7V24.7C29.2 24.3 29.5 24 30 24H39.4C39.8 24 40.2 24.3 40.2 24.7V28.5H71V24.7C71 24.3 71.4 24 71.8 24H81.3C81.7 24 82 24.3 82 24.7V93.7C82 94.1 81.7 94.4 81.3 94.4ZM30.7 93H80.5V25.4H72.5V29.2C72.5 29.6 72.2 29.9 71.8 29.9H39.4C39 29.9 38.7 29.6 38.7 29.2V25.4H30.7V93Z" fill="#4178EF"/>
<path fill-rule="evenodd" clip-rule="evenodd" d="M71.8 29.9H39.4C39 29.9 38.7 29.6 38.7 29.2V17.6C38.7 17.2 39 16.9 39.4 16.9H43.9V11.9C43.9 11.4 44.2 11.1 44.6 11.1H66.6C67 11.1 67.4 11.4 67.4 11.9V16.9H71.8C72.2 16.9 72.5 17.2 72.5 17.6V29.2C72.5 29.6 72.2 29.9 71.8 29.9ZM40.2 28.5H71V18.3H66.6C66.2 18.3 65.9 18 65.9 17.6V12.6H45.3V17.6C45.3 18 45 18.3 44.6 18.3H40.2V28.5Z" fill="#4178EF"/>
<path fill-rule="evenodd" clip-rule="evenodd" d="M55.6 24.1C53.4 24.1 51.6 22.3 51.6 20.1C51.6 17.9 53.4 16.1 55.6 16.1C57.8 16.1 59.6 17.9 59.6 20.1C59.6 22.3 57.8 24.1 55.6 24.1ZM55.6 17.6C54.2 17.6 53.1 18.7 53.1 20.1C53.1 21.5 54.2 22.6 55.6 22.6C57 22.6 58.1 21.5 58.1 20.1C58.1 18.7 57 17.6 55.6 17.6Z" fill="#4178EF"/>
<path fill-rule="evenodd" clip-rule="evenodd" d="M48.6 52.4H41.3C40.9 52.4 40.6 52.1 40.6 51.7V45C40.6 44.6 40.9 44.2 41.3 44.2H48.6C49 44.2 49.3 44.6 49.3 45V51.7C49.3 52.1 49 52.4 48.6 52.4ZM42.1 50.9H47.8V45.7H42.1V50.9Z" fill="#4178EF"/>
<path fill-rule="evenodd" clip-rule="evenodd" d="M48.6 66.7H41.3C40.9 66.7 40.6 66.3 40.6 65.9V59.2C40.6 58.8 40.9 58.5 41.3 58.5H48.6C49 58.5 49.3 58.8 49.3 59.2V65.9C49.3 66.3 49 66.7 48.6 66.7ZM42.1 65.2H47.8V60H42.1V65.2Z" fill="#4178EF"/>
<path fill-rule="evenodd" clip-rule="evenodd" d="M48.6 80.9H41.3C40.9 80.9 40.6 80.6 40.6 80.2V73.5C40.6 73.1 40.9 72.8 41.3 72.8H48.6C49 72.8 49.3 73.1 49.3 73.5V80.2C49.3 80.6 49 80.9 48.6 80.9ZM42.1 79.5H47.8V74.2H42.1V79.5Z" fill="#4178EF"/>
<path d="M61.1 53.8C61.1 53.8 61.0667 53.8 61 53.8C60.8 53.7 60.6 53.6 60.5 53.4L58.8 50.6C58.6 50.2 58.7 49.8 59.1 49.6C59.4 49.4 59.9 49.5 60.1 49.8L61.3 51.9L69.3 43.8C69.6 43.5 70.1 43.5 70.4 43.8C70.7 44 70.7 44.5 70.4 44.8L61.6 53.6C61.4667 53.7333 61.3 53.8 61.1 53.8Z" fill="#4178EF"/>
<path d="M61.1 67.7C61.1 67.7 61.0667 67.7 61 67.7C60.8 67.7 60.6 67.5 60.5 67.3L58.8 64.5C58.6 64.1 58.7 63.7 59.1 63.5C59.4 63.3 59.9 63.4 60.1 63.8L61.3 65.8L69.3 57.7C69.6 57.4 70.1 57.4 70.4 57.7C70.7 58 70.7 58.4 70.4 58.7L61.6 67.5C61.4667 67.6333 61.3 67.7 61.1 67.7Z" fill="#4178EF"/>
<path d="M61.1 81.6C61.1 81.6 61.0667 81.6 61 81.6C60.8 81.6 60.6 81.5 60.5 81.3L58.8 78.4C58.6 78.1 58.7 77.6 59.1 77.4C59.4 77.2 59.9 77.3 60.1 77.7L61.3 79.7L69.3 71.6C69.6 71.3 70.1 71.3 70.4 71.6C70.7 71.9 70.7 72.4 70.4 72.6L61.6 81.4C61.4667 81.5333 61.3 81.6 61.1 81.6Z" fill="#4178EF"/>
</svg>
