<svg width="4700" height="429" viewBox="0 0 4700 429" fill="none" xmlns="http://www.w3.org/2000/svg">
<path d="M103.317 307.104L0 334.328V429H4700V184.556C4615.99 260.164 4506.96 302 4393.93 302H4316.57C4244.68 302 4173.26 290.237 4105.16 267.177L3924.5 206L3899.92 193.673C3816.13 151.645 3716.49 156.317 3637 206C3566.42 251.575 3479.12 263.094 3399.14 237.385L3301.5 206L3147.71 177.562C3113.31 171.201 3078.4 168 3043.41 168C2971.45 168 2900.12 181.542 2833.17 207.919L2736.5 246L2600.5 305.484C2521.07 340.226 2431.49 343.923 2349.47 315.844L2344.58 314.17C2309.47 302.15 2276.73 284.061 2247.87 260.727L2235.79 250.961C2210.53 230.531 2181.39 215.419 2150.13 206.531C2111.97 195.678 2071.71 194.41 2032.94 202.839L1954 220L1772.5 261.195L1628.18 277.651C1591.24 281.863 1555.08 291.246 1520.75 305.525C1436.81 340.445 1343.41 345.473 1256.2 319.766L1163.75 292.513C1095.67 272.446 1022.42 279.986 959.861 313.502C904.37 343.23 840.237 352.638 778.546 340.101L571.5 298.023C525.616 288.698 478.912 284 432.089 284H281.676C221.477 284 161.529 291.766 103.317 307.104Z" fill="white"/>
<path d="M1480.91 214.7L1468.64 220.955C1418.26 246.621 1362.53 260 1305.99 260C1267.25 260 1228.77 266.282 1192.05 278.602L1089.5 313L1005.7 336.385C948.115 352.456 887.121 351.653 829.974 334.069C784.911 320.203 737.291 316.724 690.69 323.894L639.617 331.751C612.579 335.911 585.262 338 557.905 338H524.714C444.828 338 365.531 324.325 290.258 297.568L276 292.5L127 260L3 242V397L4701 394V171H4585.59C4549.52 171 4514.77 157.435 4488.25 133C4461.73 108.565 4426.98 95 4390.91 95H4322.91C4286.9 95 4251.15 101.119 4217.19 113.095L4053 171L4043.26 174.445C3932.65 213.553 3811.79 212.333 3702 171L3564.5 111L3487.7 79.3912C3437.13 58.5787 3380.55 57.7627 3329.4 77.1084C3318.15 81.362 3307.28 86.549 3296.9 92.6152L3247.19 121.665C3209.85 143.486 3170.17 161.04 3128.91 173.996L3114.31 178.581C3068.04 193.109 3019.83 200.5 2971.33 200.5C2903.23 200.5 2835.92 185.927 2773.92 157.759L2671 111L2570.61 68.4804C2507.59 41.788 2436.15 43.4333 2374.42 72.9986C2359.85 79.9815 2346.01 88.4273 2333.14 98.206L2296.36 126.152C2232.28 174.839 2156.39 205.598 2076.49 215.27C2031.42 220.726 1985.78 219.383 1941.11 211.287L1779.5 182L1738.14 175.088C1650.37 160.417 1560.21 174.302 1480.91 214.7Z" fill="white" fill-opacity="0.3"/>
<g filter="url(#filter0_f_98_159)">
<path d="M4701.5 162H4585.59C4549.52 162 4514.78 148.435 4488.25 124V124C4461.72 99.5647 4426.98 86 4390.91 86H4322.91C4286.9 86 4251.15 92.1189 4217.19 104.095L4053 162L4043.26 165.445C3932.65 204.553 3811.79 203.333 3702 162V162L3564.5 102L3487.7 70.3912C3437.13 49.5787 3380.55 48.7627 3329.4 68.1084V68.1084C3318.15 72.362 3307.28 77.549 3296.9 83.6152L3247.19 112.665C3209.85 134.486 3170.17 152.04 3128.91 164.996L3114.31 169.581C3068.04 184.109 3019.83 191.5 2971.33 191.5V191.5C2903.23 191.5 2835.92 176.927 2773.92 148.759L2671 102L2570.61 59.4804C2507.59 32.788 2436.15 34.4333 2374.42 63.9986V63.9986C2359.85 70.9815 2346.01 79.4273 2333.14 89.206L2296.36 117.152C2232.28 165.839 2156.39 196.598 2076.49 206.269V206.269C2031.42 211.726 1985.78 210.383 1941.11 202.287L1779.5 173L1738.14 166.088C1650.37 151.417 1560.21 165.302 1480.91 205.7L1468.64 211.955C1418.26 237.621 1362.53 251 1305.99 251V251C1267.25 251 1228.77 257.282 1192.05 269.602L1089.5 304L1005.7 327.385C948.115 343.456 887.121 342.653 829.974 325.069V325.069C784.911 311.203 737.291 307.724 690.691 314.894L639.617 322.751C612.579 326.911 585.262 329 557.905 329H524.714C444.828 329 365.531 315.325 290.258 288.568L276 283.5L127 251L25.3376 235.088C16.4593 233.698 7.48642 233 -1.5 233V233" stroke="#1A2F5C" stroke-opacity="0.4" stroke-width="20"/>
</g>
<path d="M4701.5 171H4585.59C4549.52 171 4514.78 157.435 4488.25 133V133C4461.72 108.565 4426.98 95 4390.91 95H4322.91C4286.9 95 4251.15 101.119 4217.19 113.095L4053 171L4043.26 174.445C3932.65 213.553 3811.79 212.333 3702 171V171L3564.5 111L3487.7 79.3912C3437.13 58.5787 3380.55 57.7627 3329.4 77.1084V77.1084C3318.15 81.362 3307.28 86.549 3296.9 92.6152L3247.19 121.665C3209.85 143.486 3170.17 161.04 3128.91 173.996L3114.31 178.581C3068.04 193.109 3019.83 200.5 2971.33 200.5V200.5C2903.23 200.5 2835.92 185.927 2773.92 157.759L2671 111L2570.61 68.4804C2507.59 41.788 2436.15 43.4333 2374.42 72.9986V72.9986C2359.85 79.9815 2346.01 88.4273 2333.14 98.206L2296.36 126.152C2232.28 174.839 2156.39 205.598 2076.49 215.269V215.269C2031.42 220.726 1985.78 219.383 1941.11 211.287L1779.5 182L1738.14 175.088C1650.37 160.417 1560.21 174.302 1480.91 214.7L1468.64 220.955C1418.26 246.621 1362.53 260 1305.99 260V260C1267.25 260 1228.77 266.282 1192.05 278.602L1089.5 313L1005.7 336.385C948.115 352.456 887.121 351.653 829.974 334.069V334.069C784.911 320.203 737.291 316.724 690.691 323.894L639.617 331.751C612.579 335.911 585.262 338 557.905 338H524.714C444.828 338 365.531 324.325 290.258 297.568L276 292.5L127 260L25.3376 244.088C16.4593 242.698 7.48642 242 -1.5 242V242" stroke="#4178EF" stroke-width="20"/>
<defs>
<filter id="filter0_f_98_159" x="-31.5" y="0.579529" width="4763" height="378.295" filterUnits="userSpaceOnUse" color-interpolation-filters="sRGB">
<feFlood flood-opacity="0" result="BackgroundImageFix"/>
<feBlend mode="normal" in="SourceGraphic" in2="BackgroundImageFix" result="shape"/>
<feGaussianBlur stdDeviation="15" result="effect1_foregroundBlur_98_159"/>
</filter>
</defs>
</svg>
