<svg width="4700" height="463" viewBox="0 0 4700 463" fill="none" xmlns="http://www.w3.org/2000/svg">
<path d="M103.317 240.104L0 267.328V463H4700V117.556C4615.99 193.164 4506.96 235 4393.93 235H4358.16C4259.85 235 4163.33 208.683 4078.62 158.782L4070.5 154L4055.25 145.045C3960.09 89.1514 3844.51 80.1226 3741.83 120.56L3716.92 130.367C3702.38 136.094 3688.7 143.822 3676.29 153.327L3625.49 192.245C3596.98 214.082 3557.55 214.729 3528.33 193.839C3507.36 178.838 3480.53 174.628 3455.97 182.483L3371.08 209.626C3331.29 222.353 3289 225.27 3247.83 218.128L3158.86 202.695C3129.34 197.574 3099.44 195 3069.48 195H3044.73C2976.91 195 2910.09 178.648 2849.94 147.33C2767.92 104.629 2674.15 90.0616 2583.05 105.868L2516 117.5L2386.36 155.845C2354.49 165.27 2323.34 176.952 2293.13 190.802L2236 217L2145 254.5L2034.32 286.323C1951.96 310.005 1864.74 311.115 1781.8 289.537C1743.41 279.551 1706.42 264.829 1671.68 245.71L1619.5 217L1538.64 170.586C1518.26 158.888 1496.83 149.126 1474.62 141.429C1398.86 115.166 1316.69 113.811 1240.11 137.562L1099.24 181.25C1071.48 189.86 1044.6 201.105 1018.98 214.832C925.28 265.028 816.99 280.914 712.823 259.744L571.5 231.023C525.616 221.698 478.912 217 432.089 217H281.676C221.477 217 161.529 224.766 103.317 240.104Z" fill="white"/>
<path d="M471.171 198.377L376.865 220.382C289.175 240.843 197.911 240.48 110.387 219.322L1.5 193V448.5H4699.5V44.5H4497.5L4376.96 51.1836C4283.92 56.3426 4192.85 80.0256 4109.09 120.844L4000 174L3850.56 246.055C3791.48 274.544 3728.69 294.587 3664.03 305.596L3540.87 326.565C3397.83 350.918 3250.76 330.222 3120 267.339L3026.12 222.191C2987.12 203.437 2946.47 188.34 2904.69 177.093L2844.2 160.811C2716.04 126.316 2580.72 128.963 2454.02 168.444L2420.61 178.853C2388.25 188.938 2356.66 201.36 2326.09 216.023L2064.92 341.31C1955.39 393.853 1827.84 393.393 1718.69 340.061C1673.31 317.89 1632.58 287.271 1598.67 249.844L1448.58 84.1616C1435.39 69.6102 1418.84 58.5197 1400.37 51.8649C1367.16 39.9017 1330.37 43.1824 1299.8 60.8324L1109 171L990.049 231.254C896.954 278.41 786.701 277.151 694.708 227.882C626.253 191.22 546.793 180.732 471.171 198.377Z" fill="white" fill-opacity="0.3"/>
<g filter="url(#filter0_f_98_177)">
<path d="M1.5 190L110.974 216.012C198.133 236.721 288.91 236.904 376.152 216.548L471.171 194.377C546.793 176.732 626.253 187.22 694.708 223.882V223.882C786.701 273.151 896.954 274.41 990.049 227.254L1109 167L1299.8 56.8324C1330.37 39.1824 1367.16 35.9017 1400.37 47.8649V47.8649C1418.84 54.5197 1435.39 65.6102 1448.58 80.1616L1598.67 245.844C1632.58 283.271 1673.31 313.89 1718.69 336.061V336.061C1827.84 389.393 1955.39 389.853 2064.92 337.31L2326.09 212.023C2356.66 197.36 2388.25 184.938 2420.61 174.853L2454.02 164.444C2580.72 124.963 2716.04 122.316 2844.2 156.811L2904.69 173.093C2946.47 184.34 2987.12 199.437 3026.12 218.191L3120 263.339C3250.76 326.222 3397.83 346.918 3540.87 322.565L3664.03 301.596C3728.69 290.587 3791.48 270.544 3850.56 242.055L4000 170L4109.09 116.844C4192.85 76.0256 4283.92 52.3426 4376.96 47.1836L4497.5 40.5H4705" stroke="#1A2F5C" stroke-opacity="0.4" stroke-width="20"/>
</g>
<path d="M1.5 194L110.974 220.012C198.133 240.721 288.91 240.904 376.152 220.548L471.171 198.377C546.793 180.732 626.253 191.22 694.708 227.882V227.882C786.701 277.151 896.954 278.41 990.049 231.254L1109 171L1299.8 60.8324C1330.37 43.1824 1367.16 39.9017 1400.37 51.8649V51.8649C1418.84 58.5197 1435.39 69.6102 1448.58 84.1616L1598.67 249.844C1632.58 287.271 1673.31 317.89 1718.69 340.061V340.061C1827.84 393.393 1955.39 393.853 2064.92 341.31L2326.09 216.023C2356.66 201.36 2388.25 188.938 2420.61 178.853L2454.02 168.444C2580.72 128.963 2716.04 126.316 2844.2 160.811L2904.69 177.093C2946.47 188.34 2987.12 203.437 3026.12 222.191L3120 267.339C3250.76 330.222 3397.83 350.918 3540.87 326.565L3664.03 305.596C3728.69 294.587 3791.48 274.544 3850.56 246.055L4000 174L4109.09 120.844C4192.85 80.0256 4283.92 56.3426 4376.96 51.1836L4497.5 44.5H4705" stroke="#4178EF" stroke-width="20"/>
<defs>
<filter id="filter0_f_98_177" x="-30.8115" y="0.5" width="4765.81" height="415.891" filterUnits="userSpaceOnUse" color-interpolation-filters="sRGB">
<feFlood flood-opacity="0" result="BackgroundImageFix"/>
<feBlend mode="normal" in="SourceGraphic" in2="BackgroundImageFix" result="shape"/>
<feGaussianBlur stdDeviation="15" result="effect1_foregroundBlur_98_177"/>
</filter>
</defs>
</svg>
