<svg width="4700" height="864" viewBox="0 0 4700 864" fill="none" xmlns="http://www.w3.org/2000/svg">
<path d="M698.738 601.231L593.249 587.237C532.706 579.206 471.116 586.396 414.051 608.157C312.882 646.737 199.845 638.72 105.134 586.247L0 528V864H4700V344.432L4469.13 430.39C4423.84 447.251 4385.98 479.587 4362.23 521.676C4310.68 613.059 4198.39 650.689 4102.18 608.827L4094.11 605.313C4040.09 581.812 3978.79 581.552 3924.58 604.594L3911.65 610.093C3834.53 642.87 3746.07 634.358 3676.62 587.479L3628.5 555L3445.26 436.555C3419.59 419.962 3391.39 407.657 3361.77 400.121C3316.31 388.557 3268.68 388.525 3223.21 400.03L3219.38 400.997C3157.75 416.588 3102.75 451.52 3062.43 500.669L2983 597.5L2908.33 689.653C2863.53 744.954 2796.16 777.078 2724.98 777.078C2684.35 777.078 2644.41 766.587 2609.02 746.621L2489.04 678.926C2440.85 651.738 2389.61 630.359 2336.39 615.236L2206 578.189L2099.46 550.984C2024.49 531.838 1957.66 489.06 1908.89 428.982C1881.52 395.272 1848.29 366.786 1810.79 344.899L1799.32 338.21C1755.45 312.603 1707.41 294.915 1657.41 285.954L1542.41 265.346C1518.93 261.138 1496.18 253.541 1474.88 242.795C1365.79 187.761 1232.86 220.96 1162.45 320.818L1083.4 432.942C996.475 556.234 848.283 621.068 698.738 601.231Z" fill="white"/>
<path d="M1536.03 119.542L1474.91 71.5603C1463.31 62.4512 1448.98 57.5 1434.23 57.5C1408.24 57.5 1384.68 72.7831 1374.08 96.5165L1345.31 160.931C1337.29 178.901 1324.08 194.066 1307.39 204.487C1277.17 223.344 1239.15 224.494 1207.86 207.498L1125 162.5L1082.53 133.246C1048.02 109.481 1003.66 105.338 965.351 122.302C937.489 134.64 915.335 157.074 903.347 185.088L885.28 227.304C877.129 246.353 866.517 264.251 853.716 280.544L820.983 322.204C794.25 356.227 756.02 379.325 713.467 387.164C659.259 397.15 603.486 381.409 562.496 344.556L498.667 287.168C475.656 266.48 450.018 248.915 422.417 234.927L385.6 216.269C317.084 181.547 238.493 172.184 163.737 189.837C103.811 203.988 49.1303 234.853 6.04819 278.845L1 284V863H4695.5V177.5L4625.07 224.925C4606.12 237.684 4583.55 244.5 4560.71 244.5C4524.39 244.5 4489.86 261.878 4468.5 291.25C4447.14 320.622 4413.01 338 4376.69 338H4335.72C4289.65 338 4248.19 365.948 4230.91 408.65C4212.01 455.347 4164.5 483.908 4114.4 478.692L3963.2 462.952C3894.94 455.845 3830.86 426.648 3780.71 379.796L3706 310L3589.53 206.649C3547.72 169.552 3492.42 151.436 3436.77 156.609L3425.01 157.702C3375.07 162.344 3329.49 188.11 3299.77 228.508C3291.95 239.135 3285.35 250.61 3280.1 262.715L3242.99 348.268C3222 396.648 3189.2 438.987 3147.61 471.406C3097.38 510.548 3036.48 533.557 2972.92 537.399L2920.55 540.565C2888.26 542.517 2856.26 547.698 2825 556.032L2703.13 588.531C2675.75 595.833 2648.96 605.204 2623 616.563L2535.75 654.735C2482.65 677.964 2423.51 683.545 2367 670.659L2363.9 669.952C2329.35 662.07 2296.8 647.088 2268.34 625.958C2220.92 590.743 2187.15 540.19 2172.77 482.893L2172.14 480.359C2162.5 441.949 2144.32 406.211 2118.94 375.812L2105.95 360.249C2078.63 327.524 2042.01 303.875 2000.94 292.436C1970.38 283.922 1938.28 282.436 1907.06 288.087L1832.53 301.577C1801.89 307.124 1770.4 305.844 1740.3 297.827C1695.66 285.936 1656.13 259.774 1627.74 223.33L1585.85 169.553C1571.34 150.92 1554.61 134.126 1536.03 119.542Z" fill="white" fill-opacity="0.3"/>
<g filter="url(#filter0_f_98_153)">
<path d="M4696.5 164.5V164.5C4685.79 164.5 4675.37 167.974 4666.8 174.4L4625.59 205.306C4606.38 219.712 4583.02 227.5 4559.01 227.5V227.5C4523.51 227.5 4490.15 244.488 4469.26 273.201L4468.5 274.25C4447.14 303.622 4413.01 321 4376.69 321H4335.72C4289.65 321 4248.19 348.948 4230.91 391.65V391.65C4212.01 438.347 4164.5 466.908 4114.4 461.692L3963.2 445.952C3894.94 438.845 3830.86 409.648 3780.71 362.796L3706 293L3589.53 189.649C3547.72 152.552 3492.42 134.436 3436.77 139.609L3425.01 140.702C3375.07 145.344 3329.49 171.11 3299.77 211.508V211.508C3291.95 222.135 3285.35 233.61 3280.1 245.715L3242.99 331.268C3222 379.648 3189.2 421.987 3147.61 454.406V454.406C3097.38 493.548 3036.48 516.557 2972.92 520.399L2920.55 523.565C2888.26 525.517 2856.26 530.698 2825 539.032L2703.13 571.531C2675.75 578.833 2648.96 588.204 2623 599.563L2535.75 637.735C2482.65 660.964 2423.51 666.545 2367 653.659L2363.9 652.952C2329.35 645.07 2296.8 630.088 2268.34 608.958V608.958C2220.92 573.743 2187.15 523.19 2172.77 465.893L2172.14 463.359C2162.5 424.949 2144.32 389.211 2118.94 358.812L2105.95 343.249C2078.63 310.524 2042.01 286.875 2000.94 275.436V275.436C1970.38 266.922 1938.28 265.436 1907.06 271.087L1832.53 284.577C1801.89 290.124 1770.4 288.844 1740.3 280.827V280.827C1695.66 268.936 1656.13 242.774 1627.74 206.33L1585.85 152.553C1571.34 133.92 1554.61 117.126 1536.03 102.542L1474.91 54.5603C1463.31 45.4512 1448.98 40.5 1434.23 40.5V40.5C1408.24 40.5 1384.68 55.7831 1374.08 79.5165L1345.31 143.931C1337.29 161.901 1324.08 177.066 1307.39 187.487V187.487C1277.17 206.344 1239.15 207.494 1207.86 190.498L1125 145.5L1082.53 116.246C1048.02 92.4813 1003.66 88.3375 965.351 105.302V105.302C937.489 117.64 915.335 140.074 903.347 168.088L885.28 210.304C877.129 229.353 866.517 247.251 853.716 263.544L820.983 305.204C794.25 339.227 756.02 362.325 713.467 370.164V370.164C659.259 380.15 603.486 364.409 562.496 327.556L498.667 270.168C475.656 249.48 450.018 231.915 422.417 217.927L384.215 198.567C316.593 164.298 237.898 155.324 164.118 172.747V172.747C104.604 186.801 49.5834 218.133 7.5 262.5V262.5" stroke="#1A2F5C" stroke-opacity="0.4" stroke-width="20"/>
</g>
<path d="M4696.5 181.5V181.5C4685.79 181.5 4675.37 184.974 4666.8 191.4L4625.59 222.306C4606.38 236.712 4583.02 244.5 4559.01 244.5V244.5C4523.51 244.5 4490.15 261.488 4469.26 290.201L4468.5 291.25C4447.14 320.622 4413.01 338 4376.69 338H4335.72C4289.65 338 4248.19 365.948 4230.91 408.65V408.65C4212.01 455.347 4164.5 483.908 4114.4 478.692L3963.2 462.952C3894.94 455.845 3830.86 426.648 3780.71 379.796L3706 310L3589.53 206.649C3547.72 169.552 3492.42 151.436 3436.77 156.609L3425.01 157.702C3375.07 162.344 3329.49 188.11 3299.77 228.508V228.508C3291.95 239.135 3285.35 250.61 3280.1 262.715L3242.99 348.268C3222 396.648 3189.2 438.987 3147.61 471.406V471.406C3097.38 510.548 3036.48 533.557 2972.92 537.399L2920.55 540.565C2888.26 542.517 2856.26 547.698 2825 556.032L2703.13 588.531C2675.75 595.833 2648.96 605.204 2623 616.563L2535.75 654.735C2482.65 677.964 2423.51 683.545 2367 670.659L2363.9 669.952C2329.35 662.07 2296.8 647.088 2268.34 625.958V625.958C2220.92 590.743 2187.15 540.19 2172.77 482.893L2172.14 480.359C2162.5 441.949 2144.32 406.211 2118.94 375.812L2105.95 360.249C2078.63 327.524 2042.01 303.875 2000.94 292.436V292.436C1970.38 283.922 1938.28 282.436 1907.06 288.087L1832.53 301.577C1801.89 307.124 1770.4 305.844 1740.3 297.827V297.827C1695.66 285.936 1656.13 259.774 1627.74 223.33L1585.85 169.553C1571.34 150.92 1554.61 134.126 1536.03 119.542L1474.91 71.5603C1463.31 62.4512 1448.98 57.5 1434.23 57.5V57.5C1408.24 57.5 1384.68 72.7831 1374.08 96.5165L1345.31 160.931C1337.29 178.901 1324.08 194.066 1307.39 204.487V204.487C1277.17 223.344 1239.15 224.494 1207.86 207.498L1125 162.5L1082.53 133.246C1048.02 109.481 1003.66 105.338 965.351 122.302V122.302C937.489 134.64 915.335 157.074 903.347 185.088L885.28 227.304C877.129 246.353 866.517 264.251 853.716 280.544L820.983 322.204C794.25 356.227 756.02 379.325 713.467 387.164V387.164C659.259 397.15 603.486 381.409 562.496 344.556L498.667 287.168C475.656 266.48 450.018 248.915 422.417 234.927L393.538 220.291C319.896 182.972 235.425 172.908 155.077 191.882V191.882C100.493 204.771 49.8109 230.6 7.30437 267.187L-7 279.5" stroke="#4178EF" stroke-width="20"/>
<defs>
<filter id="filter0_f_98_153" x="-29.7554" y="0.5" width="4756.26" height="699.938" filterUnits="userSpaceOnUse" color-interpolation-filters="sRGB">
<feFlood flood-opacity="0" result="BackgroundImageFix"/>
<feBlend mode="normal" in="SourceGraphic" in2="BackgroundImageFix" result="shape"/>
<feGaussianBlur stdDeviation="15" result="effect1_foregroundBlur_98_153"/>
</filter>
</defs>
</svg>
