<svg width="4700" height="547" viewBox="0 0 4700 547" fill="none" xmlns="http://www.w3.org/2000/svg">
<path d="M42.0704 412.944L0 407.128V547H4700V0H4562.56C4491.15 0 4422.54 27.7993 4371.28 77.5088C4303.84 142.901 4207.67 169.31 4116.29 147.529L4020.72 124.75C3952.27 108.433 3880.56 133.275 3836.88 188.442C3755.31 291.431 3593.66 274.023 3533.27 157.351C3517.22 126.345 3492.43 100.222 3462.2 82.7648L3413.35 54.5621C3343.02 13.9525 3260.23 -2.60552 3179.59 7.1091C3125.99 13.567 3073.6 31.4282 3027.38 59.3299L2972.38 92.5349C2911.5 129.284 2856.76 175.35 2810.16 229.055L2759.12 287.871C2724.3 327.989 2682.82 361.8 2636.51 387.814C2531.76 446.65 2407.81 462.238 2291.67 431.46C2229.71 415.036 2171.61 385.874 2121.47 345.928L2004.33 252.604C1954.26 212.719 1892.14 191 1828.13 191C1774.8 191 1722.55 206.083 1677.43 234.508L1526.21 329.758C1445.11 380.84 1339.74 370.679 1269.9 305.041L1253.54 289.663C1197.92 237.39 1115.27 226.148 1047.71 261.668C1004.75 284.248 954.476 288.42 908.391 273.225L812.809 241.711C713.883 209.095 606.322 214.762 511.371 257.592L389.343 312.637C368.152 322.195 347.81 333.531 328.533 346.523C244.478 403.174 142.479 426.825 42.0704 412.944Z" fill="#4178EF"/>
</svg>
