<svg width="4700" height="477" viewBox="0 0 4700 477" fill="none" xmlns="http://www.w3.org/2000/svg">
<path d="M152.745 342.08L0 382.328V477H4700V232.556C4615.99 308.164 4506.96 350 4393.93 350H4316.57C4244.68 350 4173.26 338.237 4105.16 315.177L3924.5 254L3863.57 223.442C3802.36 192.736 3729.56 196.149 3671.48 232.448C3648.74 246.665 3629.14 265.393 3613.91 287.476L3593.96 316.41C3545.77 386.28 3466.32 428 3381.45 428C3326.89 428 3273.73 410.715 3229.61 378.625L3077.5 268L2966.75 187.701C2930.47 161.39 2890.35 140.825 2847.8 126.726C2778.06 103.616 2703.62 98.4779 2631.37 111.788L2551.5 126.5L2422.5 160L2191.5 238L2160.98 248.834C2125.26 261.518 2087.63 268 2049.72 268C2005.03 268 1960.8 258.995 1919.68 241.522L1874.98 222.536C1844.39 209.537 1812.71 199.234 1780.32 191.746L1643 160L1616.72 153.28C1549.34 136.049 1477.96 144.572 1416.53 177.182C1399.22 186.369 1382.93 197.35 1367.93 209.945L1296.12 270.209C1249.25 309.552 1187.91 327.219 1127.29 318.84C1081.93 312.572 1035.76 320.842 995.399 342.464L980.814 350.277C912.928 386.645 832.657 391.974 760.559 364.898L601.285 305.084C479.974 259.527 345.624 263.434 227.165 315.963C203.094 326.637 178.207 335.371 152.745 342.08Z" fill="#4178EF"/>
<path d="M497.325 335H447.628C361.288 335 275.693 319.027 195.164 287.888L1.5 213V0L4700 42.5V247.5L4665.1 249.851C4624.11 252.611 4583.45 258.975 4543.57 268.869L4470.5 287L4203.9 324.805C4157.96 331.319 4111.35 318.841 4074.82 290.247C4044.81 266.761 4007.79 254 3969.69 254H3829.15C3783.54 254 3738.1 259.396 3693.76 270.077L3623.5 287L3522.84 312.907C3465.84 327.577 3407.22 335 3348.36 335H3285.47C3239.93 335 3194.5 330.556 3149.82 321.731L3097.94 311.482C3015.98 295.291 2937.57 264.558 2866.44 220.736L2799.5 179.5L2717.27 113.231C2663.18 69.6442 2589.58 59.1584 2525.47 85.9078C2502.39 95.5405 2481.44 109.65 2463.83 127.423L2358.07 234.205C2308.7 284.051 2248.41 321.726 2181.97 344.251C2076.99 379.839 1962.61 375.633 1860.53 332.433L1808.16 310.268C1762.32 290.871 1719.75 264.544 1681.91 232.21L1550.84 120.186C1524.02 97.2633 1488.38 87.4756 1453.62 93.4823C1427.31 98.0274 1403.31 111.317 1385.49 131.2L1296.19 230.876C1257.4 274.169 1205.86 304.01 1149 316.091C1091.22 328.368 1031.01 321.649 977.358 296.936L949.697 284.195C891.037 257.177 823.337 257.964 765.321 286.339C750.16 293.754 734.178 299.358 717.706 303.034L649.822 318.187C599.759 329.362 548.62 335 497.325 335Z" fill="#FFFEFE" fill-opacity="0.3"/>
<g filter="url(#filter0_f_98_172)">
<path d="M1.5 224.5L194.764 299.539C275.552 330.907 361.463 347 448.127 347H497.325C548.619 347 599.759 341.362 649.822 330.187L717.706 315.034C734.178 311.358 750.16 305.754 765.321 298.339V298.339C823.337 269.964 891.037 269.177 949.697 296.195L977.358 308.936C1031.01 333.649 1091.22 340.368 1149 328.091V328.091C1205.86 316.01 1257.4 286.169 1296.19 242.876L1385.49 143.2C1403.31 123.317 1427.31 110.027 1453.62 105.482V105.482C1488.38 99.4756 1524.02 109.263 1550.84 132.186L1681.91 244.21C1719.75 276.544 1762.32 302.871 1808.16 322.268L1860.53 344.433C1962.61 387.633 2076.99 391.839 2181.97 356.251V356.251C2248.41 333.726 2308.7 296.051 2358.07 246.205L2463.83 139.423C2481.44 121.65 2502.39 107.54 2525.47 97.9078V97.9078C2589.58 71.1584 2663.18 81.6442 2717.27 125.231L2799.5 191.5L2866.44 232.736C2937.57 276.558 3015.98 307.291 3097.94 323.482L3149.82 333.731C3194.5 342.556 3239.93 347 3285.47 347H3348.36C3407.22 347 3465.84 339.577 3522.84 324.907L3623.5 299L3693.76 282.077C3738.1 271.396 3783.54 266 3829.15 266H3969.69C4007.79 266 4044.81 278.761 4074.82 302.247V302.247C4111.35 330.841 4157.96 343.319 4203.89 336.805L4470.5 299L4520.47 286.601C4575.62 272.918 4632.23 266 4689.05 266H4701" stroke="#1A2F5C" stroke-opacity="0.4" stroke-width="20"/>
</g>
<path d="M1.5 212.5L194.764 287.539C275.552 318.907 361.463 335 448.127 335H497.325C548.619 335 599.759 329.362 649.822 318.187L717.706 303.034C734.178 299.358 750.16 293.754 765.321 286.339V286.339C823.337 257.964 891.037 257.177 949.697 284.195L977.358 296.936C1031.01 321.649 1091.22 328.368 1149 316.091V316.091C1205.86 304.01 1257.4 274.169 1296.19 230.876L1385.49 131.2C1403.31 111.317 1427.31 98.0274 1453.62 93.4823V93.4823C1488.38 87.4756 1524.02 97.2633 1550.84 120.186L1681.91 232.21C1719.75 264.544 1762.32 290.871 1808.16 310.268L1860.53 332.433C1962.61 375.633 2076.99 379.839 2181.97 344.251V344.251C2248.41 321.726 2308.7 284.051 2358.07 234.205L2463.83 127.423C2481.44 109.65 2502.39 95.5405 2525.47 85.9078V85.9078C2589.58 59.1584 2663.18 69.6442 2717.27 113.231L2799.5 179.5L2866.44 220.736C2937.57 264.558 3015.98 295.291 3097.94 311.482L3149.82 321.731C3194.5 330.556 3239.93 335 3285.47 335H3348.36C3407.22 335 3465.84 327.577 3522.84 312.907L3623.5 287L3693.76 270.077C3738.1 259.396 3783.54 254 3829.15 254H3969.69C4007.79 254 4044.81 266.761 4074.82 290.247V290.247C4111.35 318.841 4157.96 331.319 4203.89 324.805L4470.5 287L4520.47 274.601C4575.62 260.918 4632.23 254 4689.05 254H4701" stroke="#4178EF" stroke-width="20"/>
<defs>
<filter id="filter0_f_98_172" x="-32.1196" y="43.2979" width="4763.12" height="376.895" filterUnits="userSpaceOnUse" color-interpolation-filters="sRGB">
<feFlood flood-opacity="0" result="BackgroundImageFix"/>
<feBlend mode="normal" in="SourceGraphic" in2="BackgroundImageFix" result="shape"/>
<feGaussianBlur stdDeviation="15" result="effect1_foregroundBlur_98_172"/>
</filter>
</defs>
</svg>
