<svg width="4700" height="445" viewBox="0 0 4700 445" fill="none" xmlns="http://www.w3.org/2000/svg">
<path d="M101.374 323.095L-2 350.328V445H4699V200.556C4614.97 276.165 4505.93 318 4392.89 318H4315.49C4243.58 318 4172.15 306.237 4104.04 283.177L3923.34 222L3861.09 190.788C3800.67 160.488 3728.82 163.856 3671.5 199.676L3647.56 214.637C3639.79 219.489 3633.16 225.952 3628.11 233.589C3603.23 271.218 3548.25 271.93 3522.4 234.957L3453.99 137.093C3410.84 75.3789 3327.66 56.9157 3262.46 94.5806L3220.19 119L3049.3 230.082C2983.56 272.82 2904.24 289.523 2826.84 276.93C2766.94 267.184 2705.5 274.934 2649.9 299.249L2599.05 321.485C2519.6 356.227 2430.01 359.924 2347.97 331.845C2309.61 318.717 2273.73 298.857 2242.2 273.37C2211.68 248.7 2177.09 229.265 2140.13 216.079L2117.83 208.123C2094.37 199.755 2072.29 187.937 2052.31 173.061L2008.99 140.799C1926.93 79.6854 1811.46 93.0628 1745.55 171.321C1738.44 179.758 1730.63 187.572 1722.19 194.677L1668.87 239.569C1637.47 266.006 1599.36 283.237 1558.77 289.352L1557.27 289.579C1526.98 294.14 1498.03 305.108 1472.32 321.75C1419.62 355.87 1354.65 365.289 1294.43 347.541L1161.99 308.512C1093.9 288.445 1020.64 295.985 958.065 329.502C902.562 359.231 838.418 368.639 776.715 356.102L569.593 314.017C523.718 304.696 477.023 300 430.211 300H279.698C219.511 300 159.575 307.762 101.374 323.095Z" fill="white"/>
<g filter="url(#filter0_f_98_167)">
<path d="M-2 246.5V246.5C53.4296 246.5 108.289 257.687 159.293 279.391L186.864 291.123C226.489 307.985 267.929 320.21 310.361 327.555L328.989 330.78C436.187 349.338 546.234 342.654 650.397 311.26L742.5 283.5L812.034 258.316C867.425 238.255 928.497 240.875 981.967 265.606V265.606C1050.6 297.351 1130.63 292.238 1194.66 252.019L1295 189V189C1351.68 159.398 1419.59 158.378 1477.38 185.747V185.747C1532.27 211.738 1596.4 212.552 1651.72 187.492L1714.14 159.216C1805.13 117.997 1909.28 117.065 2001 156.649L2164 227L2255.17 270.922C2373.6 327.975 2507.78 343.504 2636.11 315.008V315.008C2729.29 294.317 2815.99 251.154 2888.67 189.281L3000 94.5V94.5C3081.07 36.4644 3187.75 28.5568 3276.49 74.0068L3316.5 94.5L3323 98.7077C3414.73 158.078 3519.08 195.151 3627.7 206.961L3725.93 217.642C3783.09 223.857 3840.8 223.006 3897.75 215.107L3942.23 208.939C4037.07 195.786 4133.6 202.229 4225.84 227.868L4323.92 255.126C4391.05 273.786 4461.61 276.573 4530 263.267V263.267C4558.27 257.768 4587 255 4615.79 255H4698.5" stroke="#1A2F5C" stroke-opacity="0.4" stroke-width="20"/>
</g>
<path d="M328.989 338.78L312.202 335.874C268.5 328.309 225.615 316.606 184.127 300.926L167.754 294.738C135.628 282.596 102.652 272.834 69.0933 265.533L0 250.5V437H4698V263H4615.79C4587 263 4558.27 265.768 4530 271.267C4461.61 284.573 4391.05 281.786 4323.92 263.126L4225.84 235.868C4133.6 210.229 4037.07 203.786 3942.23 216.939L3897.75 223.107C3840.8 231.006 3783.09 231.857 3725.93 225.642L3627.7 214.961C3519.08 203.151 3414.73 166.078 3323 106.708L3316.5 102.5L3276.49 82.0068C3187.75 36.5568 3081.07 44.4644 3000 102.5L2888.67 197.281C2815.99 259.154 2729.29 302.317 2636.11 323.008C2507.78 351.504 2373.6 335.975 2255.17 278.922L2164 235L2001 164.649C1909.28 125.065 1805.13 125.997 1714.14 167.215L1651.72 195.492C1596.4 220.552 1532.27 219.738 1477.38 193.747C1419.59 166.378 1351.68 167.398 1295 197L1194.66 260.019C1130.63 300.238 1050.6 305.351 981.967 273.606C928.497 248.875 867.425 246.255 812.034 266.316L742.5 291.5L650.397 319.26C546.234 350.654 436.187 357.338 328.989 338.78Z" fill="#FFF9F9" fill-opacity="0.3"/>
<path d="M-2 254.5V254.5C53.4296 254.5 108.289 265.687 159.293 287.391L186.864 299.123C226.489 315.985 267.929 328.21 310.361 335.555L328.989 338.78C436.187 357.338 546.234 350.654 650.397 319.26L742.5 291.5L812.034 266.316C867.425 246.255 928.497 248.875 981.967 273.606V273.606C1050.6 305.351 1130.63 300.238 1194.66 260.019L1295 197V197C1351.68 167.398 1419.59 166.378 1477.38 193.747V193.747C1532.27 219.738 1596.4 220.552 1651.72 195.492L1714.14 167.216C1805.13 125.997 1909.28 125.065 2001 164.649L2164 235L2255.17 278.922C2373.6 335.975 2507.78 351.504 2636.11 323.008V323.008C2729.29 302.317 2815.99 259.154 2888.67 197.281L3000 102.5V102.5C3081.07 44.4644 3187.75 36.5568 3276.49 82.0068L3316.5 102.5L3323 106.708C3414.73 166.078 3519.08 203.151 3627.7 214.961L3725.93 225.642C3783.09 231.857 3840.8 231.006 3897.75 223.107L3942.23 216.939C4037.07 203.786 4133.6 210.229 4225.84 235.868L4323.92 263.126C4391.05 281.786 4461.61 284.573 4530 271.267V271.267C4558.27 265.768 4587 263 4615.79 263H4698.5" stroke="#4178EF" stroke-width="20"/>
<defs>
<filter id="filter0_f_98_167" x="-32" y="4.71655" width="4760.5" height="376.323" filterUnits="userSpaceOnUse" color-interpolation-filters="sRGB">
<feFlood flood-opacity="0" result="BackgroundImageFix"/>
<feBlend mode="normal" in="SourceGraphic" in2="BackgroundImageFix" result="shape"/>
<feGaussianBlur stdDeviation="15" result="effect1_foregroundBlur_98_167"/>
</filter>
</defs>
</svg>
