<svg width="4700" height="667" viewBox="0 0 4700 667" fill="none" xmlns="http://www.w3.org/2000/svg">
<path d="M45.079 221.587H1.00291L0 667H4700V128H4660.62C4603.47 128 4553.22 165.834 4537.42 220.76C4515.16 298.162 4427.88 336.104 4356.09 299.583L4258.45 249.905C4197.45 218.868 4122.93 236.851 4082.8 292.295C4044.63 345.017 3975 364.205 3915.22 338.472L3833.65 303.362C3783.59 281.813 3725.56 291.409 3685.11 327.925C3626.18 381.114 3534.8 374.438 3484.22 313.251L3399.96 211.305C3339.89 138.627 3245.12 103.287 3152.02 118.227C3110.14 124.947 3070.15 141.566 3035.93 166.623L2920 251.5L2836.99 311.414C2804.49 334.874 2765.43 347.5 2725.34 347.5C2665.04 347.5 2608.29 376.012 2572.29 424.393L2521.36 492.833C2510.17 507.877 2497.02 521.364 2482.27 532.937C2422.73 579.641 2342.75 590.921 2272.61 562.506L2252.15 554.213C2232.13 546.105 2213.26 535.432 2196 522.462L2147.28 485.862C2135.45 476.967 2122.95 468.988 2109.89 461.996C2067.62 439.35 2020.41 427.5 1972.45 427.5H1915.45C1852.67 427.5 1790.42 416.093 1731.72 393.834L1680.22 374.304C1655.17 364.803 1631.36 352.293 1609.32 337.048L1461.11 234.515C1355.75 161.62 1209.91 209.246 1167.87 330.277C1143.81 399.549 1082.7 449.3 1009.99 458.814L895.588 473.783C810.379 484.932 723.904 466.914 650.237 422.663L481.873 321.527C373.011 256.134 248.41 221.587 121.418 221.587H45.079Z" fill="#4178EF"/>
<path d="M678.813 398.053L642.029 348.34C618.859 317.027 590.333 290.059 557.768 268.684C466.555 208.81 351.39 197.957 250.5 239.5L-2 339.5V0H4701.5V189.786C4701.5 216.765 4689.16 242.262 4668 259L4637.55 280.384C4573.27 325.53 4493.46 342.756 4416.27 328.144C4360.64 317.611 4303.13 323.547 4250.82 345.223L4232.5 352.815C4178.33 375.26 4119.43 384.027 4061.08 378.352C3988.47 371.29 3919.7 342.19 3864.09 294.965L3792.36 234.043C3733.9 184.397 3667.22 145.349 3595.32 118.664L3558.5 105L3531.23 98.1301C3462.91 80.919 3391.64 78.8797 3322.45 92.1555L3307.33 95.0554C3272.95 101.652 3239.66 113.05 3208.45 128.914C3179.61 143.576 3152.79 161.923 3128.67 183.495L3075 231.5L3052.84 252.091C2956.56 341.554 2837.04 402.105 2707.96 426.814L2579 451.5L2295 507L2092.47 560.015C2004.21 583.118 1910.45 571.449 1830.55 527.415C1805.93 513.853 1783.02 497.424 1762.27 478.472L1587.63 318.932C1574.57 307.006 1562.73 293.822 1552.26 279.571L1486.24 189.666C1437.07 122.706 1343.61 106.905 1275.16 153.979C1256.93 166.512 1241.63 182.829 1230.28 201.817L1166.01 309.394C1128.25 372.612 1072.02 422.75 1004.91 453.063L962.909 472.036C912.903 494.623 856.544 498.896 803.704 484.107C753.666 470.103 709.721 439.823 678.813 398.053Z" fill="white" fill-opacity="0.3"/>
<g filter="url(#filter0_f_98_155)">
<path d="M5 349L250.5 251.5V251.5C351.39 209.957 466.555 220.81 557.768 280.684V280.684C590.333 302.059 618.859 329.027 642.029 360.34L678.813 410.053C709.721 451.823 753.666 482.103 803.704 496.107V496.107C856.544 510.896 912.903 506.623 962.909 484.036L1004.91 465.063C1072.02 434.75 1128.25 384.612 1166.01 321.394L1230.28 213.817C1241.63 194.829 1256.93 178.512 1275.16 165.979V165.979C1343.61 118.905 1437.07 134.706 1486.24 201.666L1552.26 291.571C1562.73 305.822 1574.57 319.006 1587.63 330.932L1762.27 490.472C1783.02 509.424 1805.93 525.853 1830.55 539.415V539.415C1910.45 583.449 2004.21 595.118 2092.47 572.015L2295 519L2579 463.5L2688.04 448.449C2829.3 428.949 2961.24 366.768 3066.2 270.227L3104.5 235L3201.72 162.426C3232.68 139.309 3267.34 121.598 3304.21 110.045V110.045C3370.81 89.1807 3442.19 89.1584 3508.81 109.981L3586.85 134.378C3664.16 158.546 3735.82 198.021 3797.55 250.454L3864.09 306.965C3919.7 354.19 3988.47 383.29 4061.08 390.352V390.352C4119.43 396.027 4178.33 387.26 4232.5 364.815L4250.82 357.223C4303.13 335.547 4360.64 329.611 4416.27 340.144L4447.03 345.967C4504.55 356.857 4564.03 344.019 4611.93 310.375L4643.04 288.529C4659.28 277.121 4678.65 271 4698.5 271V271" stroke="#1A2F5C" stroke-opacity="0.4" stroke-width="20"/>
</g>
<path d="M-2 337L250.5 239.5V239.5C351.39 197.957 466.555 208.81 557.768 268.684V268.684C590.333 290.059 618.859 317.027 642.029 348.34L678.813 398.053C709.721 439.823 753.666 470.103 803.704 484.107V484.107C856.544 498.896 912.903 494.623 962.909 472.036L1004.91 453.063C1072.02 422.75 1128.25 372.612 1166.01 309.394L1230.28 201.817C1241.63 182.829 1256.93 166.512 1275.16 153.979V153.979C1343.61 106.905 1437.07 122.706 1486.24 189.666L1552.26 279.571C1562.73 293.822 1574.57 307.006 1587.63 318.932L1762.27 478.472C1783.02 497.424 1805.93 513.853 1830.55 527.415V527.415C1910.45 571.449 2004.21 583.118 2092.47 560.015L2295 507L2579 451.5L2684.08 436.995C2827.34 417.22 2960.05 350.684 3061.61 247.725L3111.72 196.92C3165.81 142.09 3234.28 103.651 3309.25 86.0294V86.0294C3387.04 67.7447 3468.49 72.6594 3543.52 100.166L3601.26 121.334C3669.22 146.249 3732.24 182.981 3787.41 229.836L3864.09 294.965C3919.7 342.19 3988.47 371.29 4061.08 378.352V378.352C4119.43 384.027 4178.33 375.26 4232.5 352.815L4250.82 345.223C4303.13 323.547 4360.64 317.611 4416.27 328.144L4447.03 333.967C4504.55 344.857 4564.03 332.019 4611.93 298.375L4643.04 276.529C4659.28 265.121 4678.65 259 4698.5 259V259" stroke="#4178EF" stroke-width="20"/>
<defs>
<filter id="filter0_f_98_155" x="-28.6909" y="54.3805" width="4757.19" height="569.237" filterUnits="userSpaceOnUse" color-interpolation-filters="sRGB">
<feFlood flood-opacity="0" result="BackgroundImageFix"/>
<feBlend mode="normal" in="SourceGraphic" in2="BackgroundImageFix" result="shape"/>
<feGaussianBlur stdDeviation="15" result="effect1_foregroundBlur_98_155"/>
</filter>
</defs>
</svg>
