<svg width="4700" height="396" viewBox="0 0 4700 396" fill="none" xmlns="http://www.w3.org/2000/svg">
<path d="M103.317 274.104L0 301.328V396H4700V151.556C4615.99 227.164 4506.96 269 4393.93 269H4316.57C4244.68 269 4173.26 257.237 4105.16 234.177L3924.5 173L3899.92 160.673C3816.13 118.645 3716.49 123.317 3637 173L3627.1 179.396C3560.4 222.466 3484.1 248.411 3404.97 254.929C3340.32 260.255 3275.26 252.489 3213.68 232.097L3128.98 204.049C3094.71 192.7 3059.62 184.019 3024.01 178.084L2891.5 156L2825.64 144.842C2710.74 125.376 2592.65 140.033 2486 187L2351.33 239.622C2311.79 255.071 2269.72 263 2227.27 263C2207.13 263 2187.03 261.215 2167.21 257.667L2068.5 240L1999.33 217.37C1937.83 197.25 1873.53 187 1808.83 187C1743.37 187 1678.33 197.492 1616.18 218.077L1580.53 229.888C1560.22 236.616 1540.55 245.143 1521.75 255.367C1438.03 300.915 1339.65 311.363 1248.22 284.414L1163.75 259.513C1095.67 239.446 1022.42 246.986 959.861 280.502C904.37 310.23 840.237 319.638 778.546 307.101L571.5 265.023C525.616 255.698 478.912 251 432.089 251H281.676C221.477 251 161.529 258.766 103.317 274.104Z" fill="#4178EF"/>
<path d="M1652.31 246.249L1429.87 298.957C1389.1 308.62 1347.33 313.5 1305.43 313.5H1261.99C1210.96 313.5 1160.57 302.209 1114.42 280.436C1050.36 250.209 978.553 240.386 908.722 252.294L707.915 286.538C669.041 293.168 629.677 296.5 590.242 296.5H307.9C273.347 296.5 238.842 293.942 204.667 288.846L4.5 259V0H4699V183H4632.17C4594.5 183 4556.93 178.973 4520.11 170.987C4439.81 153.569 4356.55 155.11 4276.95 175.489L4233.42 186.632C4176.7 201.153 4118.38 208.5 4059.82 208.5H3928.5L3721.44 191.87C3648.63 186.022 3577.85 164.952 3513.69 130.023L3431.07 85.0501C3408.71 72.8775 3383.66 66.5 3358.2 66.5C3307.45 66.5 3260.02 91.769 3231.71 133.897L3176.55 215.971C3160.58 239.731 3137.6 257.918 3110.81 268.001C3050.9 290.543 2983.37 268.802 2947.86 215.547L2925.32 181.736C2871.5 101.007 2765.25 74.2337 2679.6 119.822L2565.57 180.52C2530.8 199.025 2493.01 211.185 2453.98 216.428L2328.46 233.289C2251.97 243.564 2174.13 232.536 2103.51 201.42L2076.18 189.377C1970.8 142.95 1849.59 149.634 1749.96 207.365C1719.49 225.027 1686.58 238.127 1652.31 246.249Z" fill="white" fill-opacity="0.3"/>
<g filter="url(#filter0_f_98_164)">
<path d="M4698.5 194H4632.17C4594.5 194 4556.93 189.973 4520.11 181.987V181.987C4439.81 164.569 4356.55 166.11 4276.95 186.489L4233.42 197.632C4176.7 212.153 4118.38 219.5 4059.82 219.5H3928.5L3721.44 202.87C3648.63 197.022 3577.85 175.952 3513.69 141.023L3431.07 96.0501C3408.71 83.8775 3383.66 77.5 3358.2 77.5V77.5C3307.45 77.5 3260.02 102.769 3231.71 144.897L3176.55 226.971C3160.58 250.731 3137.6 268.918 3110.81 279.001V279.001C3050.9 301.543 2983.37 279.802 2947.86 226.547L2925.32 192.736C2871.5 112.007 2765.25 85.2337 2679.6 130.822L2565.57 191.52C2530.8 210.025 2493.01 222.185 2453.98 227.428L2328.46 244.289C2251.97 254.564 2174.13 243.536 2103.51 212.42L2076.18 200.377C1970.8 153.95 1849.59 160.634 1749.96 218.365V218.365C1719.49 236.027 1686.58 249.127 1652.31 257.249L1429.87 309.957C1389.1 319.62 1347.33 324.5 1305.43 324.5H1261.99C1210.96 324.5 1160.57 313.209 1114.42 291.436V291.436C1050.36 261.209 978.553 251.386 908.722 263.294L707.915 297.538C669.041 304.168 629.677 307.5 590.242 307.5H322.362C278.22 307.5 234.176 303.325 190.82 295.029L114.511 280.429C78.2517 273.492 41.4172 270 4.5 270V270" stroke="#1A2F5C" stroke-opacity="0.4" stroke-width="20"/>
</g>
<path d="M4698.5 183H4632.17C4594.5 183 4556.93 178.973 4520.11 170.987V170.987C4439.81 153.569 4356.55 155.11 4276.95 175.489L4233.42 186.632C4176.7 201.153 4118.38 208.5 4059.82 208.5H3928.5L3721.44 191.87C3648.63 186.022 3577.85 164.952 3513.69 130.023L3431.07 85.0501C3408.71 72.8775 3383.66 66.5 3358.2 66.5V66.5C3307.45 66.5 3260.02 91.769 3231.71 133.897L3176.55 215.971C3160.58 239.731 3137.6 257.918 3110.81 268.001V268.001C3050.9 290.543 2983.37 268.802 2947.86 215.547L2925.32 181.736C2871.5 101.007 2765.25 74.2337 2679.6 119.822L2565.57 180.52C2530.8 199.025 2493.01 211.185 2453.98 216.428L2328.46 233.289C2251.97 243.564 2174.13 232.536 2103.51 201.42L2076.18 189.377C1970.8 142.95 1849.59 149.634 1749.96 207.365V207.365C1719.49 225.027 1686.58 238.127 1652.31 246.249L1429.87 298.957C1389.1 308.62 1347.33 313.5 1305.43 313.5H1261.99C1210.96 313.5 1160.57 302.209 1114.42 280.436V280.436C1050.36 250.209 978.553 240.386 908.722 252.294L707.915 286.538C669.041 293.168 629.677 296.5 590.242 296.5H322.362C278.22 296.5 234.176 292.325 190.82 284.029L114.511 269.429C78.2517 262.492 41.4172 259 4.5 259V259" stroke="#4178EF" stroke-width="20"/>
<defs>
<filter id="filter0_f_98_164" x="-25.5" y="37.5" width="4754" height="327" filterUnits="userSpaceOnUse" color-interpolation-filters="sRGB">
<feFlood flood-opacity="0" result="BackgroundImageFix"/>
<feBlend mode="normal" in="SourceGraphic" in2="BackgroundImageFix" result="shape"/>
<feGaussianBlur stdDeviation="15" result="effect1_foregroundBlur_98_164"/>
</filter>
</defs>
</svg>
