<svg width="4700" height="1100" viewBox="0 0 4700 1100" fill="none" xmlns="http://www.w3.org/2000/svg">
<path opacity="0.3" d="M1467.11 633.401L1425.71 587.583C1401.51 560.798 1370.61 540.934 1336.2 530.027C1250.23 502.777 1156.57 535.36 1106.08 610.087L981.011 795.177C890.312 929.401 697.972 943.509 588.66 823.953C529.459 759.204 440.694 730.154 354.667 747.375L257.164 766.892C229.593 772.411 201.544 775.191 173.426 775.191H-297.393V-391H5117.5V658.589L5012.41 681.393C4937.39 697.672 4868.62 735.128 4814.24 789.316L4802.56 800.957C4791.03 812.444 4778.37 822.727 4764.76 831.648C4687.53 882.267 4588 883.063 4522.38 818.103C4488.19 784.259 4459.38 751.9 4446.04 735.28C4435.77 722.484 4409.32 694.993 4381.73 667.529C4343.04 629.013 4285.58 618.015 4234.38 636.965C4197.03 650.788 4166.88 679.149 4150.79 715.579L4134.38 752.742C4110.58 806.664 4062.38 845.919 4004.75 858.322C3946.03 870.961 3884.84 854.146 3840.82 813.275L3725.63 706.325L3600.88 600.572C3558.93 565.001 3524.47 521.436 3499.51 472.415C3489.41 452.571 3480.93 431.947 3474.14 410.74L3440.21 304.753C3436.24 292.336 3431.14 280.304 3425 268.805L3378.77 182.294C3369.67 165.257 3351.92 154.618 3332.6 154.618C3310.63 154.618 3291 168.332 3283.45 188.958L3228.65 338.52L3189.51 482.883C3178.07 525.096 3159.39 565.006 3134.32 600.84L3107.97 638.491C3077.19 682.476 3032.73 715.049 2981.51 731.138C2957.91 738.551 2933.31 742.323 2908.57 742.323H2899.28C2843.49 742.323 2789.11 759.932 2743.91 792.641C2731.17 801.858 2719.28 812.19 2708.37 823.515L2610.47 925.178C2571.55 965.588 2524.5 997.274 2472.43 1018.14L2465.75 1020.82C2404.22 1045.47 2337.2 1053.15 2271.69 1043.04C2217.38 1034.65 2165.63 1014.28 2120.18 983.403L2030.27 922.313L1988.03 890.374C1914.87 835.059 1831 795.567 1741.76 774.408L1709.97 768.621C1616.32 751.569 1530.94 704.028 1467.11 633.401Z" fill="white"/>
<g filter="url(#filter0_f_98_146)">
<path d="M-302 787.712H173.426C201.544 787.712 229.593 784.932 257.164 779.413L354.667 759.896C440.694 742.675 529.459 771.725 588.66 836.474V836.474C697.972 956.03 890.312 941.922 981.011 807.697L1106.08 622.608C1156.57 547.881 1250.23 515.298 1336.2 542.548V542.548C1370.61 553.455 1401.51 573.319 1425.71 600.104L1467.11 645.922C1530.94 716.549 1616.32 764.09 1709.97 781.142L1741.76 786.929V786.929C1831 808.088 1914.87 847.58 1988.03 902.895L2030.27 934.834L2120.18 995.924C2165.63 1026.81 2217.38 1047.18 2271.69 1055.56V1055.56C2337.2 1065.67 2404.22 1057.99 2465.75 1033.34L2472.43 1030.66C2524.5 1009.79 2571.55 978.108 2610.47 937.699L2708.37 836.036C2719.28 824.711 2731.17 814.378 2743.91 805.162V805.162C2789.11 772.453 2843.49 754.844 2899.28 754.844H2908.57C2933.31 754.844 2957.91 751.072 2981.51 743.658V743.658C3032.73 727.57 3077.19 694.997 3107.97 651.012L3134.32 613.361C3159.39 577.527 3178.07 537.617 3189.51 495.404L3228.65 351.041L3283.45 201.479C3291 180.853 3310.63 167.139 3332.6 167.139V167.139C3351.92 167.139 3369.67 177.778 3378.77 194.815L3425 281.325C3431.14 292.825 3436.24 304.857 3440.21 317.274L3474.14 423.261C3480.93 444.468 3489.41 465.092 3499.51 484.936V484.936C3524.47 533.957 3558.92 577.522 3600.88 613.093L3725.63 718.846L3840.82 825.796C3884.84 866.667 3946.03 883.482 4004.76 870.843V870.843C4062.38 858.44 4110.58 819.185 4134.38 765.263L4150.79 728.099C4166.88 691.67 4197.03 663.309 4234.38 649.486V649.486C4285.58 630.536 4343.04 641.534 4381.73 680.05C4409.32 707.514 4435.77 735.005 4446.04 747.801C4459.38 764.421 4488.19 796.78 4522.38 830.624C4588 895.584 4687.53 894.788 4764.76 844.169V844.169C4778.37 835.248 4791.03 824.965 4802.56 813.478L4843.64 772.538C4879.14 737.162 4921.87 709.876 4968.89 692.551V692.551C5007.39 678.369 5048.09 671.11 5089.11 671.11H5114.62" stroke="#1A2F5C" stroke-opacity="0.4" stroke-width="20"/>
</g>
<path d="M-302 775.191H173.426C201.544 775.191 229.593 772.411 257.164 766.892L354.667 747.375C440.694 730.154 529.459 759.204 588.66 823.953V823.953C697.972 943.509 890.312 929.401 981.011 795.176L1106.08 610.087C1156.57 535.36 1250.23 502.777 1336.2 530.027V530.027C1370.61 540.934 1401.51 560.798 1425.71 587.583L1467.11 633.401C1530.94 704.028 1616.32 751.569 1709.97 768.621L1741.76 774.408V774.408C1831 795.567 1914.87 835.059 1988.03 890.374L2030.27 922.313L2120.18 983.403C2165.63 1014.28 2217.38 1034.65 2271.69 1043.04V1043.04C2337.2 1053.15 2404.22 1045.47 2465.75 1020.82L2472.43 1018.14C2524.5 997.273 2571.55 965.587 2610.47 925.178L2708.37 823.515C2719.28 812.19 2731.17 801.857 2743.91 792.641V792.641C2789.11 759.932 2843.49 742.323 2899.28 742.323H2908.57C2933.31 742.323 2957.91 738.551 2981.51 731.137V731.137C3032.73 715.049 3077.19 682.476 3107.97 638.491L3134.32 600.84C3159.39 565.006 3178.07 525.096 3189.51 482.883L3228.65 338.52L3283.45 188.958C3291 168.332 3310.63 154.618 3332.6 154.618V154.618C3351.92 154.618 3369.67 165.257 3378.77 182.294L3425 268.804C3431.14 280.304 3436.24 292.336 3440.21 304.753L3474.14 410.74C3480.93 431.947 3489.41 452.571 3499.51 472.415V472.415C3524.47 521.436 3558.92 565.001 3600.88 600.572L3725.63 706.325L3840.82 813.275C3884.84 854.146 3946.03 870.961 4004.76 858.322V858.322C4062.38 845.919 4110.58 806.664 4134.38 752.742L4150.79 715.578C4166.88 679.149 4197.03 650.788 4234.38 636.965V636.965C4285.58 618.015 4343.04 629.013 4381.73 667.529C4409.32 694.993 4435.77 722.484 4446.04 735.28C4459.38 751.9 4488.19 784.259 4522.38 818.103C4588 883.063 4687.53 882.267 4764.76 831.648V831.648C4778.37 822.727 4791.03 812.444 4802.56 800.957L4843.64 760.017C4879.14 724.641 4921.87 697.355 4968.89 680.03V680.03C5007.39 665.848 5048.09 658.589 5089.11 658.589H5114.62" stroke="#4178EF" stroke-width="20"/>
<defs>
<filter id="filter0_f_98_146" x="-332" y="127.139" width="5476.62" height="972.747" filterUnits="userSpaceOnUse" color-interpolation-filters="sRGB">
<feFlood flood-opacity="0" result="BackgroundImageFix"/>
<feBlend mode="normal" in="SourceGraphic" in2="BackgroundImageFix" result="shape"/>
<feGaussianBlur stdDeviation="15" result="effect1_foregroundBlur_98_146"/>
</filter>
</defs>
</svg>
