<svg width="4700" height="729" viewBox="0 0 4700 729" fill="none" xmlns="http://www.w3.org/2000/svg">
<path opacity="0.3" d="M1533.6 416.774L1503.22 392.031C1477.74 371.284 1447.87 356.621 1415.87 349.158C1339.96 331.452 1260.39 356.014 1207.66 413.432L1115.27 514.055C1025.68 611.62 875.746 622.909 772.557 539.859C718.009 495.957 647.62 476.801 578.347 487.005L480.602 501.403C457.565 504.796 434.31 506.5 411.025 506.5H0.5V0.5H4702V432L4597.5 448.686C4540.65 457.765 4486.78 480.258 4440.36 514.304L4432.38 520.156C4419.82 529.366 4406.44 537.405 4392.41 544.171C4324.93 576.724 4245.92 578.083 4185.35 533.968C4155.64 512.326 4130.59 491.627 4119 481C4110.02 472.766 4086.79 455.009 4062.65 437.337C4028.05 412.005 3983.79 404.958 3942.41 416.227C3905.25 426.349 3873.44 450.44 3853.62 483.468L3852.57 485.218C3829.07 524.379 3789.44 551.127 3744.34 558.271L3728.54 560.773C3680.99 568.305 3632.36 557.371 3592.6 530.211L3493.5 462.5L3376.59 389.564C3345.85 370.391 3319.37 345.132 3298.76 315.341C3288.94 301.147 3280.53 286.031 3273.65 270.205L3247.81 210.813C3242.95 199.638 3236.89 189.025 3229.73 179.165L3195.15 131.554C3185.32 118.013 3169.6 110 3152.86 110C3133.03 110 3114.91 121.221 3106.08 138.971L3062 227.5L3032.83 306.676C3019.75 342.184 2999.55 374.645 2973.47 402.066L2967 408.872C2933.73 443.853 2890.93 468.296 2843.9 479.167C2825.69 483.375 2807.07 485.5 2788.38 485.5H2767.21C2724.07 485.5 2681.58 496.106 2643.5 516.383C2630.85 523.117 2618.78 530.871 2607.4 539.569L2535.67 594.379C2494.9 625.529 2448.77 648.94 2399.56 663.45C2345.73 679.322 2289.22 684.232 2233.46 677.9C2184.56 672.346 2136.98 658.238 2092.96 636.228L2021.5 600.5L1991.93 584.047C1923.46 545.953 1848.19 519.466 1771 506L1725.87 499.954C1655.34 490.503 1588.79 461.713 1533.6 416.774Z" fill="white"/>
<g filter="url(#filter0_f_98_146)">
<path d="M-3.5 514.5H411.025C434.31 514.5 457.565 512.796 480.602 509.403L578.347 495.005C647.62 484.801 718.009 503.957 772.557 547.859V547.859C875.746 630.909 1025.68 619.62 1115.27 522.055L1207.66 421.432C1260.39 364.014 1339.96 339.452 1415.87 357.158V357.158C1447.87 364.621 1477.74 379.284 1503.22 400.031L1533.6 424.774C1588.79 469.713 1655.34 498.503 1725.87 507.954L1771 514V514C1848.19 527.466 1923.46 553.953 1991.93 592.047L2021.5 608.5L2092.96 644.228C2136.98 666.238 2184.56 680.346 2233.46 685.9V685.9C2289.22 692.232 2345.73 687.322 2399.56 671.45V671.45C2448.77 656.94 2494.9 633.529 2535.67 602.379L2607.4 547.569C2618.78 538.871 2630.85 531.116 2643.5 524.383V524.383C2681.58 504.106 2724.07 493.5 2767.21 493.5H2788.38C2807.07 493.5 2825.69 491.375 2843.9 487.167V487.167C2890.93 476.296 2933.73 451.853 2967 416.872L2973.47 410.067C2999.55 382.645 3019.75 350.184 3032.83 314.676L3062 235.5L3106.08 146.971C3114.91 129.221 3133.03 118 3152.86 118V118C3169.6 118 3185.32 126.013 3195.15 139.554L3229.73 187.165C3236.89 197.025 3242.95 207.638 3247.81 218.813L3273.65 278.205C3280.53 294.031 3288.94 309.147 3298.76 323.341V323.341C3319.37 353.132 3345.85 378.391 3376.59 397.564L3493.5 470.5L3592.6 538.21C3632.36 565.371 3680.99 576.305 3728.54 568.773L3744.34 566.271C3789.44 559.127 3829.07 532.379 3852.57 493.218L3853.62 491.468C3873.44 458.44 3905.25 434.349 3942.41 424.227V424.227C3983.79 412.958 4028.05 420.005 4062.65 445.337C4086.79 463.009 4110.02 480.766 4119 489C4130.59 499.627 4155.64 520.326 4185.35 541.968C4245.92 586.083 4324.93 584.724 4392.41 552.171V552.171C4406.44 545.405 4419.82 537.366 4432.38 528.156L4456.21 510.682C4492.42 484.122 4533.23 464.473 4576.58 452.721V452.721C4607.72 444.277 4639.85 440 4672.11 440H4699.5" stroke="#1A2F5C" stroke-opacity="0.4" stroke-width="20"/>
</g>
<path d="M-3.5 506.5H411.025C434.31 506.5 457.565 504.796 480.602 501.403L578.347 487.005C647.62 476.801 718.009 495.957 772.557 539.859V539.859C875.746 622.909 1025.68 611.62 1115.27 514.055L1207.66 413.432C1260.39 356.014 1339.96 331.452 1415.87 349.158V349.158C1447.87 356.621 1477.74 371.284 1503.22 392.031L1533.6 416.774C1588.79 461.713 1655.34 490.503 1725.87 499.954L1771 506V506C1848.19 519.466 1923.46 545.953 1991.93 584.047L2021.5 600.5L2092.96 636.228C2136.98 658.238 2184.56 672.346 2233.46 677.9V677.9C2289.22 684.232 2345.73 679.322 2399.56 663.45V663.45C2448.77 648.94 2494.9 625.529 2535.67 594.379L2607.4 539.569C2618.78 530.871 2630.85 523.116 2643.5 516.383V516.383C2681.58 496.106 2724.07 485.5 2767.21 485.5H2788.38C2807.07 485.5 2825.69 483.375 2843.9 479.167V479.167C2890.93 468.296 2933.73 443.853 2967 408.872L2973.47 402.067C2999.55 374.645 3019.75 342.184 3032.83 306.676L3062 227.5L3106.08 138.971C3114.91 121.221 3133.03 110 3152.86 110V110C3169.6 110 3185.32 118.013 3195.15 131.554L3229.73 179.165C3236.89 189.025 3242.95 199.638 3247.81 210.813L3273.65 270.205C3280.53 286.031 3288.94 301.147 3298.76 315.341V315.341C3319.37 345.132 3345.85 370.391 3376.59 389.564L3493.5 462.5L3592.6 530.21C3632.36 557.371 3680.99 568.305 3728.54 560.773L3744.34 558.271C3789.44 551.127 3829.07 524.379 3852.57 485.218L3853.62 483.468C3873.44 450.44 3905.25 426.349 3942.41 416.227V416.227C3983.79 404.958 4028.05 412.005 4062.65 437.337C4086.79 455.009 4110.02 472.766 4119 481C4130.59 491.627 4155.64 512.326 4185.35 533.968C4245.92 578.083 4324.93 576.724 4392.41 544.171V544.171C4406.44 537.405 4419.82 529.366 4432.38 520.156L4456.21 502.682C4492.42 476.122 4533.23 456.473 4576.58 444.721V444.721C4607.72 436.277 4639.85 432 4672.11 432H4699.5" stroke="#4178EF" stroke-width="20"/>
<defs>
<filter id="filter0_f_98_146" x="-33.5" y="78" width="4763" height="650.581" filterUnits="userSpaceOnUse" color-interpolation-filters="sRGB">
<feFlood flood-opacity="0" result="BackgroundImageFix"/>
<feBlend mode="normal" in="SourceGraphic" in2="BackgroundImageFix" result="shape"/>
<feGaussianBlur stdDeviation="15" result="effect1_foregroundBlur_98_146"/>
</filter>
</defs>
</svg>
