<svg width="112" height="112" viewBox="0 0 112 112" fill="none" xmlns="http://www.w3.org/2000/svg">
<path fill-rule="evenodd" clip-rule="evenodd" d="M54.1 91.1C35.4 91.1 20.2 75.9 20.2 57.2C20.2 38.5 35.4 23.3 54.1 23.3C72.7 23.3 87.9 38.5 87.9 57.2C87.9 75.9 72.7 91.1 54.1 91.1ZM54.1 24.8C36.2 24.8 21.7 39.3 21.7 57.2C21.7 75.1 36.2 89.6 54.1 89.6C71.9 89.6 86.4 75.1 86.4 57.2C86.4 39.3 71.9 24.8 54.1 24.8Z" fill="#4178EF"/>
<path fill-rule="evenodd" clip-rule="evenodd" d="M54.1 69.7C47.2 69.7 41.6 64.1 41.6 57.2C41.6 50.3 47.2 44.7 54.1 44.7C60.9 44.7 66.5 50.3 66.5 57.2C66.5 64.1 60.9 69.7 54.1 69.7ZM54.1 46.2C48 46.2 43.1 51.1 43.1 57.2C43.1 63.3 48 68.2 54.1 68.2C60.1 68.2 65.1 63.3 65.1 57.2C65.1 51.1 60.1 46.2 54.1 46.2Z" fill="#4178EF"/>
<path fill-rule="evenodd" clip-rule="evenodd" d="M54.1 83.2C39.7 83.2 28 71.6 28 57.2C28 42.8 39.7 31.1 54.1 31.1C68.4 31.1 80.1 42.8 80.1 57.2C80.1 71.6 68.4 83.2 54.1 83.2ZM54.1 32.6C40.5 32.6 29.5 43.6 29.5 57.2C29.5 70.8 40.5 81.8 54.1 81.8C67.6 81.8 78.6 70.8 78.6 57.2C78.6 43.6 67.6 32.6 54.1 32.6Z" fill="#4178EF"/>
<path d="M54.1 53.4C53.7 53.4 53.3 53.1 53.3 52.7V15C53.3 14.6 53.7 14.3 54.1 14.3C54.5 14.3 54.8 14.6 54.8 15V52.7C54.8 53.1 54.5 53.4 54.1 53.4Z" fill="#4178EF"/>
<path d="M96.2 57.9H58.6C58.2 57.9 57.9 57.6 57.9 57.2C57.9 56.8 58.2 56.5 58.6 56.5H96.2C96.6 56.5 97 56.8 97 57.2C97 57.6 96.6 57.9 96.2 57.9Z" fill="#4178EF"/>
<path d="M54.1 100.1C53.7 100.1 53.3 99.8 53.3 99.4V61.7C53.3 61.3 53.7 61 54.1 61C54.5 61 54.8 61.3 54.8 61.7V99.4C54.8 99.8 54.5 100.1 54.1 100.1Z" fill="#4178EF"/>
<path d="M49.5 57.9H11.9C11.5 57.9 11.2 57.6 11.2 57.2C11.2 56.8 11.5 56.5 11.9 56.5H49.5C49.9 56.5 50.3 56.8 50.3 57.2C50.3 57.6 49.9 57.9 49.5 57.9Z" fill="#4178EF"/>
<path d="M54.1 57.9C53.9 57.9 53.7 57.8334 53.5 57.7C53.3 57.4 53.3 57 53.5 56.7L89.7 20.5C89.9 20.2 90.4 20.2 90.7 20.5C91 20.8 91 21.3001 90.7 21.6001L54.6 57.7C54.4667 57.8334 54.3 57.9 54.1 57.9Z" fill="#4178EF"/>
<path fill-rule="evenodd" clip-rule="evenodd" d="M90.2 21.8C90.1333 21.8 90.1 21.8 90.1 21.8C89.9 21.7 89.7 21.6 89.5 21.4L87.5 18C87.4 17.7 87.4 17.4 87.6 17.2L91.5 11.5C91.6333 11.3 91.8 11.2 92 11.2C92.2667 11.1333 92.4667 11.2 92.6 11.4L96.4 14.8C96.5333 14.9333 96.6 15.1 96.6 15.3C96.6667 15.5 96.6 15.6666 96.4 15.8L90.7 21.6C90.5667 21.7333 90.4 21.8 90.2 21.8ZM89 17.6L90.3 19.9L94.9 15.3L92.2 13L89 17.6Z" fill="#4178EF"/>
<path fill-rule="evenodd" clip-rule="evenodd" d="M93.6 23.8C93.4667 23.8 93.3334 23.7667 93.2 23.7L89.8 21.7C89.6 21.6 89.5 21.4 89.4 21.1C89.4 20.9 89.5 20.7 89.7 20.5L95.4 14.8C95.5334 14.6667 95.7 14.6 95.9 14.6C96.1667 14.6 96.3667 14.6667 96.5 14.8L99.9 18.6C100.033 18.8 100.067 19 100 19.2C100 19.4 99.9 19.5667 99.7 19.7L94 23.7C93.8667 23.7667 93.7334 23.8 93.6 23.8ZM91.4 20.9L93.6 22.2L98.2 19L95.9 16.4L91.4 20.9Z" fill="#4178EF"/>
</svg>
