<svg width="54" height="50" viewBox="0 0 54 50" fill="none" xmlns="http://www.w3.org/2000/svg">
<path fill-rule="evenodd" clip-rule="evenodd" d="M4.31051 10.7515C11.2105 0.25154 29.5105 -2.64845 40.4105 2.45155C53.7105 8.75155 57.6105 26.1515 50.0105 38.1515C49.9439 38.2848 49.8439 38.4182 49.7105 38.5515C49.7105 38.5515 49.6772 38.5515 49.6105 38.5515C39.9105 50.3515 22.3105 53.8516 9.91055 43.9516C-0.189455 35.8516 -2.88949 21.7515 4.31051 10.7515ZM16.5105 42.9516C26.9105 48.3516 39.1105 44.1515 46.2105 35.7515C53.5105 23.9515 47.5105 7.7515 33.6105 5.1515C23.7105 3.2515 11.1105 6.35155 6.6105 15.9516C1.7105 26.3516 6.71052 37.7516 16.5105 42.9516V42.9516Z" fill="#ffffff"/>
<path fill-rule="evenodd" clip-rule="evenodd" d="M16.2105 22.4516C14.0105 18.8516 16.7104 16.3516 19.8104 14.7516C19.6104 13.6182 19.4105 12.4849 19.2105 11.3515C19.1105 10.2515 20.7104 9.85153 20.8104 10.8515C21.0104 11.9182 21.2105 12.9849 21.4105 14.0515C22.4771 13.6515 23.5771 13.3849 24.7105 13.2516C24.5105 12.5849 24.3438 11.9515 24.2105 11.3515C24.0105 10.3515 25.6104 9.85157 25.8104 10.9516C26.0104 11.6182 26.1771 12.3182 26.3104 13.0515C28.8104 12.9515 31.4104 13.4516 33.8104 14.4516C34.8104 14.8516 33.9105 16.3516 32.9105 15.9516C31.0105 15.0516 28.9105 14.6515 26.7105 14.6515C27.3771 17.4515 28.0438 20.2515 28.7105 23.0515C31.6105 22.8515 34.7104 23.3515 36.1104 26.1515C37.6104 29.0515 36.0105 32.5516 33.7105 34.4516C33.0438 34.9849 32.3771 35.3849 31.7105 35.6515C32.1105 37.3849 32.5438 39.1182 33.0104 40.8515C33.2104 41.9515 31.6104 42.3515 31.3104 41.3515C30.9104 39.6182 30.5104 37.8849 30.1104 36.1515C28.4104 36.5515 26.7105 36.3515 24.9105 36.0515C24.9771 36.3182 25.0104 36.5849 25.0104 36.8515C25.2104 37.9515 23.6105 38.3515 23.4105 37.3515C23.3438 36.7515 23.2771 36.1849 23.2105 35.6515C21.7105 35.2515 20.2105 34.6515 18.9105 34.1515C17.9105 33.8515 18.3104 32.2515 19.3104 32.5515C20.4104 32.9515 21.6105 33.4515 22.9105 33.8515C22.4438 30.9849 21.9771 28.1182 21.5104 25.2516C19.4104 25.2516 17.5105 24.6516 16.2105 22.4516V22.4516ZM29.7105 34.5515C28.9771 31.2849 28.2105 28.0182 27.4105 24.7516C26.0105 24.8516 24.6105 25.1516 23.2105 25.2516C23.6771 28.2516 24.1437 31.2849 24.6104 34.3515C26.4104 34.7515 28.1105 34.8515 29.7105 34.5515V34.5515ZM29.1104 24.6515C29.8437 27.7182 30.5771 30.8182 31.3104 33.9516C31.6104 33.8516 31.8104 33.7515 32.1104 33.5515C33.9104 32.3515 35.6105 29.7516 34.9105 27.4516C34.0105 24.8516 31.3104 24.5515 29.1104 24.6515ZM21.6104 15.7516C22.0771 18.4182 22.5105 21.0849 22.9105 23.7516C24.3105 23.6516 25.8104 23.2515 27.0104 23.1515C26.3438 20.3515 25.6771 17.5516 25.0104 14.7516C23.8771 14.9516 22.7437 15.2849 21.6104 15.7516ZM18.4105 22.5515C19.2105 23.2515 20.2105 23.6516 21.2105 23.7516C20.8105 21.3516 20.4437 18.9515 20.1104 16.5515C17.9104 17.9515 16.1105 20.4515 18.4105 22.5515V22.5515Z" fill="#ffffff"/>
</svg>
