<svg width="112" height="112" viewBox="0 0 112 112" fill="none" xmlns="http://www.w3.org/2000/svg">
<path fill-rule="evenodd" clip-rule="evenodd" d="M55.6 50.5C50.1 50.5 45.6 46 45.6 40.5C45.6 35 50.1 30.6 55.6 30.6C61.1 30.6 65.5 35 65.5 40.5C65.5 46 61.1 50.5 55.6 50.5ZM55.6 32C50.9 32 47.1 35.8 47.1 40.5C47.1 45.2 50.9 49 55.6 49C60.3 49 64.1 45.2 64.1 40.5C64.1 35.8 60.3 32 55.6 32Z" fill="#4178EF"/>
<path fill-rule="evenodd" clip-rule="evenodd" d="M55.6 50.5C52.4 50.5 49.4 48.9 47.6 46.4C47.4 46.1 47.4 45.7 47.6 45.5C49.6 43.2 52.5 41.8 55.6 41.8C58.7 41.8 61.6 43.2 63.6 45.5C63.8 45.7 63.8 46.1 63.6 46.4C61.8 48.9 58.8 50.5 55.6 50.5ZM49.1 46C50.7 47.9 53.1 49 55.6 49C58.1 49 60.5 47.9 62.1 46C60.4 44.3 58 43.3 55.6 43.3C53.2 43.3 50.8 44.3 49.1 46Z" fill="#4178EF"/>
<path fill-rule="evenodd" clip-rule="evenodd" d="M55.6 42.1C53.1 42.1 51.1 40.1 51.1 37.6C51.1 35.1 53.1 33.1 55.6 33.1C58.1 33.1 60.1 35.1 60.1 37.6C60.1 40.1 58.1 42.1 55.6 42.1ZM55.6 34.6C53.9 34.6 52.5 35.9 52.5 37.6C52.5 39.3 53.9 40.7 55.6 40.7C57.3 40.7 58.7 39.3 58.7 37.6C58.7 35.9 57.3 34.6 55.6 34.6Z" fill="#4178EF"/>
<path fill-rule="evenodd" clip-rule="evenodd" d="M41.4 80.7C35.9 80.7 31.4 76.3 31.4 70.8C31.4 65.3 35.9 60.8 41.4 60.8C46.9 60.8 51.3 65.3 51.3 70.8C51.3 76.3 46.9 80.7 41.4 80.7ZM41.4 62.3C36.7 62.3 32.9 66.1 32.9 70.8C32.9 75.5 36.7 79.3 41.4 79.3C46.1 79.3 49.9 75.5 49.9 70.8C49.9 66.1 46.1 62.3 41.4 62.3Z" fill="#4178EF"/>
<path fill-rule="evenodd" clip-rule="evenodd" d="M41.4 80.7C38.2 80.7 35.2 79.2 33.3 76.6C33.1 76.4 33.2 76 33.4 75.7C35.4 73.4 38.3 72.1 41.4 72.1C44.4 72.1 47.4 73.4 49.4 75.7C49.6 76 49.6 76.4 49.4 76.6C47.5 79.2 44.5 80.7 41.4 80.7ZM34.9 76.3C36.5 78.2 38.9 79.3 41.4 79.3C43.9 79.3 46.3 78.2 47.9 76.3C46.2 74.5 43.8 73.6 41.4 73.6C38.9 73.6 36.6 74.5 34.9 76.3Z" fill="#4178EF"/>
<path fill-rule="evenodd" clip-rule="evenodd" d="M41.4 72.4C38.9 72.4 36.9 70.4 36.9 67.9C36.9 65.4 38.9 63.4 41.4 63.4C43.9 63.4 45.9 65.4 45.9 67.9C45.9 70.4 43.9 72.4 41.4 72.4ZM41.4 64.8C39.7 64.8 38.3 66.2 38.3 67.9C38.3 69.6 39.7 70.9 41.4 70.9C43.1 70.9 44.4 69.6 44.4 67.9C44.4 66.2 43.1 64.8 41.4 64.8Z" fill="#4178EF"/>
<path fill-rule="evenodd" clip-rule="evenodd" d="M69.8 80.7C64.3 80.7 59.9 76.3 59.9 70.8C59.9 65.3 64.3 60.8 69.8 60.8C75.3 60.8 79.8 65.3 79.8 70.8C79.8 76.3 75.3 80.7 69.8 80.7ZM69.8 62.3C65.1 62.3 61.3 66.1 61.3 70.8C61.3 75.5 65.1 79.3 69.8 79.3C74.5 79.3 78.3 75.5 78.3 70.8C78.3 66.1 74.5 62.3 69.8 62.3Z" fill="#4178EF"/>
<path fill-rule="evenodd" clip-rule="evenodd" d="M69.8 80.7C66.7 80.7 63.6 79.2 61.8 76.6C61.6 76.4 61.6 76 61.8 75.7C63.8 73.4 66.8 72.1 69.8 72.1C72.9 72.1 75.8 73.4 77.8 75.7C78 76 78.1 76.4 77.9 76.6C76 79.2 73 80.7 69.8 80.7ZM63.3 76.3C64.9 78.2 67.3 79.3 69.8 79.3C72.3 79.3 74.7 78.2 76.3 76.3C74.6 74.5 72.3 73.6 69.8 73.6C67.4 73.6 65 74.5 63.3 76.3Z" fill="#4178EF"/>
<path fill-rule="evenodd" clip-rule="evenodd" d="M69.8 72.4C67.3 72.4 65.3 70.4 65.3 67.9C65.3 65.4 67.3 63.4 69.8 63.4C72.3 63.4 74.3 65.4 74.3 67.9C74.3 70.4 72.3 72.4 69.8 72.4ZM69.8 64.8C68.1 64.8 66.8 66.2 66.8 67.9C66.8 69.6 68.1 70.9 69.8 70.9C71.5 70.9 72.9 69.6 72.9 67.9C72.9 66.2 71.5 64.8 69.8 64.8Z" fill="#4178EF"/>
<path d="M41.4 62.3C41.1 62.3 40.8 62.1 40.7 61.9C40.6 61.5 40.7 61.1 41.1 60.9L54.9 54.3V49.7C54.9 49.3 55.2 49 55.6 49C56 49 56.3 49.3 56.3 49.7V54.8C56.3 55 56.2 55.3 55.9 55.4L41.7 62.2C41.5667 62.2667 41.4667 62.3 41.4 62.3Z" fill="#4178EF"/>
<path d="M69.8 62.3C69.7334 62.3 69.6334 62.2667 69.5 62.2L55.3 55.4C55 55.3 54.9 55 54.9 54.8V49.7C54.9 49.3 55.2 49 55.6 49C56 49 56.3 49.3 56.3 49.7V54.3L70.1 60.9C70.5 61.1 70.6 61.5 70.5 61.9C70.4 62.1 70.1 62.3 69.8 62.3Z" fill="#4178EF"/>
<path fill-rule="evenodd" clip-rule="evenodd" d="M55.6 93.3C34.9 93.3 18 76.4 18 55.6C18 45.6 21.9 36.1 29 29C36.1 21.9 45.6 18 55.6 18C76.3 18 93.2 34.9 93.2 55.6C93.2 76.4 76.3 93.3 55.6 93.3ZM55.6 19.5C35.7 19.5 19.5 35.7 19.5 55.6C19.5 75.6 35.7 91.8 55.6 91.8C75.5 91.8 91.7 75.6 91.7 55.6C91.7 35.7 75.5 19.5 55.6 19.5Z" fill="#4178EF"/>
<path fill-rule="evenodd" clip-rule="evenodd" d="M55.6 100.1C43.7 100.1 32.6 95.5 24.2 87.1C15.8 78.7 11.2 67.5 11.2 55.6C11.2 43.8 15.8 32.6 24.2 24.2C32.6 15.8 43.7 11.2 55.6 11.2C67.5 11.2 78.6 15.8 87 24.2C95.4 32.6 100 43.8 100 55.6C100 67.5 95.4 78.7 87 87.1C78.6 95.5 67.5 100.1 55.6 100.1ZM55.6 12.6C31.9 12.6 12.6 31.9 12.6 55.6C12.6 79.4 31.9 98.7 55.6 98.7C79.3 98.7 98.6 79.4 98.6 55.6C98.6 31.9 79.3 12.6 55.6 12.6Z" fill="#4178EF"/>
</svg>
