<svg width="112" height="112" viewBox="0 0 112 112" fill="none" xmlns="http://www.w3.org/2000/svg">
<path fill-rule="evenodd" clip-rule="evenodd" d="M76.7 85.5H23.1C22.7 85.5 22.4 85.2 22.4 84.8V17.8C22.4 17.4 22.7 17.1 23.1 17.1H63C63.2 17.1 63.4 17.1667 63.6 17.3L77.2 30.9C77.3333 31.1 77.4 31.3 77.4 31.5V51.2C77.4 51.3333 77.3667 51.4333 77.3 51.5L72.6 59.6L71.5 70L76.2 66.5C76.5 66.4 76.8 66.3 77 66.5C77.2 66.6 77.4 66.8 77.4 67.1V84.8C77.4 85.2 77.1 85.5 76.7 85.5V85.5ZM23.9 84.1H75.9V68.6L71 72.1C70.8 72.3 70.5 72.3 70.2 72.2C70 72 69.9 71.7 69.9 71.5L70.7 64.2L71.2 59.3C71.2 59.2333 71.2334 59.1333 71.3 59L75.9 51V31.8L62.7 18.6H23.9V84.1Z" fill="#4178EF"/>
<path d="M65.9 41.2H30.9C30.5 41.2 30.2 40.9 30.2 40.5C30.2 40.1 30.5 39.8 30.9 39.8H65.9C66.3 39.8 66.7 40.1 66.7 40.5C66.7 40.9 66.3 41.2 65.9 41.2Z" fill="#4178EF"/>
<path d="M65.9 52.1H30.9C30.5 52.1 30.2 51.7 30.2 51.3C30.2 50.9 30.5 50.6 30.9 50.6H65.9C66.3 50.6 66.7 50.9 66.7 51.3C66.7 51.7 66.3 52.1 65.9 52.1Z" fill="#4178EF"/>
<path d="M65.9 62.9H30.9C30.5 62.9 30.2 62.5 30.2 62.1C30.2 61.7 30.5 61.4 30.9 61.4H65.9C66.3 61.4 66.7 61.7 66.7 62.1C66.7 62.5 66.3 62.9 65.9 62.9Z" fill="#4178EF"/>
<path d="M65.9 73.7H30.9C30.5 73.7 30.2 73.4 30.2 72.9C30.2 72.5 30.5 72.2 30.9 72.2H65.9C66.3 72.2 66.7 72.5 66.7 72.9C66.7 73.4 66.3 73.7 65.9 73.7Z" fill="#4178EF"/>
<path fill-rule="evenodd" clip-rule="evenodd" d="M76.7 32.4H63C62.6 32.4 62.3 32.1 62.3 31.7V17.8C62.3 17.5 62.5 17.3 62.8 17.2C63 17 63.4 17.1 63.6 17.3L77.2 30.9C77.3333 31.1 77.4 31.3 77.4 31.5V31.7C77.4 32.1 77.1 32.4 76.7 32.4V32.4ZM63.8 31H75.1L63.8 19.6001V31Z" fill="#4178EF"/>
<path fill-rule="evenodd" clip-rule="evenodd" d="M65.4 94.1H11.9C11.5 94.1 11.2 93.8 11.2 93.4V26.4C11.2 26 11.5 25.7 11.9 25.7H23.1C23.5 25.7 23.9 26 23.9 26.4V84.1H65.4C65.8 84.1 66.2 84.4 66.2 84.8V93.4C66.2 93.8 65.8 94.1 65.4 94.1V94.1ZM12.6 92.6H64.7V85.5H23.1C22.7 85.5 22.4 85.2 22.4 84.8V27.1H12.6V92.6Z" fill="#4178EF"/>
<path d="M50.8 32.9H30.9C30.5 32.9 30.2 32.5 30.2 32.1C30.2 31.7 30.5 31.4 30.9 31.4H50.8C51.2 31.4 51.5 31.7 51.5 32.1C51.5 32.5 51.2 32.9 50.8 32.9Z" fill="#4178EF"/>
<path d="M50.8 24.5H30.9C30.5 24.5 30.2 24.1 30.2 23.7C30.2 23.3 30.5 23 30.9 23H50.8C51.2 23 51.5 23.3 51.5 23.7C51.5 24.1 51.2 24.5 50.8 24.5Z" fill="#4178EF"/>
<path fill-rule="evenodd" clip-rule="evenodd" d="M70.6 72.3C70.4667 72.3 70.3333 72.2667 70.2 72.2C70 72 69.9 71.7 69.9 71.5L71.2 59.3C71.2 59.2333 71.2334 59.1333 71.3 59L90.1 26.4C90.2333 26.2 90.4 26.0667 90.6 26C90.8 25.9333 90.9667 25.9667 91.1 26.1L99.7 31C100 31.2 100.1 31.7 99.9 32L81.1 64.7C81.0333 64.7667 80.9667 64.8334 80.9 64.9L71 72.1C70.8667 72.2334 70.7333 72.3 70.6 72.3V72.3ZM72.6 59.6L71.5 70L79.9 63.8L98.3 31.9L91 27.7L72.6 59.6Z" fill="#4178EF"/>
<path fill-rule="evenodd" clip-rule="evenodd" d="M96.7 36.9C96.5667 36.9 96.4667 36.8667 96.4 36.8L87.8 31.8C87.5 31.6 87.3 31.2 87.6 30.8L90.1 26.4C90.2333 26.2 90.4 26.0667 90.6 26C90.8 25.9333 90.9667 25.9667 91.1 26.1L99.7 31C100 31.2 100.1 31.7 99.9 32L97.4 36.5C97.2667 36.7 97.1 36.8 96.9 36.8C96.8333 36.8667 96.7667 36.9 96.7 36.9ZM89.2 30.9L96.5 35.1L98.3 31.9L91 27.7L89.2 30.9Z" fill="#4178EF"/>
<path fill-rule="evenodd" clip-rule="evenodd" d="M70.6 72.3C70.4667 72.3 70.3333 72.2667 70.2 72.2C70 72 69.9 71.7 69.9 71.5L71.2 59.3C71.2 59.1 71.4 58.9 71.6 58.8C71.8 58.6 72.1 58.6 72.3 58.8L80.8 63.7C81 63.8 81.2 64.1 81.2 64.3C81.2 64.5 81.1 64.8 80.9 64.9L71 72.1C70.8667 72.2333 70.7333 72.3 70.6 72.3ZM72.5 60.6L71.5 70L79.1 64.4L72.5 60.6Z" fill="#4178EF"/>
<path fill-rule="evenodd" clip-rule="evenodd" d="M70.6 72.3C70.4667 72.3 70.3333 72.2667 70.2 72.2C70 72 69.9 71.7 69.9 71.5L70.7 64.2C70.7 63.9 70.8 63.7 71 63.6C71.2 63.5 71.5 63.5 71.7 63.6C72.6333 64 73.5333 64.4667 74.4 65C75.2667 65.4667 76.1333 66 77 66.6C77.1 66.8 77.3 67 77.3 67.2C77.3 67.5 77.1 67.7 77 67.8L71 72.1C70.8667 72.2334 70.7333 72.3 70.6 72.3V72.3ZM72 65.3L71.5 70L75.3 67.2C74.7667 66.8667 74.2333 66.5333 73.7 66.2C73.1 65.8667 72.5333 65.5666 72 65.3V65.3Z" fill="#4178EF"/>
</svg>
