<svg width="178" height="178" viewBox="0 0 178 178" fill="none" xmlns="http://www.w3.org/2000/svg">
<path fill-rule="evenodd" clip-rule="evenodd" d="M120.726 32.4529C133.242 48.7871 134.02 74.5964 115.847 87.2537C108.21 92.6277 98.7351 95.0318 89.3306 94.8197C89.8491 109.103 90.3441 123.41 90.8155 137.741C93.3611 130.811 96.5431 124.094 100.715 117.801C104.251 112.285 108.14 105.851 115.423 105.921C115.941 105.874 116.389 105.992 116.766 106.275C140.525 117.871 94.351 141.418 91.7347 149.691C91.6404 150.068 91.499 150.398 91.3105 150.681C91.5462 158.459 91.829 166.237 92.159 174.016C92.2297 176.915 87.7749 176.844 87.6335 174.016C87.3978 166.143 87.1386 158.247 86.8557 150.328C86.7614 150.233 86.6907 150.068 86.6435 149.833C84.0272 141.984 36.8632 119.003 60.9756 106.911C60.9756 106.911 60.9992 106.888 61.0463 106.841C61.282 106.699 61.6355 106.628 62.107 106.628C69.3194 106.487 73.3499 112.78 77.0269 118.296C80.7746 123.74 83.8151 129.468 86.29 135.478C85.8186 121.808 85.3472 108.137 84.8758 94.4662C72.4307 92.9105 60.6928 86.5465 53.9752 75.7278C42.308 56.8481 50.1569 30.8972 70.168 21.2099C87.2093 12.9367 108.422 18.5936 120.726 32.4529V32.4529ZM83.108 139.226C81.7409 135.69 80.1382 132.249 78.2997 128.902C75.4006 123.599 69.7437 111.578 62.6019 111.083C49.9447 118.366 78.0169 136.115 82.4716 138.872C82.7073 139.014 82.9194 139.132 83.108 139.226ZM99.5836 128.549C97.8394 131.99 96.3309 135.478 95.0581 139.014C95.6238 138.637 96.2131 138.283 96.8259 137.953C100.856 135.195 104.887 132.438 108.635 129.256C112.029 126.286 124.05 115.397 114.928 110.376C107.998 110.942 102.341 123.245 99.5836 128.549V128.549ZM117.615 35.5642C107.715 24.5333 92.0176 19.0179 77.5219 23.1898C58.9957 28.4224 48.3184 49.1406 54.8945 67.3132C62.6019 88.5972 90.2498 96.0218 109.554 85.9102C128.363 76.1521 129.706 51.3327 117.615 35.5642V35.5642Z" fill="#ffffff"/>
<path fill-rule="evenodd" clip-rule="evenodd" d="M101.776 39.5239C102.624 40.0896 101.846 41.4331 100.998 40.8674C99.3009 39.7361 97.3917 38.534 95.4825 37.6147C96.1425 42.3288 96.7789 47.0193 97.3917 51.6862C97.5331 51.7333 97.6746 51.8276 97.816 51.969C102.978 54.7267 106.584 60.4543 105.099 66.4647C104.321 69.2224 102.554 71.4144 100.22 72.8994C100.503 74.6907 100.762 76.5056 100.998 78.3441C101.139 79.334 99.6545 79.6876 99.5838 78.7683C99.3009 77.0713 99.0652 75.3742 98.8766 73.6772C96.5432 74.7379 93.8562 75.3035 91.3813 75.0914C89.92 74.95 88.5529 74.62 87.2801 74.1015C87.2094 75.445 87.2801 76.7884 87.2801 78.0612C87.2094 78.9805 85.7245 79.0512 85.7245 78.0612C85.7245 76.5056 85.7245 74.95 85.7952 73.465C81.4818 71.273 78.0877 67.3132 75.5421 63.212C74.9764 62.3635 76.3199 61.5856 76.8856 62.4342C79.1484 66.1111 82.1182 69.6467 85.7952 71.6266C85.8895 64.6498 85.8188 57.6494 85.5831 50.6255C82.0475 50.0598 78.7948 48.787 77.6635 44.9686C76.3907 40.726 79.3605 36.6248 83.0374 34.9277C83.6503 34.692 84.2631 34.5035 84.8759 34.3621C84.7345 31.8165 84.5931 29.4123 84.381 26.9374C84.381 25.9475 85.7952 25.9475 85.9366 26.9374C86.078 29.3416 86.2194 31.7458 86.3609 34.0085C88.8357 33.7964 91.3106 34.2913 93.644 35.2106C93.3141 32.9007 93.0077 30.5672 92.7248 28.2102C92.5834 27.3617 93.9976 26.9374 94.2098 27.8567C94.5397 30.5437 94.8933 33.2071 95.2704 35.847C97.6039 36.9076 99.7959 38.2511 101.776 39.5239V39.5239ZM85.5831 49.2113C85.4416 45.0158 85.2531 40.8203 85.0174 36.6248C78.9362 38.8875 74.5522 45.1101 85.1588 49.0699C85.3002 49.117 85.4416 49.1642 85.5831 49.2113V49.2113ZM98.5938 71.8387C97.7453 65.4276 96.8968 59.0636 96.0482 52.7468C95.3883 52.464 94.7047 52.2047 93.9976 51.969C92.0884 51.3326 89.5428 51.1912 87.2094 50.8376C87.398 58.003 87.4215 65.1919 87.2801 72.4044C89.8964 73.465 92.8662 73.7479 95.9775 72.8994C96.9674 72.6165 97.816 72.1922 98.5938 71.8387ZM97.6746 53.666C98.4288 59.4172 99.2067 65.1447 100.008 70.8487C105.736 66.5354 103.897 57.9087 97.6746 53.666ZM93.8562 36.8369C93.1019 36.5541 92.3241 36.2948 91.5227 36.0591C90.0378 35.7055 88.2701 35.7762 86.573 36.2005C86.8087 40.6789 86.9973 45.1572 87.1387 49.6356C90.0378 50.272 92.8663 50.1305 95.7654 51.0498C95.1526 46.2886 94.5161 41.551 93.8562 36.8369V36.8369Z" fill="#ffffff"/>
<path d="M67.2686 37.8269C56.8034 50.272 59.1369 68.3032 72.4305 77.7784C73.1376 78.3441 72.4305 79.6169 71.6527 79.1219C57.4398 69.0103 54.965 50.1305 66.2079 36.7662C66.8443 35.9884 67.905 37.0491 67.2686 37.8269V37.8269Z" fill="#ffffff"/>
<path d="M85.0879 83.7888C86.0778 84.0717 85.6536 85.4859 84.7343 85.2737C82.9901 84.8495 81.2695 84.4016 79.5724 83.9302C78.6532 83.7181 79.0067 82.2332 79.9967 82.516C81.6937 82.9874 83.3908 83.4117 85.0879 83.7888Z" fill="#ffffff"/>
<path d="M110.968 36.4128C117.191 41.2211 120.797 48.2214 121.292 56.0703C121.292 57.0603 119.878 57.0603 119.736 56.0703C119.312 48.575 115.776 42.0696 109.907 37.4734C109.129 36.837 110.19 35.7764 110.968 36.4128V36.4128Z" fill="#ffffff"/>
<path d="M121.363 64.9091C120.938 66.1819 120.538 67.4311 120.161 68.6567C119.878 69.6467 118.393 69.2931 118.676 68.3032C119.1 67.0304 119.501 65.7812 119.878 64.5555C120.161 63.5656 121.646 63.9191 121.363 64.9091Z" fill="#ffffff"/>
</svg>
