<svg width="112" height="112" viewBox="0 0 112 112" fill="none" xmlns="http://www.w3.org/2000/svg">
<path fill-rule="evenodd" clip-rule="evenodd" d="M79.4 65.5H14.9C12.9 65.5 11.2 63.9 11.2 61.8V30.9C11.2 28.9 12.9 27.3 14.9 27.3H79.4C81.4 27.3 83.1 28.9 83.1 30.9V61.8C83.1 63.9 81.4 65.5 79.4 65.5ZM14.9 28.7C13.7 28.7 12.7 29.7 12.7 30.9V61.8C12.7 63.1 13.7 64.1 14.9 64.1H79.4C80.6 64.1 81.6 63.1 81.6 61.8V30.9C81.6 29.7 80.6 28.7 79.4 28.7H14.9Z" fill="#4178EF"/>
<path fill-rule="evenodd" clip-rule="evenodd" d="M68.2 60.5H26.1C25.7 60.5 25.4 60.1 25.4 59.7C25.4 55.1 21.6 51.3 17 51.3C16.6 51.3 16.3 51 16.3 50.6V42.2C16.3 41.8 16.6 41.4 17 41.4C21.6 41.4 25.4 37.7 25.4 33.1C25.4 32.7 25.7 32.3 26.1 32.3H68.2C68.6 32.3 68.9 32.7 68.9 33.1C68.9 37.7 72.7 41.4 77.3 41.4C77.7 41.4 78 41.8 78 42.2V50.6C78 51 77.7 51.3 77.3 51.3C72.7 51.3 68.9 55.1 68.9 59.7C68.9 60.1 68.6 60.5 68.2 60.5ZM26.8 59H67.5C67.8 54.2 71.7 50.3 76.5 49.9V42.9C71.7 42.5 67.8 38.6 67.5 33.8H26.8C26.4 38.6 22.6 42.5 17.7 42.9V49.9C22.6 50.3 26.4 54.2 26.8 59Z" fill="#4178EF"/>
<path fill-rule="evenodd" clip-rule="evenodd" d="M47.1 54.8C44.1 54.8 41.7 51.1 41.7 46.4C41.7 41.6 44.1 37.9 47.1 37.9C50.2 37.9 52.6 41.6 52.6 46.4C52.6 51.1 50.2 54.8 47.1 54.8ZM47.1 39.4C45 39.4 43.1 42.6 43.1 46.4C43.1 50.2 45 53.4 47.1 53.4C49.3 53.4 51.2 50.2 51.2 46.4C51.2 42.6 49.3 39.4 47.1 39.4Z" fill="#4178EF"/>
<path fill-rule="evenodd" clip-rule="evenodd" d="M87.1 74H22.6C20.6 74 18.9 72.3 18.9 70.3V64.8C18.9 64.4 19.2 64.1 19.7 64.1H79.4C80.6 64.1 81.6 63.1 81.6 61.8V36.4C81.6 36 81.9 35.7 82.3 35.7H87.1C89.1 35.7 90.8 37.4 90.8 39.4V70.3C90.8 72.3 89.1 74 87.1 74ZM20.4 65.5V70.3C20.4 71.5 21.4 72.5 22.6 72.5H87.1C88.3 72.5 89.3 71.5 89.3 70.3V39.4C89.3 38.2 88.3 37.2 87.1 37.2H83.1V61.8C83.1 63.9 81.4 65.5 79.4 65.5H20.4Z" fill="#4178EF"/>
<path fill-rule="evenodd" clip-rule="evenodd" d="M96.4 83.9H31.9C29.9 83.9 28.2 82.3 28.2 80.3V73.3C28.2 72.9 28.6 72.5 29 72.5H87.1C88.3 72.5 89.3 71.5 89.3 70.3V46.4C89.3 46 89.7 45.7 90.1 45.7H96.4C98.4 45.7 100.1 47.3 100.1 49.4V80.3C100.1 82.3 98.4 83.9 96.4 83.9ZM29.7 74V80.3C29.7 81.5 30.7 82.5 31.9 82.5H96.4C97.6 82.5 98.6 81.5 98.6 80.3V49.4C98.6 48.1 97.6 47.1 96.4 47.1H90.8V70.3C90.8 72.3 89.1 74 87.1 74H29.7Z" fill="#4178EF"/>
</svg>
