<svg width="112" height="112" viewBox="0 0 112 112" fill="none" xmlns="http://www.w3.org/2000/svg">
<path fill-rule="evenodd" clip-rule="evenodd" d="M94.2 87.5H43.5C43.1 87.5 42.8 87.1 42.8 86.7V24.6C42.8 24.2 43.1 23.8 43.5 23.8H94.2C97.4 23.8 100 26.4 100 29.6V81.7C100 84.9 97.4 87.5 94.2 87.5ZM44.2 86H94.2C96.6 86 98.6 84.1 98.6 81.7V29.6C98.6 27.2 96.6 25.3 94.2 25.3H44.2V86Z" fill="#4178EF"/>
<path fill-rule="evenodd" clip-rule="evenodd" d="M24.2 87.5H16.9C13.8 87.5 11.2 84.9 11.2 81.7V29.6C11.2 26.4 13.8 23.8 16.9 23.8H24.2C24.7 23.8 25 24.2 25 24.6V86.7C25 87.1 24.7 87.5 24.2 87.5ZM16.9 25.3C14.6 25.3 12.6 27.2 12.6 29.6V81.7C12.6 84.1 14.6 86 16.9 86H23.5V25.3H16.9Z" fill="#4178EF"/>
<path fill-rule="evenodd" clip-rule="evenodd" d="M94.3 48.9H49.5C49.1 48.9 48.7 48.5 48.7 48.1V31.9C48.7 31.5 49.1 31.1 49.5 31.1H94.3C94.7 31.1 95.1 31.5 95.1 31.9V48.1C95.1 48.5 94.7 48.9 94.3 48.9ZM50.2 47.4H93.6V32.6H50.2V47.4Z" fill="#4178EF"/>
<path fill-rule="evenodd" clip-rule="evenodd" d="M59.9 59.4H51.2C50.8 59.4 50.5 59.1 50.5 58.7V53.4C50.5 53 50.8 52.7 51.2 52.7H59.9C60.3 52.7 60.7 53 60.7 53.4V58.7C60.7 59.1 60.3 59.4 59.9 59.4ZM51.9 58H59.2V54.1H51.9V58Z" fill="#4178EF"/>
<path fill-rule="evenodd" clip-rule="evenodd" d="M76.3 59.4H67.5C67.1 59.4 66.8 59.1 66.8 58.7V53.4C66.8 53 67.1 52.7 67.5 52.7H76.3C76.7 52.7 77 53 77 53.4V58.7C77 59.1 76.7 59.4 76.3 59.4ZM68.3 58H75.5V54.1H68.3V58Z" fill="#4178EF"/>
<path fill-rule="evenodd" clip-rule="evenodd" d="M92.6 59.4H83.9C83.5 59.4 83.2 59.1 83.2 58.7V53.4C83.2 53 83.5 52.7 83.9 52.7H92.6C93 52.7 93.3 53 93.3 53.4V58.7C93.3 59.1 93 59.4 92.6 59.4ZM84.6 58H91.9V54.1H84.6V58Z" fill="#4178EF"/>
<path fill-rule="evenodd" clip-rule="evenodd" d="M59.9 69.8H51.2C50.8 69.8 50.5 69.5 50.5 69.1V63.8C50.5 63.4 50.8 63 51.2 63H59.9C60.3 63 60.7 63.4 60.7 63.8V69.1C60.7 69.5 60.3 69.8 59.9 69.8ZM51.9 68.3H59.2V64.5H51.9V68.3Z" fill="#4178EF"/>
<path fill-rule="evenodd" clip-rule="evenodd" d="M76.3 69.8H67.5C67.1 69.8 66.8 69.5 66.8 69.1V63.8C66.8 63.4 67.1 63 67.5 63H76.3C76.7 63 77 63.4 77 63.8V69.1C77 69.5 76.7 69.8 76.3 69.8ZM68.3 68.3H75.5V64.5H68.3V68.3Z" fill="#4178EF"/>
<path fill-rule="evenodd" clip-rule="evenodd" d="M92.6 80.1H83.9C83.5 80.1 83.2 79.8 83.2 79.4V63.8C83.2 63.4 83.5 63 83.9 63H92.6C93 63 93.3 63.4 93.3 63.8V79.4C93.3 79.8 93 80.1 92.6 80.1ZM84.6 78.7H91.9V64.5H84.6V78.7Z" fill="#4178EF"/>
<path fill-rule="evenodd" clip-rule="evenodd" d="M59.9 80.1H51.2C50.8 80.1 50.5 79.8 50.5 79.4V74.1C50.5 73.7 50.8 73.4 51.2 73.4H59.9C60.3 73.4 60.7 73.7 60.7 74.1V79.4C60.7 79.8 60.3 80.1 59.9 80.1ZM51.9 78.7H59.2V74.9H51.9V78.7Z" fill="#4178EF"/>
<path fill-rule="evenodd" clip-rule="evenodd" d="M76.3 80.1H67.5C67.1 80.1 66.8 79.8 66.8 79.4V74.1C66.8 73.7 67.1 73.4 67.5 73.4H76.3C76.7 73.4 77 73.7 77 74.1V79.4C77 79.8 76.7 80.1 76.3 80.1ZM68.3 78.7H75.5V74.9H68.3V78.7Z" fill="#4178EF"/>
<path fill-rule="evenodd" clip-rule="evenodd" d="M39.5 95.4H28.3C25.6 95.4 23.5 93.2 23.5 90.6V20.7C23.5 18.1 25.6 15.9 28.3 15.9H39.5C42.1 15.9 44.2 18.1 44.2 20.7V90.6C44.2 93.2 42.1 95.4 39.5 95.4ZM28.3 17.4C26.5 17.4 25 18.9 25 20.7V90.6C25 92.4 26.5 93.9 28.3 93.9H39.5C41.3 93.9 42.8 92.4 42.8 90.6V20.7C42.8 18.9 41.3 17.4 39.5 17.4H28.3Z" fill="#4178EF"/>
<path d="M30.3 75.3C29.9 75.3 29.5 75 29.5 74.6V36.7C29.5 36.3 29.9 36 30.3 36C30.7 36 31 36.3 31 36.7V74.6C31 75 30.7 75.3 30.3 75.3Z" fill="#4178EF"/>
</svg>
