<svg width="112" height="112" viewBox="0 0 112 112" fill="none" xmlns="http://www.w3.org/2000/svg">
<path fill-rule="evenodd" clip-rule="evenodd" d="M88 97.8H17.6C14.1 97.8 11.2 94.9 11.2 91.4V36C11.2 32.4 14.1 29.6 17.6 29.6H88C91.6 29.6 94.4 32.4 94.4 36V54.8C94.4 55.2 94.1 55.6 93.7 55.6H75.1C70.6 55.6 67 59.2 67 63.7C67 68.1 70.6 71.8 75.1 71.8H93.7C94.1 71.8 94.4 72.1 94.4 72.5V91.4C94.4 94.9 91.6 97.8 88 97.8ZM17.6 31C14.9 31 12.7 33.2 12.7 36V91.4C12.7 94.1 14.9 96.3 17.6 96.3H88C90.7 96.3 93 94.1 93 91.4V73.2H75.1C69.8 73.2 65.5 69 65.5 63.7C65.5 58.4 69.8 54.1 75.1 54.1H93V36C93 33.2 90.7 31 88 31H17.6Z" fill="#4178EF"/>
<path fill-rule="evenodd" clip-rule="evenodd" d="M99.4 73.2H75.1C69.8 73.2 65.5 69 65.5 63.7C65.5 58.4 69.8 54.1 75.1 54.1H99.4C99.8 54.1 100.1 54.4 100.1 54.8V72.5C100.1 72.9 99.8 73.2 99.4 73.2ZM75.1 55.6C70.6 55.6 67 59.2 67 63.7C67 68.1 70.6 71.8 75.1 71.8H98.6V55.6H75.1Z" fill="#4178EF"/>
<path fill-rule="evenodd" clip-rule="evenodd" d="M77.7 68.6C75 68.6 72.8 66.4 72.8 63.7C72.8 61 75 58.8 77.7 58.8C80.4 58.8 82.5 61 82.5 63.7C82.5 66.4 80.4 68.6 77.7 68.6ZM77.7 60.3C75.8 60.3 74.3 61.8 74.3 63.7C74.3 65.6 75.8 67.1 77.7 67.1C79.6 67.1 81.1 65.6 81.1 63.7C81.1 61.8 79.6 60.3 77.7 60.3Z" fill="#4178EF"/>
<path fill-rule="evenodd" clip-rule="evenodd" d="M28.8 97.9C28.4 97.9 28 97.8667 27.6 97.8C27.2 97.7 27 97.4 27 97C27.1 96.6 27.4 96.3 27.7 96.3H29.9C30.3 96.3 30.6 96.6 30.6 97C30.6 97.4 30.4 97.7 30 97.8C29.6 97.8667 29.2 97.9 28.8 97.9ZM91.5 32.2C91.3667 32.2 91.2334 32.1667 91.1 32.1C90.2 31.4 89.1 31 88 31H21.2C20.8 31 20.5 30.7 20.4 30.4C20.4 30 20.6 29.7 21 29.6L80.8 13.5C81.3333 13.3667 81.9 13.3 82.5 13.3C85.4 13.3 87.9 15.3 88.7 18.1L92.2 31.2C92.2 31.3333 92.2 31.4333 92.2 31.5C92.2 31.9 91.9 32.2 91.5 32.2ZM26.7 29.6H88C88.8667 29.6 89.6667 29.7333 90.4 30L87.3 18.4C86.7 16.3 84.7 14.8 82.5 14.8C82.0333 14.8 81.6 14.8333 81.2 14.9L26.7 29.6Z" fill="#4178EF"/>
<path d="M30.1 39.9H21.4C21 39.9 20.7 39.5 20.7 39.1C20.7 38.7 21 38.4 21.4 38.4H30.1C30.5 38.4 30.9 38.7 30.9 39.1C30.9 39.5 30.5 39.9 30.1 39.9Z" fill="#4178EF"/>
<path d="M43.7 39.9H34.9C34.5 39.9 34.2 39.5 34.2 39.1C34.2 38.7 34.5 38.4 34.9 38.4H43.7C44.1 38.4 44.4 38.7 44.4 39.1C44.4 39.5 44.1 39.9 43.7 39.9Z" fill="#4178EF"/>
<path d="M57.2 39.9H48.5C48 39.9 47.7 39.5 47.7 39.1C47.7 38.7 48 38.4 48.5 38.4H57.2C57.6 38.4 57.9 38.7 57.9 39.1C57.9 39.5 57.6 39.9 57.2 39.9Z" fill="#4178EF"/>
<path d="M70.7 39.9H62C61.6 39.9 61.2 39.5 61.2 39.1C61.2 38.7 61.6 38.4 62 38.4H70.7C71.1 38.4 71.4 38.7 71.4 39.1C71.4 39.5 71.1 39.9 70.7 39.9Z" fill="#4178EF"/>
<path d="M84.2 39.9H75.5C75.1 39.9 74.8 39.5 74.8 39.1C74.8 38.7 75.1 38.4 75.5 38.4H84.2C84.6 38.4 84.9 38.7 84.9 39.1C84.9 39.5 84.6 39.9 84.2 39.9Z" fill="#4178EF"/>
<path d="M30.1 89H21.4C21 89 20.7 88.6 20.7 88.2C20.7 87.8 21 87.5 21.4 87.5H30.1C30.5 87.5 30.9 87.8 30.9 88.2C30.9 88.6 30.5 89 30.1 89Z" fill="#4178EF"/>
<path d="M43.7 89H34.9C34.5 89 34.2 88.6 34.2 88.2C34.2 87.8 34.5 87.5 34.9 87.5H43.7C44.1 87.5 44.4 87.8 44.4 88.2C44.4 88.6 44.1 89 43.7 89Z" fill="#4178EF"/>
<path d="M57.2 89H48.5C48 89 47.7 88.6 47.7 88.2C47.7 87.8 48 87.5 48.5 87.5H57.2C57.6 87.5 57.9 87.8 57.9 88.2C57.9 88.6 57.6 89 57.2 89Z" fill="#4178EF"/>
<path d="M70.7 89H62C61.6 89 61.2 88.6 61.2 88.2C61.2 87.8 61.6 87.5 62 87.5H70.7C71.1 87.5 71.4 87.8 71.4 88.2C71.4 88.6 71.1 89 70.7 89Z" fill="#4178EF"/>
<path d="M84.2 89H75.5C75.1 89 74.8 88.6 74.8 88.2C74.8 87.8 75.1 87.5 75.5 87.5H84.2C84.6 87.5 84.9 87.8 84.9 88.2C84.9 88.6 84.6 89 84.2 89Z" fill="#4178EF"/>
<path fill-rule="evenodd" clip-rule="evenodd" d="M93.7 81.7H11.9C11.5 81.7 11.2 81.4 11.2 81V46.4C11.2 46 11.5 45.7 11.9 45.7H93.7C94.1 45.7 94.4 46 94.4 46.4V54.8C94.4 55.2 94.1 55.6 93.7 55.6H75.1C70.6 55.6 67 59.2 67 63.7C67 68.1 70.6 71.8 75.1 71.8H93.7C94.1 71.8 94.4 72.1 94.4 72.5V81C94.4 81.4 94.1 81.7 93.7 81.7ZM12.7 80.2H93V73.2H75.1C69.8 73.2 65.5 69 65.5 63.7C65.5 58.4 69.8 54.1 75.1 54.1H93V47.1H12.7V80.2Z" fill="#4178EF"/>
</svg>
