<svg width="190" height="163" fill="none" xmlns="http://www.w3.org/2000/svg"><path fill-rule="evenodd" clip-rule="evenodd" d="M188.648 108.6c-22.3 22.3-49.3 39.5-77.5 53.2-.4.2-.8.3-1.2.3-.333 0-.666-.1-1-.3-28.8-13.4-54.2-32.7-73.1-58.3C16.548 77.1 5.548 46 .048 14v-.5c-.2-1 .2-2 1.6-2.2 23.2-3.2 46.3-8 69.6-11.3h.4c.9 0 1.9.4 2.3 1.6 8.4 25.8 21.7 50.1 41.8 68.6 20.1 18.6 45.3 29.5 71.9 34.6 1.1.3 1.6 1 1.6 1.9.1.6 0 1.3-.6 1.9Zm-78.6 48.9c26.2-13 51.3-28.8 72.5-49.2-25.9-5.6-50.3-16.8-69.9-34.9-20.2-18.7-33.7-42.9-42.4-68.8-21.9 3.1-43.6 7.6-65.5 10.7 5.5 29.9 15.7 58.9 33.4 83.8 18.3 25.7 43.5 44.9 71.9 58.4Z" fill="#4178EF"/><path fill-rule="evenodd" clip-rule="evenodd" d="M102.848 77.1c5.9 13.3 3.8 29.1-9.5 36.6h-.1c-.066 0-.1.033-.1.1-17.3 6.7-40.8-5.3-47.7-22.2-6.4-15.6 2.6-33.8 19.8-36.2 15.3-2 31.5 7.9 37.6 21.7Zm-31.9-20.2c-20.8-1-32.5 20.9-21.8 38.3 8.2 13.5 28.3 22.8 43.4 17 27.7-15.6 3.4-54-21.6-55.3ZM36.949 32.8c-1-4.6.1-10.1 4.8-12.2 6.5-2.8 13.2 3.1 15.8 8.6v.1l.1.1c2 5.9-.7 12.9-7.4 13.4-6.2.5-11.9-4.2-13.3-10Zm9.8 8c7 1.9 11.5-4.5 9.3-10.8-2.2-4.6-7.6-9.9-13.1-8.1-4 1.4-5.2 5.9-4.5 9.7.7 4.4 3.9 7.9 8.3 9.2Zm66.199 82.4c-.9-5.4 2.7-10.9 8.4-11 5.5-.1 11.6 3.7 13.7 8.8 2.2 5.5-1.8 9.3-6.6 11.1-6.5 1.9-14.2-1.9-15.5-8.9Zm1.7 0c1.2 5.8 7.9 8.9 13.3 7.3 4.6-1.7 7.7-5.4 4.9-10.1-2-3.4-5.8-5.8-9.6-6.4-5.6-.8-9.7 3.7-8.6 9.2Z" fill="#4178EF"/><path d="M28.848 61.5c.5.9-.9 1.7-1.4.8-6.9-12.1-12-24.9-15.3-38.5-.3-1 1.3-1.5 1.6-.4 3.3 13.4 8.3 26.1 15.1 38.1Zm.7-15.1c.6.9-.9 1.7-1.5.8-3.7-5.4-5.9-11.5-6.8-18-.1-1.1 1.6-1.1 1.7 0 .8 6.2 3.1 12 6.6 17.2Zm74.7 102.2a134.074 134.074 0 0 1-32.9-24c-.8-.7.4-1.9 1.1-1.1 9.7 9.5 20.6 17.4 32.7 23.6.9.5.1 2-.9 1.5Zm-3.1-9.3c-5-2-9.4-4.9-13.2-8.8-.8-.7.4-1.9 1.2-1.1 3.5 3.6 7.7 6.4 12.4 8.3 1 .4.5 2-.4 1.6Zm24.5-44.3c-.9-.6 0-2.1.9-1.5 10.7 7.3 22.2 12.8 34.6 16.4 1.1.3.6 1.9-.4 1.6-12.6-3.667-24.3-9.167-35.1-16.5Zm-60.5-81.1c-.3-1 1.3-1.4 1.6-.4 2.9 9.4 7.6 17.8 14.2 25.1.8.8-.4 2-1.1 1.2-6.8-7.5-11.7-16.2-14.7-25.9Z" fill="#4178EF"/><path fill-rule="evenodd" clip-rule="evenodd" d="m92.348 74.3-2.2.6c1.1 1.4 2.2 2.9 3.1 4.5l3.8-1.8c1-.5 1.8 1 .9 1.4-1.333.667-2.633 1.3-3.9 1.9 1.7 3.2 3 6.3 3.8 8.1.4 1-1.2 1.4-1.6.5-1.1-2.6-2.3-5.3-3.7-7.9-3.8 1.867-7.6 3.7-11.4 5.5.7 1.1 1.4 2.2 1.9 3.4 2.1 4.8 2.2 10.5-3.2 12.9-5.2 2.4-12.2-.2-16.4-3.6-1.066-.867-2-1.8-2.8-2.8a131.833 131.833 0 0 0-4.4 2.1c-.9.4-1.8-1-.8-1.5a236.13 236.13 0 0 0 4.1-2c-1.8-2.7-2.9-5.8-3.2-9-2 .8-4 1.5-5.9 2.3-1 .5-1.5-1.1-.5-1.6 2.1-.8 4.2-1.7 6.3-2.5-.1-2.4.3-4.8.9-7.2.3-1 1.9-.6 1.6.5-.533 2-.8 4-.8 6a378.296 378.296 0 0 1 17.9-6.4c0-2 .6-3.8 2.4-5.4 3.9-3.3 7.6-1.9 10.7 1.3 1-.3 1.9-.6 2.9-.9 1.1-.3 1.5 1.3.5 1.6Zm-14.7 2.7c3.067-1 6.167-1.933 9.3-2.8-.8-.6-1.6-1.1-2.5-1.5-3.933.933-6.2 2.367-6.8 4.3Zm-16.5 17.9a2120.09 2120.09 0 0 1 17.6-8.5c-1.1-2.1-2.4-4.6-2.8-7-6.066 2-12.066 4.167-18 6.5.3 3.3 1.4 6.3 3.2 9Zm18.4-7c-5.8 2.733-11.566 5.5-17.3 8.3 1.5 1.8 3.5 3.3 5.8 4.4 2.1 1.1 5.2 2.3 7.7 1.9 11.9-1.9 6.4-10.1 3.8-14.6Zm8.9-12.4a520.456 520.456 0 0 0-10.9 3.3c.1.7.4 1.5.8 2.3.3 1.8 1 3.2 1.9 4.6 3.8-1.867 7.634-3.7 11.5-5.5-.533-.933-1.1-1.8-1.7-2.6-.4-.8-1-1.5-1.6-2.1Z" fill="#4178EF"/></svg>