<svg width="212" height="154" fill="none" xmlns="http://www.w3.org/2000/svg"><path fill-rule="evenodd" clip-rule="evenodd" d="M211.244 85c-.1.4-.4.8-.9 1.2-24.3 16.9-43.9 39.4-57.2 65.9-.5.9-1.2 1.2-2 1.1-.7.1-1.4-.2-1.9-1.1-16.7-32.9-58.8-26.2-88.8-33.8-26-6.6-47.7-24.6-59.9-48.3-.6-.6-.8-1.5-.1-2.4 17.8-23.6 37.3-45.7 57.9-66.9.5-.5 1.1-.7 1.6-.7.7 0 1.4.3 1.8 1.1 16.9 32.5 48.4 46 83.2 49.8 25.3 2.7 53.5 7 66.2 32.2.4.7.3 1.3.1 1.9Zm-4.9-1.4c-17.3-31.1-57.6-24.8-87.3-32.3-25-6.4-47-22.8-59.7-45.3-19.2 20-37.6 40.8-54.3 62.9 7.5 14.1 18.2 26 31.8 34.5 15.3 9.5 31.8 12.6 49.4 14.5 24 2.6 51.3 6.5 64.9 28.4 13.2-25 32.2-46.2 55.2-62.7Z" fill="#4178EF"/><path fill-rule="evenodd" clip-rule="evenodd" d="M103.144 109.7c-14.5 1.3-29.2-8.9-34.3-22.3-6.2-16.4 6.1-31.6 22.6-33.3 13.6-1.4 34 5.1 41.1 17.4v.1c.067 0 .1.033.1.1 6.7 18.4-11.9 36.4-29.5 38Zm27.9-37.4c-13.3-22.9-71.3-23.1-61.4 12.3 3.6 12.9 17.1 23.4 30.4 23.6 17.5.2 37.6-17.5 31-35.9Z" fill="#4178EF"/><path fill-rule="evenodd" clip-rule="evenodd" d="M114.444 72.8c.4 1-1.3 1.4-1.6.4-.6-1.7-1.7-3-3-4-1.6 3.133-3.2 6.3-4.8 9.5 1 .2 2 .5 2.8 1.1 3.3 2.4 3.4 6.7 1.1 9.8-2.6 3.6-7 4.7-11.5 4.1l-2.8 5.6c-.5.9-2 .1-1.5-.9l2.6-5c-2.1-.5-4.1-1.2-5.9-2.3-.6 1.3-1.3 2.6-1.9 3.9-.4 1-1.9.2-1.4-.8.6-1.3 1.2-2.6 1.9-3.9-3.3-2.1-5.8-5-6.7-8.1-.3-1 1.3-1.4 1.6-.4.9 3.1 3.1 5.4 5.7 7.1a229.995 229.995 0 0 1 5.9-11.4c-1.7-1.2-2.9-3-2.4-5.6.8-4.8 5-6.7 9.5-6.5.466-.667.9-1.367 1.3-2.1.6-.9 2.1-.1 1.5.8a42.36 42.36 0 0 0-.9 1.5c1.7.3 3.5.8 5 1.6a51.018 51.018 0 0 0 1.7-3.3c.5-.9 1.9-.1 1.5.9a50.966 50.966 0 0 0-1.7 3.3c1.8 1.2 3.3 2.8 4 4.7Zm-18.1 2.3a290.33 290.33 0 0 1 4.5-7.7c-.667.067-1.3.167-1.9.3-2 3.2-2.9 5.7-2.6 7.4Zm.3 16.5c2-4 4-7.967 6-11.9-1.2-.2-2.5-.2-3.5-.4s-1.9-.5-2.7-.9a260.365 260.365 0 0 0-5.9 11.3c1.9.9 4 1.6 6.1 1.9Zm7.6-11.3c-1.934 3.8-3.867 7.633-5.8 11.5h2.3c6.8-.133 7.966-3.967 3.5-11.5Zm4.2-11.9c-1.7-.8-3.6-1.2-5.5-1.2a329.847 329.847 0 0 0-5.7 9.6c.533.467 1.3.767 2.3.9 1.2.4 2.5.5 3.8.7a692.878 692.878 0 0 1 5.1-10Z" fill="#4178EF"/><path d="M56.144 98.7c-16.4-6.1-29.9-16.7-39.6-31.2-.6-.9.8-1.7 1.4-.8 9.5 14.1 22.7 24.5 38.6 30.3 1 .4.6 2-.4 1.7ZM25.344 68c-.7-.8.8-1.7 1.4-.8 5.6 7.2 13.1 12.6 21.8 15.5 1 .4.6 2-.4 1.7-9.2-3.2-16.9-8.7-22.8-16.4Zm56.1-25.7c-10.4-4.8-18.9-12.4-24.9-22.2-.6-.9.9-1.8 1.4-.8 5.9 9.5 14.2 16.9 24.3 21.6 1 .4.1 1.9-.8 1.4Zm114.8 35.9c-12.667-7.8-26.467-11.9-41.4-12.3-1.1 0-1.1-1.7 0-1.7 15.2.4 29.3 4.6 42.2 12.6.9.5.1 2-.8 1.4Zm-15.7 2.9c-5.3-3.3-11-5.7-17.2-7.1-1-.3-.6-1.9.5-1.6a53.895 53.895 0 0 1 17.5 7.3c.9.6.1 2-.8 1.4Zm-30.5 44.9c.9.7.1 2.1-.8 1.5-8.7-6.1-18.4-9.9-29-11.3-1.1-.1-1.1-1.8 0-1.7 10.9 1.4 20.9 5.2 29.8 11.5Zm-16.1-13.5c5.1.6 9.7 2.4 13.8 5.4.9.7 0 2.1-.8 1.5-3.9-2.9-8.2-4.7-13-5.2-1.1-.2-1.1-1.8 0-1.7Z" fill="#4178EF"/><path fill-rule="evenodd" clip-rule="evenodd" d="M163.844 88.5c2.4 5.9-.7 13.4-7.1 14.9-5.9 1.3-12.3-2.6-13.2-8.6-1.7-11.1 15.1-16.3 20.2-6.5 0 .067.033.1.1.1v.1Zm-1.6.6c-3.9-7.4-16.3-4.8-17.1 3.6-.6 5.3 4.5 9.4 9.5 9.3 6.5-.2 9.8-7.3 7.6-12.9Zm-102.5-45.4c3.8 4.1 3.5 11.2-.5 15-4.1 3.8-11.1 3.7-15.1-.3-4-4.1-3.7-10.9.1-15 .067-.133.167-.2.3-.2 0-.133.067-.233.2-.3 4.4-3.5 11.1-3.5 15 .8Zm-1.1 1.2c-3.2-3.6-9.1-3.8-12.7-.9-.133.133-.267.2-.4.2 0 .133-.067.267-.2.4-3.1 3.4-3.3 9.2 0 12.6 3.3 3.4 9.3 3.5 12.7.3 3.4-3.2 3.7-9.2.6-12.6Z" fill="#4178EF"/></svg>