<svg width="156" height="108" fill="none" xmlns="http://www.w3.org/2000/svg"><path fill-rule="evenodd" clip-rule="evenodd" d="M153.866 79.291c0 .1-.1.2-.1.3-.1.6-.4 1.2-1 1.6-46.6 30.8-99.8 33.6-151.2 13.5-.9-.3-1.3-1-1.5-1.7-.1-.5-.1-1 .1-1.6 7.7-17.8 14.2-36.1 21.9-53.9.5-1.1 1.4-1.3 2.3-1h.2c45.8 10.7 89.2-.8 121.2-35.8.6-.7 1.5-.8 2.2-.6.7.2 1.3.7 1.5 1.6 6.1 25.3 6.8 51.7 4.4 77.6Zm-4.3-1.3c2-23.7 1.6-47.9-3.5-71.2-32.3 33.4-75.5 44.4-120.8 34.4-7 16.6-13.2 33.5-20.2 50.1 49.3 18.6 99.7 15.8 144.5-13.3Z" fill="#4178EF"/><path fill-rule="evenodd" clip-rule="evenodd" d="M111.965 71.49c-2.6 14.6-20 25.7-34.4 24.4-14-1.2-24.4-14.7-19.5-28.5 8.6-24.2 54.6-26.1 53.9 3.8v.3Zm-1.6-.4c.5-25.6-34.7-25-47-9.5-12.3 15.7 1.8 35.3 20.5 32.3 11.6-1.9 24.3-10.6 26.5-22.8Zm-85.9-5.2c1.9-4.6 8-6.2 12.5-5.7h.2c5.4 1.2 9.2 6.7 6 11.8-2.8 4.4-8.4 6.1-13.1 4.3-4.3-1.6-7.4-5.8-5.6-10.4Zm4.7 8.1c3.4 2 7.3 1.7 10.4-.6 5-3.8 3.1-10.2-2.8-11.6-3.1-.3-7.3.4-9.5 2.9-3 3.1-1.5 7.3 1.9 9.3Zm97.401-12.499c-5.2-2.4-6.3-8.5-2.4-12.6 2.7-2.9 7.3-5 11.4-3.9 4.5 1.1 5.2 5.4 4.5 9.4-1.5 5.6-7.9 9.5-13.5 7.1Zm11.9-7.5c.5-3.1.2-6.6-3.4-7.4-2.6-.7-5.5.3-7.7 1.7-3.6 2.5-5.7 7.3-1.8 10.6 4.6 3.9 11.4.4 12.9-4.9Z" fill="#4178EF"/><path d="M47.366 95.891c-11.5-.4-22.7-2.3-33.7-5.7-1-.4-.6-2 .4-1.7 10.9 3.5 21.9 5.4 33.3 5.7 1.1 0 1.1 1.7 0 1.7Zm-25.2-11.3c4.7 2 9.7 2.9 14.9 2.7 1.1-.1 1.1 1.6 0 1.6-5.5.3-10.7-.7-15.7-2.9-1-.4-.2-1.9.8-1.4Zm119.1-6c-9.667 5.933-20.034 10.267-31.1 13-1 .3-1.4-1.3-.4-1.6 10.9-2.7 21.1-7 30.7-12.8.9-.6 1.7.8.8 1.4Zm-8-1.6c-3.534 2.6-7.467 4.4-11.8 5.4-1 .3-1.5-1.3-.4-1.6 4.133-1 7.9-2.767 11.3-5.3.9-.6 1.7.8.9 1.5Zm-21.501-37.9a99.658 99.658 0 0 0 26.401-17.4c.8-.7 2 .4 1.2 1.2-8 7.3-16.9 13.2-26.8 17.6-.9.5-1.801-1-.801-1.4Zm-57.699 10.2c-8.267 1.533-16.5 1.267-24.7-.8-1-.3-.6-1.9.5-1.6 7.9 2 15.7 2.3 23.7.8 1.1-.2 1.5 1.4.5 1.6Z" fill="#4178EF"/></svg>