<svg width="195" height="35" viewBox="0 0 195 35" fill="none" xmlns="http://www.w3.org/2000/svg">
<path d="M24.6104 0V6.54331L0 21.9518V15.4084L24.6104 0Z" fill="#4178EF"/>
<path d="M24.6104 13.0482V19.5915L0 35V28.4567L24.6104 13.0482Z" fill="#4178EF"/>
<path d="M35 0V6.54331L10.3896 21.9518V15.4084L35 0Z" fill="#CBD5D7"/>
<path d="M35 13.0482V19.5915L10.3896 35V28.4567L35 13.0482Z" fill="#CBD5D7"/>
<path d="M51.2017 24V5.81818H62.1747V7.77131H53.4034V13.4531H58.0199C59.322 13.4531 60.4199 13.6662 61.3136 14.0923C62.2132 14.5185 62.8938 15.1192 63.3555 15.8945C63.823 16.6699 64.0568 17.5843 64.0568 18.6378C64.0568 19.6913 63.823 20.6205 63.3555 21.4254C62.8938 22.2304 62.2132 22.8607 61.3136 23.3164C60.4199 23.7721 59.322 24 58.0199 24H51.2017ZM53.4034 22.0824H58.0199C58.8485 22.0824 59.5498 21.9167 60.1239 21.5852C60.704 21.2479 61.1419 20.8158 61.4379 20.2891C61.7397 19.7564 61.8906 19.1941 61.8906 18.6023C61.8906 17.7322 61.5562 16.9835 60.8874 16.3562C60.2186 15.7229 59.2628 15.4062 58.0199 15.4062H53.4034V22.0824ZM71.4099 24.3196C70.5458 24.3196 69.7616 24.1568 69.0573 23.8313C68.353 23.4999 67.7936 23.0234 67.3794 22.402C66.9651 21.7746 66.7579 21.017 66.7579 20.1293C66.7579 19.348 66.9118 18.7147 67.2195 18.2294C67.5273 17.7382 67.9387 17.3535 68.4536 17.0753C68.9685 16.7971 69.5367 16.59 70.1581 16.4538C70.7855 16.3118 71.4158 16.1993 72.0491 16.1165C72.8777 16.0099 73.5494 15.93 74.0644 15.8768C74.5852 15.8176 74.964 15.7199 75.2007 15.5838C75.4434 15.4477 75.5647 15.2109 75.5647 14.8736V14.8026C75.5647 13.9266 75.325 13.246 74.8456 12.7607C74.3721 12.2753 73.653 12.0327 72.6883 12.0327C71.6881 12.0327 70.9039 12.2517 70.3357 12.6896C69.7675 13.1276 69.368 13.5952 69.1372 14.0923L67.1485 13.3821C67.5036 12.5535 67.9771 11.9084 68.569 11.4467C69.1668 10.9792 69.8178 10.6536 70.5221 10.4702C71.2323 10.2808 71.9307 10.1861 72.6173 10.1861C73.0552 10.1861 73.5583 10.2393 74.1265 10.3459C74.7006 10.4465 75.254 10.6566 75.7867 10.9762C76.3253 11.2958 76.7721 11.7782 77.1272 12.4233C77.4823 13.0684 77.6599 13.9325 77.6599 15.0156V24H75.5647V22.1534H75.4582C75.3161 22.4493 75.0794 22.766 74.748 23.1033C74.4165 23.4407 73.9756 23.7277 73.4252 23.9645C72.8747 24.2012 72.203 24.3196 71.4099 24.3196ZM71.7295 22.4375C72.5581 22.4375 73.2565 22.2747 73.8247 21.9492C74.3988 21.6237 74.8308 21.2035 75.1208 20.6886C75.4168 20.1737 75.5647 19.6321 75.5647 19.0639V17.1463C75.4759 17.2528 75.2806 17.3505 74.9788 17.4393C74.6829 17.5221 74.3396 17.5961 73.949 17.6612C73.5642 17.7204 73.1884 17.7737 72.8215 17.821C72.4604 17.8625 72.1675 17.898 71.9426 17.9276C71.3981 17.9986 70.8891 18.114 70.4156 18.2738C69.948 18.4277 69.5692 18.6615 69.2792 18.9751C68.9951 19.2829 68.8531 19.7031 68.8531 20.2358C68.8531 20.9638 69.1224 21.5142 69.661 21.8871C70.2055 22.254 70.895 22.4375 71.7295 22.4375ZM90.6104 16.223V18.1761H83.082V16.223H90.6104ZM83.5792 10.3636V24H81.484V10.3636H83.5792ZM92.2085 10.3636V24H90.1133V10.3636H92.2085ZM96.0348 24V10.3636H98.13V16.294H99.5149L104.415 10.3636H107.114L101.61 16.9332L107.185 24H104.487L100.012 18.2472H98.13V24H96.0348ZM111.558 20.9105L118.127 10.3636H120.542V24H118.447V13.4531L111.913 24H109.463V10.3636H111.558V20.9105ZM124.38 29.1136V10.3636H126.404V12.5298H126.652C126.806 12.2931 127.019 11.9912 127.291 11.6243C127.57 11.2514 127.966 10.92 128.481 10.63C129.002 10.334 129.706 10.1861 130.594 10.1861C131.742 10.1861 132.754 10.4731 133.63 11.0472C134.506 11.6213 135.19 12.4351 135.681 13.4886C136.172 14.5421 136.418 15.785 136.418 17.2173C136.418 18.6615 136.172 19.9132 135.681 20.9727C135.19 22.0262 134.509 22.8429 133.639 23.4229C132.769 23.997 131.766 24.2841 130.63 24.2841C129.754 24.2841 129.052 24.1391 128.525 23.8491C127.999 23.5531 127.593 23.2187 127.309 22.8459C127.025 22.4671 126.806 22.1534 126.652 21.9048H126.475V29.1136H124.38ZM126.439 17.1818C126.439 18.2116 126.59 19.1201 126.892 19.9073C127.194 20.6886 127.635 21.3011 128.215 21.745C128.795 22.183 129.505 22.402 130.345 22.402C131.221 22.402 131.952 22.1712 132.538 21.7095C133.13 21.242 133.574 20.6146 133.87 19.8274C134.172 19.0343 134.323 18.1525 134.323 17.1818C134.323 16.223 134.175 15.3589 133.879 14.5895C133.589 13.8142 133.148 13.2016 132.556 12.7518C131.97 12.296 131.233 12.0682 130.345 12.0682C129.493 12.0682 128.777 12.2842 128.197 12.7163C127.617 13.1424 127.179 13.7402 126.883 14.5096C126.587 15.2731 126.439 16.1638 126.439 17.1818ZM145.154 24.2841C143.923 24.2841 142.842 23.9911 141.913 23.4052C140.99 22.8192 140.268 21.9995 139.747 20.946C139.232 19.8925 138.975 18.6615 138.975 17.2528C138.975 15.8324 139.232 14.5924 139.747 13.533C140.268 12.4736 140.99 11.6509 141.913 11.065C142.842 10.479 143.923 10.1861 145.154 10.1861C146.385 10.1861 147.462 10.479 148.385 11.065C149.314 11.6509 150.036 12.4736 150.551 13.533C151.072 14.5924 151.333 15.8324 151.333 17.2528C151.333 18.6615 151.072 19.8925 150.551 20.946C150.036 21.9995 149.314 22.8192 148.385 23.4052C147.462 23.9911 146.385 24.2841 145.154 24.2841ZM145.154 22.402C146.089 22.402 146.858 22.1623 147.462 21.6829C148.066 21.2035 148.512 20.5732 148.802 19.7919C149.092 19.0107 149.237 18.1643 149.237 17.2528C149.237 16.3414 149.092 15.4921 148.802 14.7049C148.512 13.9177 148.066 13.2815 147.462 12.7962C146.858 12.3108 146.089 12.0682 145.154 12.0682C144.219 12.0682 143.449 12.3108 142.845 12.7962C142.242 13.2815 141.795 13.9177 141.505 14.7049C141.215 15.4921 141.07 16.3414 141.07 17.2528C141.07 18.1643 141.215 19.0107 141.505 19.7919C141.795 20.5732 142.242 21.2035 142.845 21.6829C143.449 22.1623 144.219 22.402 145.154 22.402ZM160.071 28.652V5.81818H162.166V28.652H160.071ZM160.071 24.2841C159.147 24.2841 158.307 24.1184 157.549 23.7869C156.792 23.4496 156.141 22.9731 155.596 22.3576C155.052 21.7362 154.632 20.9934 154.336 20.1293C154.04 19.2652 153.892 18.3063 153.892 17.2528C153.892 16.1875 154.04 15.2228 154.336 14.3587C154.632 13.4886 155.052 12.7429 155.596 12.1214C156.141 11.5 156.792 11.0236 157.549 10.6921C158.307 10.3548 159.147 10.1861 160.071 10.1861H160.71V24.2841H160.071ZM160.071 22.402H160.426V12.0682H160.071C159.372 12.0682 158.766 12.2102 158.251 12.4943C157.736 12.7725 157.31 13.1542 156.972 13.6396C156.641 14.119 156.392 14.6694 156.227 15.2908C156.067 15.9123 155.987 16.5663 155.987 17.2528C155.987 18.1643 156.132 19.0107 156.422 19.7919C156.712 20.5732 157.159 21.2035 157.762 21.6829C158.366 22.1623 159.136 22.402 160.071 22.402ZM162.166 24.2841H161.527V10.1861H162.166C163.089 10.1861 163.93 10.3548 164.687 10.6921C165.445 11.0236 166.096 11.5 166.64 12.1214C167.185 12.7429 167.605 13.4886 167.901 14.3587C168.197 15.2228 168.345 16.1875 168.345 17.2528C168.345 18.3063 168.197 19.2652 167.901 20.1293C167.605 20.9934 167.185 21.7362 166.64 22.3576C166.096 22.9731 165.445 23.4496 164.687 23.7869C163.93 24.1184 163.089 24.2841 162.166 24.2841ZM162.166 22.402C162.87 22.402 163.477 22.2659 163.986 21.9936C164.501 21.7154 164.924 21.3366 165.255 20.8572C165.593 20.3719 165.841 19.8215 166.001 19.206C166.167 18.5845 166.25 17.9335 166.25 17.2528C166.25 16.3414 166.105 15.4921 165.815 14.7049C165.525 13.9177 165.078 13.2815 164.474 12.7962C163.87 12.3108 163.101 12.0682 162.166 12.0682H161.811V22.402H162.166ZM177.087 28.652V5.81818H179.182V28.652H177.087ZM177.087 24.2841C176.164 24.2841 175.324 24.1184 174.566 23.7869C173.808 23.4496 173.157 22.9731 172.613 22.3576C172.068 21.7362 171.648 20.9934 171.352 20.1293C171.056 19.2652 170.908 18.3063 170.908 17.2528C170.908 16.1875 171.056 15.2228 171.352 14.3587C171.648 13.4886 172.068 12.7429 172.613 12.1214C173.157 11.5 173.808 11.0236 174.566 10.6921C175.324 10.3548 176.164 10.1861 177.087 10.1861H177.726V24.2841H177.087ZM177.087 22.402H177.442V12.0682H177.087C176.389 12.0682 175.782 12.2102 175.267 12.4943C174.752 12.7725 174.326 13.1542 173.989 13.6396C173.657 14.119 173.409 14.6694 173.243 15.2908C173.083 15.9123 173.003 16.5663 173.003 17.2528C173.003 18.1643 173.148 19.0107 173.438 19.7919C173.728 20.5732 174.175 21.2035 174.779 21.6829C175.383 22.1623 176.152 22.402 177.087 22.402ZM179.182 24.2841H178.543V10.1861H179.182C180.106 10.1861 180.946 10.3548 181.704 10.6921C182.461 11.0236 183.112 11.5 183.657 12.1214C184.201 12.7429 184.622 13.4886 184.918 14.3587C185.213 15.2228 185.361 16.1875 185.361 17.2528C185.361 18.3063 185.213 19.2652 184.918 20.1293C184.622 20.9934 184.201 21.7362 183.657 22.3576C183.112 22.9731 182.461 23.4496 181.704 23.7869C180.946 24.1184 180.106 24.2841 179.182 24.2841ZM179.182 22.402C179.887 22.402 180.493 22.2659 181.002 21.9936C181.517 21.7154 181.94 21.3366 182.272 20.8572C182.609 20.3719 182.858 19.8215 183.018 19.206C183.183 18.5845 183.266 17.9335 183.266 17.2528C183.266 16.3414 183.121 15.4921 182.831 14.7049C182.541 13.9177 182.094 13.2815 181.491 12.7962C180.887 12.3108 180.118 12.0682 179.182 12.0682H178.827V22.402H179.182Z" fill="#4178EF"/>
</svg>
