<svg width="139" height="176" viewBox="0 0 139 176" fill="none" xmlns="http://www.w3.org/2000/svg">
<path d="M65.0686 173.67C16.4686 173.67 7.36857 128.47 3.36857 105.17C1.26857 93.0705 2.26857 68.5705 3.36857 56.2705C5.06857 36.4705 11.3686 2.97046 67.8686 2.97046C124.269 2.97046 132.769 40.3704 134.869 61.4704C137.569 88.2704 136.569 173.67 136.569 173.67C136.569 173.67 113.669 173.67 65.0686 173.67Z" fill="#FAFCFB" stroke="#4178EF" stroke-width="4"/>
<path d="M60.8685 46.1705C60.8685 57.9705 51.2685 67.5705 39.4685 67.5705C27.6685 67.5705 18.0685 57.9705 18.0685 46.1705C18.0685 34.3705 27.6685 24.7705 39.4685 24.7705C51.2685 24.7705 60.8685 34.3705 60.8685 46.1705V46.1705Z" fill="#F6FEFF" stroke="#4178EF" stroke-width="4"/>
<path d="M46.8685 47.5706C46.8685 50.9619 44.1294 53.5706 40.8685 53.5706C37.4772 53.5706 34.8685 50.9619 34.8685 47.5706C34.8685 44.3097 37.4772 41.5706 40.8685 41.5706C44.1294 41.5706 46.8685 44.3097 46.8685 47.5706Z" fill="#423F53"/>
<path d="M122.869 46.1705C122.869 57.9705 113.269 67.5705 101.469 67.5705C89.6685 67.5705 80.0685 57.9705 80.0685 46.1705C80.0685 34.3705 89.6685 24.7705 101.469 24.7705C113.269 24.7705 122.869 34.3705 122.869 46.1705V46.1705Z" fill="#FAFCFB" stroke="#4178EF" stroke-width="4"/>
<path d="M108.869 47.5706C108.869 50.9619 106.129 53.5706 102.869 53.5706C99.4772 53.5706 96.8685 50.9619 96.8685 47.5706C96.8685 44.3097 99.4772 41.5706 102.869 41.5706C106.129 41.5706 108.869 44.3097 108.869 47.5706Z" fill="#423F53"/>
<path d="M69.1686 54.1705C69.1686 54.1705 70.8686 5.87048 8.46857 5.87048" stroke="#4178EF" stroke-width="4"/>
<path d="M69.1686 54.1705C69.1686 54.1705 67.3686 5.87048 129.769 5.87048" stroke="#4178EF" stroke-width="4"/>
<path d="M63.5685 62.1704C63.5685 56.6704 66.1685 52.1704 69.3685 52.1704C72.5685 52.1704 75.1685 56.6704 75.1685 62.1704C75.1685 67.7704 69.3685 72.1704 69.3685 72.1704C69.3685 72.1704 63.5685 67.7704 63.5685 62.1704Z" fill="#F6FEFF" stroke="#4178EF" stroke-width="4"/>
<path d="M86.0686 96.5704C86.0686 96.5704 79.2686 162.77 109.369 173.67" stroke="#4178EF" stroke-width="4"/>
<path d="M33.0685 113.67V123.67" stroke="#4178EF" stroke-width="4"/>
<path d="M51.0685 113.67V123.67" stroke="#4178EF" stroke-width="4"/>
<path d="M69.0685 113.67V123.67" stroke="#4178EF" stroke-width="4"/>
<path d="M61.0685 131.67V141.67" stroke="#4178EF" stroke-width="4"/>
<path d="M51.0685 147.67V157.67" stroke="#4178EF" stroke-width="4"/>
<path d="M41.0685 131.67V141.67" stroke="#4178EF" stroke-width="4"/>
<path d="M49.0685 3.67041V15.6704" stroke="#4178EF" stroke-width="4"/>
<path d="M59.0685 3.67041V25.6704" stroke="#4178EF" stroke-width="4"/>
<path d="M89.0685 3.67041V15.6704" stroke="#4178EF" stroke-width="4"/>
<path d="M79.0685 3.67041V25.6704" stroke="#4178EF" stroke-width="4"/>
<path d="M69.0685 3.67041V41.6704" stroke="#4178EF" stroke-width="4"/>
<path d="M103.469 96.5704C103.469 96.5704 98.6685 147.97 136.769 150.57" stroke="#4178EF" stroke-width="4"/>
</svg>
