<svg width="4700" height="667" fill="none" xmlns="http://www.w3.org/2000/svg"><path d="M45.079 221.587H1.003L0 667h4700V128h-39.38c-57.15 0-107.4 37.834-123.2 92.76-22.26 77.402-109.54 115.344-181.33 78.823l-97.64-49.678c-61-31.037-135.52-13.054-175.65 42.39-38.17 52.722-107.8 71.91-167.58 46.177l-81.57-35.11c-50.06-21.549-108.09-11.953-148.54 24.563-58.93 53.189-150.31 46.513-200.89-14.674l-84.26-101.946c-60.07-72.678-154.84-108.018-247.94-93.078-41.88 6.72-81.87 23.339-116.09 48.396L2920 251.5l-83.01 59.914a190.747 190.747 0 0 1-111.65 36.086c-60.3 0-117.05 28.512-153.05 76.893l-50.93 68.44a211.198 211.198 0 0 1-39.09 40.104c-59.54 46.704-139.52 57.984-209.66 29.569l-20.46-8.293a249.133 249.133 0 0 1-56.15-31.751l-48.72-36.6a289.88 289.88 0 0 0-37.39-23.866 291.028 291.028 0 0 0-137.44-34.496h-57a518.168 518.168 0 0 1-183.73-33.666l-51.5-19.53a330.948 330.948 0 0 1-70.9-37.256l-148.21-102.533c-105.36-72.895-251.2-25.269-293.24 95.762-24.06 69.272-85.17 119.023-157.88 128.537l-114.402 14.969a380.587 380.587 0 0 1-245.351-51.12L481.873 321.527a700.003 700.003 0 0 0-360.455-99.94H45.079Z" fill="#4178EF"/><path d="m678.813 398.053-36.784-49.713a330.27 330.27 0 0 0-84.261-79.656C466.555 208.81 351.39 197.957 250.5 239.5L-2 339.5V0h4703.5v189.786A88.25 88.25 0 0 1 4668 259l-30.45 21.384a290.87 290.87 0 0 1-221.28 47.76 290.873 290.873 0 0 0-165.45 17.079l-18.32 7.592a357.518 357.518 0 0 1-171.42 25.537 357.91 357.91 0 0 1-196.99-83.387l-71.73-60.922a658.206 658.206 0 0 0-197.04-115.379L3558.5 105l-27.27-6.87a482.503 482.503 0 0 0-208.78-5.974l-15.12 2.9a373.596 373.596 0 0 0-98.88 33.858 373.77 373.77 0 0 0-79.78 54.581L3075 231.5l-22.16 20.591a700.003 700.003 0 0 1-344.88 174.723L2579 451.5 2295 507l-202.53 53.015a355.919 355.919 0 0 1-261.92-32.6 355.784 355.784 0 0 1-68.28-48.943l-174.64-159.54a268.846 268.846 0 0 1-35.37-39.361l-66.02-89.905c-49.17-66.96-142.63-82.761-211.08-35.687a153.796 153.796 0 0 0-44.88 47.838l-64.27 107.577a360.51 360.51 0 0 1-161.1 143.669l-42.001 18.973a233.724 233.724 0 0 1-284.096-73.983Z" fill="#fff" fill-opacity=".3"/><g filter="url(#a)"><path d="m5 349 245.5-97.5c100.89-41.543 216.055-30.69 307.268 29.184a330.27 330.27 0 0 1 84.261 79.656l36.784 49.713a233.724 233.724 0 0 0 284.096 73.983l42.001-18.973a360.51 360.51 0 0 0 161.1-143.669l64.27-107.577a153.796 153.796 0 0 1 44.88-47.838c68.45-47.074 161.91-31.273 211.08 35.687l66.02 89.905a268.846 268.846 0 0 0 35.37 39.361l174.64 159.54a355.784 355.784 0 0 0 68.28 48.943 355.919 355.919 0 0 0 261.92 32.6L2295 519l284-55.5 109.04-15.051a700.009 700.009 0 0 0 378.16-178.222L3104.5 235l97.22-72.574a342.475 342.475 0 0 1 102.49-52.381 342.543 342.543 0 0 1 204.6-.064l78.04 24.397a603.717 603.717 0 0 1 210.7 116.076l66.54 56.511a357.91 357.91 0 0 0 196.99 83.387 357.518 357.518 0 0 0 171.42-25.537l18.32-7.592a290.873 290.873 0 0 1 165.45-17.079l30.76 5.823c57.52 10.89 117-1.948 164.9-35.592l31.11-21.846A96.488 96.488 0 0 1 4698.5 271" stroke="#1A2F5C" stroke-opacity=".4" stroke-width="20"/></g><path d="m-2 337 252.5-97.5c100.89-41.543 216.055-30.69 307.268 29.184a330.27 330.27 0 0 1 84.261 79.656l36.784 49.713a233.724 233.724 0 0 0 284.096 73.983l42.001-18.973a360.51 360.51 0 0 0 161.1-143.669l64.27-107.577a153.796 153.796 0 0 1 44.88-47.838c68.45-47.074 161.91-31.273 211.08 35.687l66.02 89.905a268.846 268.846 0 0 0 35.37 39.361l174.64 159.54a355.784 355.784 0 0 0 68.28 48.943 355.919 355.919 0 0 0 261.92 32.6L2295 507l284-55.5 105.08-14.505a656.352 656.352 0 0 0 377.53-189.27l50.11-50.805a408.898 408.898 0 0 1 197.53-110.89 408.841 408.841 0 0 1 234.27 14.136l57.74 21.168a614.107 614.107 0 0 1 186.15 108.502l76.68 65.129a357.91 357.91 0 0 0 196.99 83.387 357.518 357.518 0 0 0 171.42-25.537l18.32-7.592a290.873 290.873 0 0 1 165.45-17.079l30.76 5.823c57.52 10.89 117-1.948 164.9-35.592l31.11-21.846A96.488 96.488 0 0 1 4698.5 259" stroke="#4178EF" stroke-width="20"/><defs><filter id="a" x="-28.691" y="54.38" width="4757.19" height="569.237" filterUnits="userSpaceOnUse" color-interpolation-filters="sRGB"><feFlood flood-opacity="0" result="BackgroundImageFix"/><feBlend in="SourceGraphic" in2="BackgroundImageFix" result="shape"/><feGaussianBlur stdDeviation="15" result="effect1_foregroundBlur_98_155"/></filter></defs></svg>