<svg width="4700" height="396" fill="none" xmlns="http://www.w3.org/2000/svg"><path d="M103.317 274.104 0 301.328V396h4700V151.556A457.533 457.533 0 0 1 4393.93 269h-77.36a659.182 659.182 0 0 1-211.41-34.823L3924.5 173l-24.58-12.327C3816.13 118.645 3716.49 123.317 3637 173l-9.9 6.396a482.507 482.507 0 0 1-413.42 52.701l-84.7-28.048a699.875 699.875 0 0 0-104.97-25.965L2891.5 156l-65.86-11.158A595.795 595.795 0 0 0 2486 187l-134.67 52.622a340.877 340.877 0 0 1-184.12 18.045L2068.5 240l-69.17-22.63a612.678 612.678 0 0 0-383.15.707l-35.65 11.811a359.966 359.966 0 0 0-58.78 25.479 359.606 359.606 0 0 1-273.53 29.047l-84.47-24.901a270.07 270.07 0 0 0-203.889 20.989 270.063 270.063 0 0 1-181.315 26.599L571.5 265.023A699.998 699.998 0 0 0 432.089 251H281.676a700.028 700.028 0 0 0-178.359 23.104Z" fill="#4178EF"/><path d="m1652.31 246.249-222.44 52.708a539.634 539.634 0 0 1-124.44 14.543h-43.44a345.837 345.837 0 0 1-147.57-33.064 345.816 345.816 0 0 0-205.698-28.142l-200.807 34.244a699.916 699.916 0 0 1-117.673 9.962H307.9a699.956 699.956 0 0 1-103.233-7.654L4.5 259V0H4699v183h-66.83c-37.67 0-75.24-4.027-112.06-12.013a528.62 528.62 0 0 0-243.16 4.502l-43.53 11.143a699.949 699.949 0 0 1-173.6 21.868H3928.5l-207.06-16.63a521.892 521.892 0 0 1-207.75-61.847l-82.62-44.973a152.398 152.398 0 0 0-199.36 48.847l-55.16 82.074a137.618 137.618 0 0 1-65.74 52.03c-59.91 22.542-127.44.801-162.95-52.454l-22.54-33.811c-53.82-80.729-160.07-107.502-245.72-61.914l-114.03 60.698a331.454 331.454 0 0 1-111.59 35.908l-125.52 16.861a419.415 419.415 0 0 1-224.95-31.869l-27.33-12.043c-105.38-46.427-226.59-39.743-326.22 17.988a360.53 360.53 0 0 1-97.65 38.884Z" fill="#fff" fill-opacity=".3"/><g filter="url(#a)"><path d="M4698.5 194h-66.33c-37.67 0-75.24-4.027-112.06-12.013a528.62 528.62 0 0 0-243.16 4.502l-43.53 11.143a699.949 699.949 0 0 1-173.6 21.868H3928.5l-207.06-16.63a521.892 521.892 0 0 1-207.75-61.847l-82.62-44.973a152.398 152.398 0 0 0-72.87-18.55c-50.75 0-98.18 25.269-126.49 67.397l-55.16 82.074a137.618 137.618 0 0 1-65.74 52.03c-59.91 22.542-127.44.801-162.95-52.454l-22.54-33.811c-53.82-80.729-160.07-107.502-245.72-61.914l-114.03 60.698a331.454 331.454 0 0 1-111.59 35.908l-125.52 16.861a419.415 419.415 0 0 1-224.95-31.869l-27.33-12.043c-105.38-46.427-226.59-39.743-326.22 17.988a360.53 360.53 0 0 1-97.65 38.884l-222.44 52.708a539.634 539.634 0 0 1-124.44 14.543h-43.44a345.837 345.837 0 0 1-147.57-33.064 345.816 345.816 0 0 0-205.698-28.142l-200.807 34.244a699.916 699.916 0 0 1-117.673 9.962h-267.88a699.93 699.93 0 0 1-131.542-12.471l-76.309-14.6A585.451 585.451 0 0 0 4.5 270" stroke="#1A2F5C" stroke-opacity=".4" stroke-width="20"/></g><path d="M4698.5 183h-66.33c-37.67 0-75.24-4.027-112.06-12.013a528.62 528.62 0 0 0-243.16 4.502l-43.53 11.143a699.949 699.949 0 0 1-173.6 21.868H3928.5l-207.06-16.63a521.892 521.892 0 0 1-207.75-61.847l-82.62-44.973a152.398 152.398 0 0 0-72.87-18.55c-50.75 0-98.18 25.269-126.49 67.397l-55.16 82.074a137.618 137.618 0 0 1-65.74 52.03c-59.91 22.542-127.44.801-162.95-52.454l-22.54-33.811c-53.82-80.729-160.07-107.502-245.72-61.914l-114.03 60.698a331.454 331.454 0 0 1-111.59 35.908l-125.52 16.861a419.415 419.415 0 0 1-224.95-31.869l-27.33-12.043c-105.38-46.427-226.59-39.743-326.22 17.988a360.53 360.53 0 0 1-97.65 38.884l-222.44 52.708a539.634 539.634 0 0 1-124.44 14.543h-43.44a345.837 345.837 0 0 1-147.57-33.064 345.816 345.816 0 0 0-205.698-28.142l-200.807 34.244a699.916 699.916 0 0 1-117.673 9.962h-267.88a699.93 699.93 0 0 1-131.542-12.471l-76.309-14.6A585.451 585.451 0 0 0 4.5 259" stroke="#4178EF" stroke-width="20"/><defs><filter id="a" x="-25.5" y="37.5" width="4754" height="327" filterUnits="userSpaceOnUse" color-interpolation-filters="sRGB"><feFlood flood-opacity="0" result="BackgroundImageFix"/><feBlend in="SourceGraphic" in2="BackgroundImageFix" result="shape"/><feGaussianBlur stdDeviation="15" result="effect1_foregroundBlur_98_164"/></filter></defs></svg>