<svg width="4700" height="864" fill="none" xmlns="http://www.w3.org/2000/svg"><path d="m698.738 601.231-105.489-13.994a367.354 367.354 0 0 0-179.198 20.92c-101.169 38.58-214.206 30.563-308.917-21.91L0 528v336h4700V344.432l-230.87 85.958a204.785 204.785 0 0 0-106.9 91.286c-51.55 91.383-163.84 129.013-260.05 87.151l-8.07-3.514a214.563 214.563 0 0 0-169.53-.719l-12.93 5.499c-77.12 32.777-165.58 24.265-235.03-22.614L3628.5 555l-183.24-118.445a281.738 281.738 0 0 0-222.05-36.525l-3.83.967a297.313 297.313 0 0 0-156.95 99.672L2983 597.5l-74.67 92.153a235.958 235.958 0 0 1-183.35 87.425 235.99 235.99 0 0 1-115.96-30.457l-119.98-67.695a700.11 700.11 0 0 0-152.65-63.69L2206 578.189l-106.54-27.205a360.295 360.295 0 0 1-190.57-122.002 360.325 360.325 0 0 0-98.1-84.083l-11.47-6.689a433.064 433.064 0 0 0-141.91-52.256l-115-20.608a246.453 246.453 0 0 1-67.53-22.551c-109.09-55.034-242.02-21.835-312.43 78.023l-79.05 112.124c-86.925 123.292-235.117 188.126-384.662 168.289Z" fill="#fff"/><path d="m1536.03 119.542-61.12-47.982a65.876 65.876 0 0 0-40.68-14.06c-25.99 0-49.55 15.283-60.15 39.016l-28.77 64.415a98.858 98.858 0 0 1-37.92 43.556c-30.22 18.857-68.24 20.007-99.53 3.011L1125 162.5l-42.47-29.254a120.536 120.536 0 0 0-179.183 51.842l-18.067 42.216a237.247 237.247 0 0 1-31.564 53.24l-32.733 41.66a177.665 177.665 0 0 1-258.487 22.352l-63.829-57.388a352.165 352.165 0 0 0-76.25-52.241L385.6 216.269A325.38 325.38 0 0 0 6.048 278.845L1 284v579h4694.5V177.5l-70.43 47.425c-18.95 12.759-41.52 19.575-64.36 19.575-36.32 0-70.85 17.378-92.21 46.75a113.522 113.522 0 0 1-91.81 46.75h-40.97c-46.07 0-87.53 27.948-104.81 70.65-18.9 46.697-66.41 75.258-116.51 70.042l-151.2-15.74a315.124 315.124 0 0 1-182.49-83.156L3706 310l-116.47-103.351a201.99 201.99 0 0 0-152.76-50.04l-11.76 1.093a175.666 175.666 0 0 0-125.24 70.806 175.62 175.62 0 0 0-19.67 34.207l-37.11 85.553a315.202 315.202 0 0 1-95.38 123.138 315.131 315.131 0 0 1-174.69 65.993l-52.37 3.166a484.308 484.308 0 0 0-95.55 15.467l-121.87 32.499a559.675 559.675 0 0 0-80.13 28.032l-87.25 38.172A270.8 270.8 0 0 1 2367 670.659l-3.1-.707a255.743 255.743 0 0 1-95.56-43.994 255.743 255.743 0 0 1-95.57-143.065l-.63-2.534a263.018 263.018 0 0 0-53.2-104.547l-12.99-15.563a210.292 210.292 0 0 0-198.89-72.162l-74.53 13.49a211.787 211.787 0 0 1-204.79-78.247l-41.89-53.777a290.406 290.406 0 0 0-49.82-50.011Z" fill="#fff" fill-opacity=".3"/><g filter="url(#a)"><path d="M4696.5 164.5a49.506 49.506 0 0 0-29.7 9.9l-41.21 30.906a110.971 110.971 0 0 1-66.58 22.194c-35.5 0-68.86 16.988-89.75 45.701l-.76 1.049a113.522 113.522 0 0 1-91.81 46.75h-40.97c-46.07 0-87.53 27.948-104.81 70.65-18.9 46.697-66.41 75.258-116.51 70.042l-151.2-15.74a315.124 315.124 0 0 1-182.49-83.156L3706 293l-116.47-103.351a201.99 201.99 0 0 0-152.76-50.04l-11.76 1.093a175.666 175.666 0 0 0-125.24 70.806 175.62 175.62 0 0 0-19.67 34.207l-37.11 85.553a315.202 315.202 0 0 1-95.38 123.138 315.131 315.131 0 0 1-174.69 65.993l-52.37 3.166a484.308 484.308 0 0 0-95.55 15.467l-121.87 32.499a559.675 559.675 0 0 0-80.13 28.032l-87.25 38.172A270.8 270.8 0 0 1 2367 653.659l-3.1-.707a255.743 255.743 0 0 1-95.56-43.994 255.743 255.743 0 0 1-95.57-143.065l-.63-2.534a263.018 263.018 0 0 0-53.2-104.547l-12.99-15.563a210.292 210.292 0 0 0-105.01-67.813c-30.56-8.514-62.66-10-93.88-4.349l-74.53 13.49a211.787 211.787 0 0 1-204.79-78.247l-41.89-53.777a290.406 290.406 0 0 0-49.82-50.011l-61.12-47.982a65.876 65.876 0 0 0-40.68-14.06c-25.99 0-49.55 15.283-60.15 39.016l-28.77 64.415a98.858 98.858 0 0 1-37.92 43.556c-30.22 18.857-68.24 20.007-99.53 3.011L1125 145.5l-42.47-29.254a120.536 120.536 0 0 0-117.179-10.944 120.524 120.524 0 0 0-62.004 62.786l-18.067 42.216a237.247 237.247 0 0 1-31.564 53.24l-32.733 41.66a177.665 177.665 0 0 1-258.487 22.352l-63.829-57.388a352.165 352.165 0 0 0-76.25-52.241l-38.202-19.36c-67.622-34.269-146.317-43.243-220.097-25.82C104.604 186.801 49.583 218.133 7.5 262.5" stroke="#1A2F5C" stroke-opacity=".4" stroke-width="20"/></g><path d="M4696.5 181.5a49.506 49.506 0 0 0-29.7 9.9l-41.21 30.906a110.971 110.971 0 0 1-66.58 22.194c-35.5 0-68.86 16.988-89.75 45.701l-.76 1.049a113.522 113.522 0 0 1-91.81 46.75h-40.97c-46.07 0-87.53 27.948-104.81 70.65-18.9 46.697-66.41 75.258-116.51 70.042l-151.2-15.74a315.124 315.124 0 0 1-182.49-83.156L3706 310l-116.47-103.351a201.99 201.99 0 0 0-152.76-50.04l-11.76 1.093a175.666 175.666 0 0 0-125.24 70.806 175.62 175.62 0 0 0-19.67 34.207l-37.11 85.553a315.202 315.202 0 0 1-95.38 123.138 315.131 315.131 0 0 1-174.69 65.993l-52.37 3.166a484.308 484.308 0 0 0-95.55 15.467l-121.87 32.499a559.675 559.675 0 0 0-80.13 28.032l-87.25 38.172A270.8 270.8 0 0 1 2367 670.659l-3.1-.707a255.743 255.743 0 0 1-95.56-43.994 255.743 255.743 0 0 1-95.57-143.065l-.63-2.534a263.018 263.018 0 0 0-53.2-104.547l-12.99-15.563a210.292 210.292 0 0 0-105.01-67.813c-30.56-8.514-62.66-10-93.88-4.349l-74.53 13.49a211.787 211.787 0 0 1-204.79-78.247l-41.89-53.777a290.406 290.406 0 0 0-49.82-50.011l-61.12-47.982a65.876 65.876 0 0 0-40.68-14.06c-25.99 0-49.55 15.283-60.15 39.016l-28.77 64.415a98.858 98.858 0 0 1-37.92 43.556c-30.22 18.857-68.24 20.007-99.53 3.011L1125 162.5l-42.47-29.254a120.536 120.536 0 0 0-117.179-10.944 120.524 120.524 0 0 0-62.004 62.786l-18.067 42.216a237.247 237.247 0 0 1-31.564 53.24l-32.733 41.66a177.665 177.665 0 0 1-258.487 22.352l-63.829-57.388a352.165 352.165 0 0 0-76.25-52.241l-28.879-14.636A349.718 349.718 0 0 0 7.304 267.187L-7 279.5" stroke="#4178EF" stroke-width="20"/><defs><filter id="a" x="-29.755" y=".5" width="4756.26" height="699.938" filterUnits="userSpaceOnUse" color-interpolation-filters="sRGB"><feFlood flood-opacity="0" result="BackgroundImageFix"/><feBlend in="SourceGraphic" in2="BackgroundImageFix" result="shape"/><feGaussianBlur stdDeviation="15" result="effect1_foregroundBlur_98_153"/></filter></defs></svg>