<svg width="4700" height="445" fill="none" xmlns="http://www.w3.org/2000/svg"><path d="M101.374 323.095-2 350.328V445h4701V200.556A457.648 457.648 0 0 1 4392.89 318h-77.4a659.378 659.378 0 0 1-211.45-34.823L3923.34 222l-62.25-31.212c-60.42-30.3-132.27-26.932-189.59 8.888l-23.94 14.961a63.878 63.878 0 0 0-19.45 18.952c-24.88 37.629-79.86 38.341-105.71 1.368l-68.41-97.864c-43.15-61.714-126.33-80.177-191.53-42.512L3220.19 119 3049.3 230.082a315.269 315.269 0 0 1-222.46 46.848 315.25 315.25 0 0 0-176.94 22.319l-50.85 22.236a346.576 346.576 0 0 1-251.08 10.36c-38.36-13.128-74.24-32.988-105.77-58.475-30.52-24.67-65.11-44.105-102.07-57.291l-22.3-7.956a250.806 250.806 0 0 1-65.52-35.062l-43.32-32.262c-82.06-61.114-197.53-47.736-263.44 30.522a193.588 193.588 0 0 1-23.36 23.356l-53.32 44.892a222.39 222.39 0 0 1-110.1 49.783l-1.5.227a215.309 215.309 0 0 0-84.95 32.171 215.321 215.321 0 0 1-177.89 25.791l-132.44-39.029a270.16 270.16 0 0 0-203.925 20.99 270.156 270.156 0 0 1-181.35 26.6l-207.122-42.085A700.015 700.015 0 0 0 430.211 300H279.698a699.979 699.979 0 0 0-178.324 23.095Z" fill="#fff"/><g filter="url(#a)"><path d="M-2 246.5a411.926 411.926 0 0 1 161.293 32.891l27.571 11.732a558.813 558.813 0 0 0 123.497 36.432l18.628 3.225a700.001 700.001 0 0 0 321.408-19.52L742.5 283.5l69.534-25.184a223.503 223.503 0 0 1 169.933 7.29c68.633 31.745 148.663 26.632 212.693-13.587L1295 189c56.68-29.602 124.59-30.622 182.38-3.253 54.89 25.991 119.02 26.805 174.34 1.745l62.42-28.276a354.627 354.627 0 0 1 286.86-2.567L2164 227l91.17 43.922a585.35 585.35 0 0 0 380.94 44.086 585.364 585.364 0 0 0 252.56-125.727L3000 94.5c81.07-58.036 187.75-65.943 276.49-20.493L3316.5 94.5l6.5 4.208a700.04 700.04 0 0 0 304.7 108.253l98.23 10.681a699.951 699.951 0 0 0 171.82-2.535l44.48-6.168a699.976 699.976 0 0 1 283.61 18.929l98.08 27.258a449.2 449.2 0 0 0 206.08 8.141c28.27-5.499 57-8.267 85.79-8.267h82.71" stroke="#1A2F5C" stroke-opacity=".4" stroke-width="20"/></g><path d="m328.989 338.78-16.787-2.906a700 700 0 0 1-128.075-34.948l-16.373-6.188a699.95 699.95 0 0 0-98.66-29.205L0 250.5V437h4698V263h-82.21c-28.79 0-57.52 2.768-85.79 8.267a449.2 449.2 0 0 1-206.08-8.141l-98.08-27.258a699.976 699.976 0 0 0-283.61-18.929l-44.48 6.168a699.951 699.951 0 0 1-171.82 2.535l-98.23-10.681A700.043 700.043 0 0 1 3323 106.708l-6.5-4.208-40.01-20.493c-88.74-45.45-195.42-37.543-276.49 20.493l-111.33 94.781a585.35 585.35 0 0 1-633.5 81.641L2164 235l-163-70.351a354.63 354.63 0 0 0-286.86 2.566l-62.42 28.277c-55.32 25.06-119.45 24.246-174.34-1.745-57.79-27.369-125.7-26.349-182.38 3.253l-100.34 63.019c-64.03 40.219-144.06 45.332-212.693 13.587a223.503 223.503 0 0 0-169.933-7.29L742.5 291.5l-92.103 27.76a700.001 700.001 0 0 1-321.408 19.52Z" fill="#fff" fill-opacity=".3"/><path d="M-2 254.5a411.926 411.926 0 0 1 161.293 32.891l27.571 11.732a558.813 558.813 0 0 0 123.497 36.432l18.628 3.225a700.001 700.001 0 0 0 321.408-19.52L742.5 291.5l69.534-25.184a223.503 223.503 0 0 1 169.933 7.29c68.633 31.745 148.663 26.632 212.693-13.587L1295 197c56.68-29.602 124.59-30.622 182.38-3.253 54.89 25.991 119.02 26.805 174.34 1.745l62.42-28.276a354.627 354.627 0 0 1 286.86-2.567L2164 235l91.17 43.922a585.35 585.35 0 0 0 380.94 44.086 585.364 585.364 0 0 0 252.56-125.727L3000 102.5c81.07-58.036 187.75-65.943 276.49-20.493l40.01 20.493 6.5 4.208a700.043 700.043 0 0 0 304.7 108.253l98.23 10.681a699.951 699.951 0 0 0 171.82-2.535l44.48-6.168a699.976 699.976 0 0 1 283.61 18.929l98.08 27.258a449.2 449.2 0 0 0 206.08 8.141c28.27-5.499 57-8.267 85.79-8.267h82.71" stroke="#4178EF" stroke-width="20"/><defs><filter id="a" x="-32" y="4.717" width="4760.5" height="376.323" filterUnits="userSpaceOnUse" color-interpolation-filters="sRGB"><feFlood flood-opacity="0" result="BackgroundImageFix"/><feBlend in="SourceGraphic" in2="BackgroundImageFix" result="shape"/><feGaussianBlur stdDeviation="15" result="effect1_foregroundBlur_98_167"/></filter></defs></svg>