<svg width="4700" height="547" fill="none" xmlns="http://www.w3.org/2000/svg"><path d="M42.07 412.944 0 407.128V547h4700V0h-137.44a274.77 274.77 0 0 0-191.28 77.509c-67.44 65.392-163.61 91.801-254.99 70.02l-95.57-22.779c-68.45-16.317-140.16 8.525-183.84 63.692-81.57 102.989-243.22 85.581-303.61-31.091-16.05-31.006-40.84-57.129-71.07-74.586l-48.85-28.203c-70.33-40.61-153.12-57.168-233.76-47.453-53.6 6.458-105.99 24.32-152.21 52.22l-55 33.206a680.101 680.101 0 0 0-162.22 136.52l-51.04 58.816a461.892 461.892 0 0 1-122.61 99.943c-104.75 58.836-228.7 74.424-344.84 43.646-61.96-16.424-120.06-45.586-170.2-85.532l-117.14-93.324A282.8 282.8 0 0 0 1828.13 191a282.736 282.736 0 0 0-150.7 43.508l-151.22 95.25c-81.1 51.082-186.47 40.921-256.31-24.717l-16.36-15.378c-55.62-52.273-138.27-63.515-205.83-27.995a178.974 178.974 0 0 1-139.319 11.557l-95.582-31.514a416.179 416.179 0 0 0-301.438 15.881l-122.028 55.045a411.629 411.629 0 0 0-60.81 33.886A411.683 411.683 0 0 1 42.07 412.944Z" fill="#4178EF"/></svg>