<svg width="4700" height="463" fill="none" xmlns="http://www.w3.org/2000/svg"><path d="M103.317 240.104 0 267.328V463h4700V117.556A457.533 457.533 0 0 1 4393.93 235h-35.77a550.752 550.752 0 0 1-279.54-76.218L4070.5 154l-15.25-8.955c-95.16-55.894-210.74-64.922-313.42-24.485l-24.91 9.807a168.204 168.204 0 0 0-40.63 22.96l-50.8 38.918c-28.51 21.837-67.94 22.484-97.16 1.594a81.633 81.633 0 0 0-72.36-11.356l-84.89 27.143a259.177 259.177 0 0 1-123.25 8.502l-88.97-15.433a522.897 522.897 0 0 0-89.38-7.695h-24.75a421.794 421.794 0 0 1-194.79-47.67 421.798 421.798 0 0 0-266.89-41.462L2516 117.5l-129.64 38.345a700.108 700.108 0 0 0-93.23 34.957L2236 217l-91 37.5-110.68 31.823a478.154 478.154 0 0 1-362.64-40.613L1619.5 217l-80.86-46.414a375.96 375.96 0 0 0-298.53-33.024l-140.87 43.688a455.95 455.95 0 0 0-80.26 33.582 456.012 456.012 0 0 1-306.157 44.912L571.5 231.023A699.998 699.998 0 0 0 432.089 217H281.676a700.028 700.028 0 0 0-178.359 23.104Z" fill="#fff"/><path d="m471.171 198.377-94.306 22.005a576.543 576.543 0 0 1-266.478-1.06L1.5 193v255.5h4698v-404h-202l-120.54 6.684a699.924 699.924 0 0 0-267.87 69.66L4000 174l-149.44 72.055a699.91 699.91 0 0 1-186.53 59.541l-123.16 20.969A700.011 700.011 0 0 1 3120 267.339l-93.88-45.148a700.174 700.174 0 0 0-121.43-45.098l-60.49-16.282a699.992 699.992 0 0 0-390.18 7.633l-33.41 10.409a700.454 700.454 0 0 0-94.52 37.17L2064.92 341.31c-109.53 52.543-237.08 52.083-346.23-1.249a397.287 397.287 0 0 1-120.02-90.217L1448.58 84.162a119.941 119.941 0 0 0-48.21-32.297 119.876 119.876 0 0 0-100.57 8.967L1109 171l-118.951 60.254c-93.095 47.156-203.348 45.897-295.341-3.372a319.637 319.637 0 0 0-223.537-29.505Z" fill="#fff" fill-opacity=".3"/><g filter="url(#a)"><path d="m1.5 190 109.474 26.012a578.498 578.498 0 0 0 265.178.536l95.019-22.171a319.637 319.637 0 0 1 223.537 29.505c91.993 49.269 202.246 50.528 295.341 3.372L1109 167l190.8-110.168a119.876 119.876 0 0 1 100.57-8.967 119.941 119.941 0 0 1 48.21 32.297l150.09 165.682a397.287 397.287 0 0 0 120.02 90.217c109.15 53.332 236.7 53.792 346.23 1.249l261.17-125.287a700.454 700.454 0 0 1 94.52-37.17l33.41-10.409a699.992 699.992 0 0 1 390.18-7.633l60.49 16.282a700.174 700.174 0 0 1 121.43 45.098l93.88 45.148a700.011 700.011 0 0 0 420.87 59.226l123.16-20.969a699.91 699.91 0 0 0 186.53-59.541L4000 170l109.09-53.156a699.924 699.924 0 0 1 267.87-69.66L4497.5 40.5H4705" stroke="#1A2F5C" stroke-opacity=".4" stroke-width="20"/></g><path d="m1.5 194 109.474 26.012a578.498 578.498 0 0 0 265.178.536l95.019-22.171a319.637 319.637 0 0 1 223.537 29.505c91.993 49.269 202.246 50.528 295.341 3.372L1109 171l190.8-110.168a119.876 119.876 0 0 1 100.57-8.967 119.941 119.941 0 0 1 48.21 32.297l150.09 165.682a397.287 397.287 0 0 0 120.02 90.217c109.15 53.332 236.7 53.792 346.23 1.249l261.17-125.287a700.454 700.454 0 0 1 94.52-37.17l33.41-10.409a699.992 699.992 0 0 1 390.18-7.633l60.49 16.282a700.174 700.174 0 0 1 121.43 45.098l93.88 45.148a700.011 700.011 0 0 0 420.87 59.226l123.16-20.969a699.91 699.91 0 0 0 186.53-59.541L4000 174l109.09-53.156a699.924 699.924 0 0 1 267.87-69.66L4497.5 44.5H4705" stroke="#4178EF" stroke-width="20"/><defs><filter id="a" x="-30.811" y=".5" width="4765.81" height="415.891" filterUnits="userSpaceOnUse" color-interpolation-filters="sRGB"><feFlood flood-opacity="0" result="BackgroundImageFix"/><feBlend in="SourceGraphic" in2="BackgroundImageFix" result="shape"/><feGaussianBlur stdDeviation="15" result="effect1_foregroundBlur_98_177"/></filter></defs></svg>