<svg width="4700" height="1100" fill="none" xmlns="http://www.w3.org/2000/svg"><path opacity=".3" d="m1467.11 633.401-41.4-45.818a203.51 203.51 0 0 0-89.51-57.556c-85.97-27.25-179.63 5.333-230.12 80.06l-125.069 185.09c-90.699 134.224-283.039 148.332-392.351 28.776-59.201-64.749-147.966-93.799-233.993-76.578l-97.503 19.517a426.624 426.624 0 0 1-83.738 8.299h-470.819V-391H5117.5V658.589l-105.09 22.804a401.315 401.315 0 0 0-198.17 107.923l-11.68 11.641a239.864 239.864 0 0 1-37.8 30.691c-77.23 50.619-176.76 51.415-242.38-13.545-34.19-33.844-63-66.203-76.34-82.823-10.27-12.796-36.72-40.287-64.31-67.751-38.69-38.516-96.15-49.514-147.35-30.564a147.252 147.252 0 0 0-83.59 78.614l-16.41 37.163c-23.8 53.922-72 93.177-129.63 105.58-58.72 12.639-119.91-4.176-163.93-45.047l-115.19-106.95-124.75-105.753a414.782 414.782 0 0 1-101.37-128.157 414.813 414.813 0 0 1-25.37-61.675l-33.93-105.987a215.988 215.988 0 0 0-15.21-35.948l-46.23-86.511a52.342 52.342 0 0 0-46.17-27.676c-21.97 0-41.6 13.714-49.15 34.34l-54.8 149.562-39.14 144.363a378.482 378.482 0 0 1-55.19 117.957l-26.35 37.651a243.36 243.36 0 0 1-199.4 103.832h-9.29a265.04 265.04 0 0 0-155.37 50.318 265.17 265.17 0 0 0-35.54 30.874l-97.9 101.663a396.346 396.346 0 0 1-138.04 92.962l-6.68 2.68a370.056 370.056 0 0 1-194.06 22.22 370.17 370.17 0 0 1-151.51-59.637l-89.91-61.09-42.24-31.939a661.326 661.326 0 0 0-246.27-115.966l-31.79-5.787a431.544 431.544 0 0 1-242.86-135.22Z" fill="#fff"/><g filter="url(#a)"><path d="M-302 787.712h475.426c28.118 0 56.167-2.78 83.738-8.299l97.503-19.517c86.027-17.221 174.792 11.829 233.993 76.578 109.312 119.556 301.652 105.448 392.351-28.777l125.069-185.089c50.49-74.727 144.15-107.31 230.12-80.06a203.51 203.51 0 0 1 89.51 57.556l41.4 45.818a431.544 431.544 0 0 0 242.86 135.22l31.79 5.787a661.326 661.326 0 0 1 246.27 115.966l42.24 31.939 89.91 61.09a369.904 369.904 0 0 0 151.51 59.636 370.056 370.056 0 0 0 194.06-22.22l6.68-2.68a396.411 396.411 0 0 0 138.04-92.961l97.9-101.663a265.099 265.099 0 0 1 35.54-30.874 265.04 265.04 0 0 1 155.37-50.318h9.29c24.74 0 49.34-3.772 72.94-11.186a243.353 243.353 0 0 0 126.46-92.646l26.35-37.651a378.482 378.482 0 0 0 55.19-117.957l39.14-144.363 54.8-149.562c7.55-20.626 27.18-34.34 49.15-34.34a52.342 52.342 0 0 1 46.17 27.676l46.23 86.51a216.034 216.034 0 0 1 15.21 35.949l33.93 105.987a414.813 414.813 0 0 0 25.37 61.675 414.635 414.635 0 0 0 101.37 128.157l124.75 105.753 115.19 106.95c44.02 40.871 105.21 57.686 163.94 45.047 57.62-12.403 105.82-51.658 129.62-105.58l16.41-37.164a147.254 147.254 0 0 1 83.59-78.613c51.2-18.95 108.66-7.952 147.35 30.564 27.59 27.464 54.04 54.955 64.31 67.751 13.34 16.62 42.15 48.979 76.34 82.823 65.62 64.96 165.15 64.164 242.38 13.545a239.864 239.864 0 0 0 37.8-30.691l41.08-40.94a347.805 347.805 0 0 1 125.25-79.987 347.8 347.8 0 0 1 120.22-21.441h25.51" stroke="#1A2F5C" stroke-opacity=".4" stroke-width="20"/></g><path d="M-302 775.191h475.426c28.118 0 56.167-2.78 83.738-8.299l97.503-19.517c86.027-17.221 174.792 11.829 233.993 76.578 109.312 119.556 301.652 105.448 392.351-28.777l125.069-185.089c50.49-74.727 144.15-107.31 230.12-80.06a203.51 203.51 0 0 1 89.51 57.556l41.4 45.818a431.544 431.544 0 0 0 242.86 135.22l31.79 5.787a661.326 661.326 0 0 1 246.27 115.966l42.24 31.939 89.91 61.09a370.17 370.17 0 0 0 151.51 59.637 370.056 370.056 0 0 0 194.06-22.22l6.68-2.68a396.373 396.373 0 0 0 138.04-92.962l97.9-101.663a265.099 265.099 0 0 1 35.54-30.874 265.04 265.04 0 0 1 155.37-50.318h9.29c24.74 0 49.34-3.772 72.94-11.186a243.353 243.353 0 0 0 126.46-92.646l26.35-37.651a378.482 378.482 0 0 0 55.19-117.957l39.14-144.363 54.8-149.562c7.55-20.626 27.18-34.34 49.15-34.34a52.342 52.342 0 0 1 46.17 27.676l46.23 86.51a216.034 216.034 0 0 1 15.21 35.949l33.93 105.987a414.813 414.813 0 0 0 25.37 61.675 414.635 414.635 0 0 0 101.37 128.157l124.75 105.753 115.19 106.95c44.02 40.871 105.21 57.686 163.94 45.047 57.62-12.403 105.82-51.658 129.62-105.58l16.41-37.164a147.254 147.254 0 0 1 83.59-78.613c51.2-18.95 108.66-7.952 147.35 30.564 27.59 27.464 54.04 54.955 64.31 67.751 13.34 16.62 42.15 48.979 76.34 82.823 65.62 64.96 165.15 64.164 242.38 13.545a239.864 239.864 0 0 0 37.8-30.691l41.08-40.94a347.805 347.805 0 0 1 125.25-79.987 347.8 347.8 0 0 1 120.22-21.441h25.51" stroke="#4178EF" stroke-width="20"/><defs><filter id="a" x="-332" y="127.139" width="5476.62" height="972.747" filterUnits="userSpaceOnUse" color-interpolation-filters="sRGB"><feFlood flood-opacity="0" result="BackgroundImageFix"/><feBlend in="SourceGraphic" in2="BackgroundImageFix" result="shape"/><feGaussianBlur stdDeviation="15" result="effect1_foregroundBlur_98_146"/></filter></defs></svg>