<svg width="195" height="35" fill="none" xmlns="http://www.w3.org/2000/svg"><path d="M24.61 0v6.543L0 21.952v-6.544L24.61 0Zm0 13.048v6.543L0 35v-6.543l24.61-15.409Z" fill="#4178EF"/><path d="M35 0v6.543L10.39 21.952v-6.544L35 0Zm0 13.048v6.543L10.39 35v-6.543L35 13.048Z" fill="#CBD5D7"/><path d="M51.202 24V5.818h10.973v1.953h-8.772v5.682h4.617c1.302 0 2.4.213 3.294.64.9.425 1.58 1.026 2.041 1.802.468.775.702 1.69.702 2.743s-.234 1.982-.702 2.787c-.461.805-1.142 1.436-2.041 1.891-.894.456-1.992.684-3.294.684h-6.818Zm2.201-1.918h4.617c.828 0 1.53-.165 2.104-.497.58-.337 1.018-.77 1.314-1.296a3.371 3.371 0 0 0 .453-1.687c0-.87-.335-1.619-1.004-2.246-.668-.633-1.624-.95-2.867-.95h-4.617v6.676ZM71.41 24.32c-.864 0-1.648-.163-2.353-.489a4.037 4.037 0 0 1-1.678-1.429c-.414-.627-.621-1.385-.621-2.273 0-.781.154-1.414.462-1.9a3.26 3.26 0 0 1 1.234-1.154 6.487 6.487 0 0 1 1.704-.621 20.745 20.745 0 0 1 1.891-.338c.829-.106 1.5-.186 2.015-.24.521-.058.9-.156 1.137-.292.242-.136.364-.373.364-.71v-.071c0-.876-.24-1.557-.72-2.042-.473-.486-1.192-.728-2.157-.728-1 0-1.784.219-2.352.657-.569.438-.968.905-1.199 1.402l-1.989-.71c.356-.829.83-1.474 1.421-1.935a5.323 5.323 0 0 1 1.953-.977 8.109 8.109 0 0 1 2.095-.284c.438 0 .941.053 1.51.16.574.1 1.127.31 1.66.63.538.32.985.802 1.34 1.447.355.645.533 1.51.533 2.593V24h-2.095v-1.847h-.107c-.142.296-.379.613-.71.95-.332.338-.772.625-1.323.861-.55.237-1.222.356-2.015.356Zm.32-1.883c.828 0 1.526-.162 2.095-.488.574-.325 1.006-.746 1.296-1.26a3.212 3.212 0 0 0 .444-1.625v-1.918c-.09.107-.284.204-.586.293-.296.083-.64.157-1.03.222-.385.06-.76.113-1.127.16a47.03 47.03 0 0 0-.88.107 8.003 8.003 0 0 0-1.526.346c-.468.154-.847.387-1.137.701-.284.308-.426.728-.426 1.26 0 .729.27 1.28.808 1.652.544.367 1.234.55 2.069.55Zm18.88-6.214v1.953h-7.528v-1.953h7.528Zm-7.03-5.86V24h-2.096V10.364h2.095Zm8.629 0V24h-2.096V10.364h2.096ZM96.034 24V10.364h2.095v5.93h1.385l4.9-5.93h2.699l-5.504 6.57L107.185 24h-2.698l-4.475-5.753H98.13V24h-2.095Zm15.523-3.09 6.569-10.546h2.415V24h-2.095V13.453L111.913 24h-2.45V10.364h2.095V20.91Zm12.822 8.204v-18.75h2.024v2.166h.248c.154-.237.367-.539.639-.906.279-.373.675-.704 1.19-.994.521-.296 1.225-.444 2.113-.444 1.148 0 2.16.287 3.036.861.876.574 1.56 1.388 2.051 2.442.491 1.053.737 2.296.737 3.728 0 1.445-.246 2.696-.737 3.756-.491 1.053-1.172 1.87-2.042 2.45-.87.574-1.873.861-3.009.861-.876 0-1.578-.145-2.105-.435-.526-.296-.932-.63-1.216-1.003a13.509 13.509 0 0 1-.657-.941h-.177v7.209h-2.095Zm2.059-11.932c0 1.03.151 1.938.453 2.725.302.782.743 1.394 1.323 1.838.58.438 1.29.657 2.13.657.876 0 1.607-.23 2.193-.693.592-.467 1.036-1.094 1.332-1.882.302-.793.453-1.675.453-2.645 0-.959-.148-1.823-.444-2.592-.29-.776-.731-1.388-1.323-1.838-.586-.456-1.323-.684-2.211-.684-.852 0-1.568.216-2.148.648-.58.426-1.018 1.024-1.314 1.794-.296.763-.444 1.654-.444 2.672Zm18.715 7.102c-1.231 0-2.312-.293-3.241-.879-.923-.586-1.645-1.405-2.166-2.459-.515-1.054-.772-2.285-.772-3.693 0-1.42.257-2.66.772-3.72.521-1.06 1.243-1.882 2.166-2.468.929-.586 2.01-.879 3.241-.879 1.231 0 2.308.293 3.231.879.929.586 1.651 1.409 2.166 2.468.521 1.06.782 2.3.782 3.72 0 1.409-.261 2.64-.782 3.693-.515 1.053-1.237 1.873-2.166 2.46-.923.585-2 .878-3.231.878Zm0-1.882c.935 0 1.704-.24 2.308-.72.604-.479 1.05-1.109 1.34-1.89a7.24 7.24 0 0 0 .435-2.54c0-.91-.145-1.76-.435-2.547-.29-.787-.736-1.424-1.34-1.909-.604-.485-1.373-.728-2.308-.728-.935 0-1.705.243-2.309.728-.603.486-1.05 1.122-1.34 1.909a7.314 7.314 0 0 0-.435 2.548c0 .911.145 1.758.435 2.539.29.781.737 1.411 1.34 1.89.604.48 1.374.72 2.309.72Zm14.917 6.25V5.818h2.095v22.834h-2.095Zm0-4.368c-.924 0-1.764-.166-2.522-.497a5.648 5.648 0 0 1-1.953-1.43c-.544-.62-.964-1.364-1.26-2.228-.296-.864-.444-1.823-.444-2.876 0-1.066.148-2.03.444-2.894.296-.87.716-1.616 1.26-2.238a5.503 5.503 0 0 1 1.953-1.429c.758-.337 1.598-.506 2.522-.506h.639v14.098h-.639Zm0-1.882h.355V12.068h-.355c-.699 0-1.305.142-1.82.426-.515.279-.941.66-1.279 1.146a5.255 5.255 0 0 0-.745 1.65 7.841 7.841 0 0 0-.24 1.963c0 .911.145 1.758.435 2.539.29.781.737 1.411 1.34 1.89.604.48 1.374.72 2.309.72Zm2.095 1.882h-.639V10.186h.639c.923 0 1.764.169 2.521.506a5.486 5.486 0 0 1 1.953 1.43c.545.62.965 1.367 1.261 2.237.296.864.444 1.829.444 2.894 0 1.053-.148 2.012-.444 2.876-.296.864-.716 1.607-1.261 2.229a5.63 5.63 0 0 1-1.953 1.429c-.757.331-1.598.497-2.521.497Zm0-1.882c.704 0 1.311-.136 1.82-.408a3.599 3.599 0 0 0 1.269-1.137 5.11 5.11 0 0 0 .746-1.651 7.538 7.538 0 0 0 .249-1.953c0-.912-.145-1.76-.435-2.548-.29-.787-.737-1.424-1.341-1.909-.604-.485-1.373-.728-2.308-.728h-.355v10.334h.355Zm14.921 6.25V5.818h2.095v22.834h-2.095Zm0-4.368c-.923 0-1.763-.166-2.521-.497a5.63 5.63 0 0 1-1.953-1.43c-.545-.62-.965-1.364-1.261-2.228-.296-.864-.444-1.823-.444-2.876 0-1.066.148-2.03.444-2.894.296-.87.716-1.616 1.261-2.238a5.486 5.486 0 0 1 1.953-1.429c.758-.337 1.598-.506 2.521-.506h.639v14.098h-.639Zm0-1.882h.355V12.068h-.355c-.698 0-1.305.142-1.82.426a3.65 3.65 0 0 0-1.278 1.146 5.257 5.257 0 0 0-.746 1.65 7.841 7.841 0 0 0-.24 1.963c0 .911.145 1.758.435 2.539.29.781.737 1.411 1.341 1.89.604.48 1.373.72 2.308.72Zm2.095 1.882h-.639V10.186h.639c.924 0 1.764.169 2.522.506a5.503 5.503 0 0 1 1.953 1.43c.544.62.965 1.367 1.261 2.237.295.864.443 1.829.443 2.894 0 1.053-.148 2.012-.443 2.876-.296.864-.717 1.607-1.261 2.229a5.648 5.648 0 0 1-1.953 1.429c-.758.331-1.598.497-2.522.497Zm0-1.882c.705 0 1.311-.136 1.82-.408a3.61 3.61 0 0 0 1.27-1.137 5.13 5.13 0 0 0 .746-1.651 7.58 7.58 0 0 0 .248-1.953c0-.912-.145-1.76-.435-2.548-.29-.787-.737-1.424-1.34-1.909-.604-.485-1.373-.728-2.309-.728h-.355v10.334h.355Z" fill="#4178EF"/></svg>