<svg width="139" height="176" fill="none" xmlns="http://www.w3.org/2000/svg"><path d="M65.069 173.67c-48.6 0-57.7-45.2-61.7-68.5-2.1-12.1-1.1-36.6 0-48.9 1.7-19.8 8-53.3 64.5-53.3 56.4 0 64.9 37.4 67 58.5 2.7 26.8 1.7 112.2 1.7 112.2h-71.5Z" fill="#FAFCFB" stroke="#4178EF" stroke-width="4"/><path d="M60.868 46.17c0 11.8-9.6 21.4-21.4 21.4-11.8 0-21.4-9.6-21.4-21.4 0-11.8 9.6-21.4 21.4-21.4 11.8 0 21.4 9.6 21.4 21.4Z" fill="#F6FEFF" stroke="#4178EF" stroke-width="4"/><path d="M46.868 47.57c0 3.392-2.739 6-6 6-3.39 0-6-2.608-6-6 0-3.26 2.61-6 6-6 3.261 0 6 2.74 6 6Z" fill="#423F53"/><path d="M122.869 46.17c0 11.8-9.6 21.4-21.4 21.4-11.8 0-21.4-9.6-21.4-21.4 0-11.8 9.6-21.4 21.4-21.4 11.8 0 21.4 9.6 21.4 21.4Z" fill="#FAFCFB" stroke="#4178EF" stroke-width="4"/><path d="M108.869 47.57c0 3.392-2.74 6-6 6-3.392 0-6-2.608-6-6 0-3.26 2.608-6 6-6 3.26 0 6 2.74 6 6Z" fill="#423F53"/><path d="M69.169 54.17s1.7-48.3-60.7-48.3" stroke="#4178EF" stroke-width="4"/><path d="M69.169 54.17s-1.8-48.3 60.6-48.3" stroke="#4178EF" stroke-width="4"/><path d="M63.569 62.17c0-5.5 2.6-10 5.8-10 3.2 0 5.8 4.5 5.8 10 0 5.6-5.8 10-5.8 10s-5.8-4.4-5.8-10Z" fill="#F6FEFF" stroke="#4178EF" stroke-width="4"/><path d="M86.069 96.57s-6.8 66.2 23.3 77.1m-76.3-60v10m18-10v10m18-10v10m-8 8v10m-10 6v10m-10-26v10m8-138v12m10-12v22m30-22v12m-10-12v22m-10-22v38m34.4 54.9s-4.8 51.4 33.3 54" stroke="#4178EF" stroke-width="4"/></svg>